<svg width="15" height="20" viewBox="0 0 15 20" fill="none" xmlns="http://www.w3.org/2000/svg">
<g filter="url(#filter0_f_646_2387)">
<path d="M6.04159 10.9024C5.98903 10.9024 4.83258 10.9024 4.30692 10.9024C4.02657 10.9024 3.93896 10.7972 3.93896 10.5344C3.93896 9.83354 3.93896 9.11514 3.93896 8.41427C3.93896 8.13392 4.0441 8.04631 4.30692 8.04631H6.04159C6.04159 7.99374 6.04159 6.97747 6.04159 6.50438C6.04159 5.8035 6.16425 5.13767 6.51468 4.52441C6.88264 3.89362 7.4083 3.47309 8.07413 3.22778C8.51218 3.07009 8.95023 3 9.42332 3H11.1405C11.3858 3 11.4909 3.10513 11.4909 3.35044V5.34793C11.4909 5.59324 11.3858 5.69837 11.1405 5.69837C10.6674 5.69837 10.1943 5.69837 9.72119 5.71589C9.2481 5.71589 9.00279 5.94368 9.00279 6.43429C8.98527 6.95995 9.00279 7.46808 9.00279 8.01126H11.0353C11.3157 8.01126 11.4208 8.11639 11.4208 8.39675V10.5169C11.4208 10.7972 11.3332 10.8849 11.0353 10.8849C10.4045 10.8849 9.05536 10.8849 9.00279 10.8849V16.597C9.00279 16.8949 8.91518 17 8.59979 17C7.86387 17 7.14547 17 6.40955 17C6.14672 17 6.04159 16.8949 6.04159 16.632C6.04159 14.7922 6.04159 10.9549 6.04159 10.9024Z" fill="url(#paint0_linear_646_2387)" fill-opacity="0.8"/>
</g>
<path d="M5.84042 10.9024C5.78786 10.9024 4.63141 10.9024 4.10575 10.9024C3.8254 10.9024 3.73779 10.7972 3.73779 10.5344C3.73779 9.83354 3.73779 9.11514 3.73779 8.41427C3.73779 8.13392 3.84292 8.04631 4.10575 8.04631H5.84042C5.84042 7.99374 5.84042 6.97747 5.84042 6.50438C5.84042 5.8035 5.96307 5.13767 6.31351 4.52441C6.68147 3.89362 7.20713 3.47309 7.87296 3.22778C8.31101 3.07009 8.74906 3 9.22215 3H10.9393C11.1846 3 11.2897 3.10513 11.2897 3.35044V5.34793C11.2897 5.59324 11.1846 5.69837 10.9393 5.69837C10.4662 5.69837 9.99311 5.69837 9.52002 5.71589C9.04693 5.71589 8.80162 5.94368 8.80162 6.43429C8.7841 6.95995 8.80162 7.46808 8.80162 8.01126H10.8342C11.1145 8.01126 11.2196 8.11639 11.2196 8.39675V10.5169C11.2196 10.7972 11.132 10.8849 10.8342 10.8849C10.2034 10.8849 8.85419 10.8849 8.80162 10.8849V16.597C8.80162 16.8949 8.71401 17 8.39862 17C7.6627 17 6.9443 17 6.20838 17C5.94555 17 5.84042 16.8949 5.84042 16.632C5.84042 14.7922 5.84042 10.9549 5.84042 10.9024Z" fill="url(#paint1_linear_646_2387)" fill-opacity="0.8"/>
<defs>
<filter id="filter0_f_646_2387" x="0.938965" y="0" width="13.5518" height="20" filterUnits="userSpaceOnUse" color-interpolation-filters="sRGB">
<feFlood flood-opacity="0" result="BackgroundImageFix"/>
<feBlend mode="normal" in="SourceGraphic" in2="BackgroundImageFix" result="shape"/>
<feGaussianBlur stdDeviation="1.5" result="effect1_foregroundBlur_646_2387"/>
</filter>
<linearGradient id="paint0_linear_646_2387" x1="5.61777" y1="13.9094" x2="12.7926" y2="12.8052" gradientUnits="userSpaceOnUse">
<stop stop-color="#94F930"/>
<stop offset="1" stop-color="#05E3DB"/>
</linearGradient>
<linearGradient id="paint1_linear_646_2387" x1="5.41659" y1="13.9094" x2="12.5914" y2="12.8052" gradientUnits="userSpaceOnUse">
<stop stop-color="#94F930"/>
<stop offset="1" stop-color="#05E3DB"/>
</linearGradient>
</defs>
</svg>
