<svg width="8" height="14" viewBox="0 0 8 14" fill="none" xmlns="http://www.w3.org/2000/svg">
<path d="M2.40634 7.90238C2.35377 7.90238 1.19733 7.90238 0.671671 7.90238C0.391321 7.90238 0.303711 7.79725 0.303711 7.53442C0.303711 6.83354 0.303711 6.11514 0.303711 5.41427C0.303711 5.13392 0.408842 5.04631 0.671671 5.04631H2.40634C2.40634 4.99374 2.40634 3.97747 2.40634 3.50438C2.40634 2.8035 2.52899 2.13767 2.87943 1.52441C3.24739 0.893617 3.77305 0.473091 4.43888 0.227785C4.87693 0.0700875 5.31497 0 5.78807 0H7.50521C7.75052 0 7.85565 0.105131 7.85565 0.350438V2.34793C7.85565 2.59324 7.75052 2.69837 7.50521 2.69837C7.03212 2.69837 6.55903 2.69837 6.08594 2.71589C5.61285 2.71589 5.36754 2.94368 5.36754 3.43429C5.35002 3.95995 5.36754 4.46808 5.36754 5.01126H7.40008C7.68043 5.01126 7.78556 5.11639 7.78556 5.39675V7.5169C7.78556 7.79725 7.69795 7.88486 7.40008 7.88486C6.76929 7.88486 5.42011 7.88486 5.36754 7.88486V13.597C5.36754 13.8949 5.27993 14 4.96454 14C4.22862 14 3.51022 14 2.7743 14C2.51147 14 2.40634 13.8949 2.40634 13.632C2.40634 11.7922 2.40634 7.95494 2.40634 7.90238Z" fill="#D7D7D7"/>
</svg>
