<svg width="32" height="33" viewBox="0 0 32 33" fill="none" xmlns="http://www.w3.org/2000/svg">
<path opacity="0.32" d="M30.6593 26.651C28.3879 29.8576 23.7115 30.6593 20.5048 28.2543C17.5654 26.1165 14.6259 23.9787 11.6865 21.8409C8.747 19.7032 5.94116 17.699 3.00171 15.5612C-0.204963 13.2898 -1.00663 8.61341 1.39838 5.40674C3.80338 2.20007 8.34618 1.3984 11.5529 3.80341C14.3587 5.80758 17.1645 7.81175 19.8368 9.81592C22.9098 11.9537 25.9829 14.2251 28.9223 16.3629C32.129 18.9015 32.9307 23.4443 30.6593 26.651Z" fill="url(#paint0_linear_495_1442)"/>
<path opacity="0.3256" d="M11.5527 3.93682C14.3586 5.94099 17.1644 7.94516 19.9702 9.94933C23.0433 12.0871 25.9827 14.3585 29.0558 16.6299C32.2625 18.9013 32.9305 23.4441 30.6591 26.6508C28.3877 29.8574 23.845 30.6591 20.6383 28.3877C17.6988 26.2499 14.7594 24.2458 11.8199 22.108C8.8805 19.9702 6.07466 17.966 3.13521 15.8282C-0.0714677 13.5568 -0.739531 9.01406 1.53186 5.67377C3.80326 2.33349 8.34605 1.66543 11.5527 3.93682Z" fill="url(#paint1_linear_495_1442)"/>
<path opacity="0.3312" d="M11.5526 3.93692C14.3584 5.80748 17.1642 7.81165 19.9701 9.81582C23.0431 11.9536 25.9826 14.225 28.922 16.4964C31.9951 18.7678 32.7968 23.3106 30.3918 26.5172C28.1204 29.7239 23.5776 30.5256 20.3709 28.2542C17.4314 26.25 14.492 24.1122 11.5526 21.9745C8.61311 19.8367 5.80725 17.6989 3.00141 15.6947C-0.0716471 13.4233 -0.873313 8.88054 1.53169 5.67387C3.9367 2.4672 8.34588 1.66552 11.5526 3.93692Z" fill="url(#paint2_linear_495_1442)"/>
<path opacity="0.3369" d="M11.6862 3.93704C14.492 5.8076 17.2979 7.81178 20.1037 9.81595C23.1768 11.9537 26.1162 14.2251 29.0557 16.4965C32.1287 18.7679 32.7968 23.3107 30.5254 26.5174C28.254 29.724 23.7112 30.5257 20.5046 28.3879C17.5651 26.3837 14.6257 24.3796 11.6862 22.2418C8.74676 20.104 5.94092 17.9662 3.13509 15.8285C0.0620234 13.4235 -0.606042 9.01428 1.66535 5.80761C3.93675 2.46732 8.47953 1.66565 11.6862 3.93704Z" fill="url(#paint3_linear_495_1442)"/>
<path opacity="0.3425" d="M11.6872 3.93705C14.4931 5.80761 17.2989 7.67818 20.1047 9.68235C23.1778 11.8201 26.1173 14.2251 28.9231 16.3629C31.9962 18.7679 32.6642 23.1771 30.2592 26.3838C27.9878 29.5904 23.445 30.3921 20.2384 28.2543C17.2989 26.2502 14.3595 24.246 11.42 22.1082C8.48055 19.9704 5.67471 17.8326 3.00248 15.6948C-0.0705781 13.2898 -0.738635 8.88068 1.66637 5.674C4.07138 2.60094 8.48055 1.79927 11.6872 3.93705Z" fill="url(#paint4_linear_495_1442)"/>
<path opacity="0.3481" d="M11.6871 3.93702C14.493 5.67397 17.2988 7.67815 20.1047 9.68232C23.1777 11.9537 26.1172 14.2251 28.923 16.3629C31.8625 18.7679 32.5305 23.1771 30.2591 26.3837C27.9877 29.5904 23.445 30.3921 20.2383 28.2543C17.2988 26.3837 14.3594 24.3796 11.4199 22.2418C8.48047 20.104 5.67463 17.9662 3.0024 15.8284C0.0629491 13.4234 -0.605108 9.01426 1.66629 5.80758C4.07129 2.60091 8.61408 1.79924 11.6871 3.93702Z" fill="url(#paint5_linear_495_1442)"/>
<path opacity="0.3537" d="M11.8209 3.93695C14.6268 5.67389 17.4326 7.54446 20.2384 9.54863C23.3115 11.82 26.2509 14.0914 29.0568 16.3628C31.9962 18.7678 32.6643 23.177 30.2593 26.3837C27.9879 29.5903 23.4451 30.392 20.372 28.3878C17.4326 26.5173 14.4932 24.5131 11.5537 22.3753C8.61425 20.2375 5.80841 18.0998 3.26979 15.962C0.330339 13.557 -0.33772 9.14779 2.06729 5.94112C4.20507 2.60083 8.61425 1.79916 11.8209 3.93695Z" fill="url(#paint6_linear_495_1442)"/>
<path opacity="0.3593" d="M11.8205 3.93703C14.6263 5.67398 17.4322 7.54454 20.238 9.54871C23.3111 11.8201 26.2505 14.0915 28.9227 16.3629C31.8622 18.7679 32.3966 23.1771 30.1252 26.3837C27.8538 29.5904 23.4447 30.3921 20.238 28.3879C17.2985 26.5173 14.3591 24.6468 11.4196 22.509C8.48019 20.3712 5.80796 18.2335 3.13574 15.9621C0.196286 13.5571 -0.338162 9.14787 1.93323 5.9412C4.20463 2.73453 8.6138 1.79925 11.8205 3.93703Z" fill="url(#paint7_linear_495_1442)"/>
<path opacity="0.365" d="M11.8208 3.9369C14.6266 5.54023 17.4324 7.41079 20.2383 9.41496C23.3113 11.6864 26.1172 13.9578 28.923 16.2292C31.7289 18.6342 32.3969 23.0433 29.9919 26.25C27.7205 29.4567 23.3113 30.3919 20.1047 28.3878C17.1652 26.6508 14.2257 24.6467 11.2863 22.5089C8.34685 20.3711 5.67463 18.0997 3.13601 15.9619C0.330176 13.5569 -0.337885 9.14774 2.06712 5.94107C4.33851 2.73439 8.74769 1.93273 11.8208 3.9369Z" fill="url(#paint8_linear_495_1442)"/>
<path opacity="0.3706" d="M11.8206 3.93691C14.6264 5.54025 17.4323 7.4108 20.2381 9.41497C23.3112 11.6864 26.117 13.9578 28.7892 16.2292C31.5951 18.6342 32.1295 23.0433 29.8581 26.25C27.5867 29.4567 23.1775 30.392 19.9709 28.3878C17.0314 26.6508 14.092 24.7803 11.1525 22.6425C8.21307 20.5047 5.54083 18.2333 3.00221 16.0955C0.196374 13.6905 -0.338066 9.28136 1.93333 6.07469C4.33833 2.86802 8.74751 1.93274 11.8206 3.93691Z" fill="url(#paint9_linear_495_1442)"/>
<path opacity="0.3762" d="M11.9541 3.80337C14.7599 5.40671 17.5658 7.14366 20.3716 9.14783C23.4447 11.4192 26.2505 13.6906 28.9228 16.0956C31.7286 18.5006 32.263 22.9098 29.858 26.1165C27.5866 29.3231 23.1775 30.2584 20.1044 28.3879C17.165 26.6509 14.2255 24.7804 11.1524 22.6426C8.213 20.5048 5.54076 18.2334 3.00214 16.0956C0.196304 13.6906 -0.204526 9.28143 2.06687 6.07476C4.47187 2.86809 8.74743 1.93281 11.9541 3.80337Z" fill="url(#paint10_linear_495_1442)"/>
<path opacity="0.3818" d="M11.9549 3.80347C14.6272 5.2732 17.7003 7.14375 20.5061 9.14793C23.5792 11.4193 26.385 13.8243 28.9236 16.0957C31.7295 18.5007 32.1303 22.9099 29.8589 25.983C27.5875 29.1896 23.1783 30.1249 20.1053 28.2544C17.1658 26.651 14.0927 24.7805 11.1533 22.6427C8.21384 20.5049 5.54161 18.2335 3.13661 15.9621C0.464381 13.5571 -0.0700704 9.14792 2.20132 5.94125C4.47272 3.0018 8.88189 2.06652 11.9549 3.80347Z" fill="url(#paint11_linear_495_1442)"/>
<path opacity="0.3874" d="M11.9537 3.80347C14.6259 5.2732 17.699 7.01015 20.5049 9.01432C23.5779 11.2857 26.3838 13.6907 28.9224 15.9621C31.5946 18.3671 32.129 22.7763 29.724 25.8493C27.4526 29.056 23.0435 29.9913 19.9704 28.2544C17.1646 26.651 13.9579 24.7805 11.0184 22.6427C8.07898 20.5049 5.40676 18.2335 3.00175 15.9621C0.329522 13.5571 -0.0713099 9.14792 2.20008 5.94125C4.60509 3.0018 8.88065 2.06652 11.9537 3.80347Z" fill="url(#paint12_linear_495_1442)"/>
<path opacity="0.3931" d="M12.0875 3.80332C14.7597 5.27305 17.8328 7.01 20.6386 9.01417C23.7117 11.2856 26.5175 13.6906 28.9225 15.962C31.5948 18.367 31.9956 22.6425 29.7242 25.8492C27.4528 29.0559 23.0436 29.9912 19.9706 28.2542C17.1647 26.6509 13.9581 24.9139 11.0186 22.7761C8.07916 20.6384 5.40694 18.367 3.13555 16.0956C0.463317 13.6906 0.0624748 9.28139 2.33387 6.07471C4.60526 3.00165 9.01444 2.06637 12.0875 3.80332Z" fill="url(#paint13_linear_495_1442)"/>
<path opacity="0.3987" d="M12.0875 3.80326C14.7597 5.27299 17.8328 6.87633 20.6386 9.01411C23.7117 11.2855 26.5175 13.6905 28.9225 15.9619C31.5948 18.3669 31.9956 22.6425 29.7242 25.8491C27.4528 29.0558 23.1772 29.9911 19.9706 28.3878C17.1647 26.918 13.9581 25.0475 11.0186 22.9097C8.07916 20.7719 5.40694 18.3669 3.13555 16.2291C0.59693 13.8241 0.196095 9.41494 2.46749 6.34188C4.73888 3.13521 9.01444 2.06632 12.0875 3.80326Z" fill="url(#paint14_linear_495_1442)"/>
<path opacity="0.4043" d="M12.0875 3.80339C14.7597 5.1395 17.8328 6.87645 20.6386 8.88062C23.7117 11.152 26.5175 13.557 28.7889 15.962C31.3275 18.367 31.7284 22.6426 29.457 25.8493C27.1856 29.0559 22.91 30.1248 19.837 28.3879C17.0311 26.9181 13.8245 25.1812 10.885 23.0434C7.94556 20.9056 5.27333 18.5006 3.13555 16.2292C0.59693 13.8242 0.196095 9.41507 2.46749 6.342C4.73888 3.13533 9.01444 2.20005 12.0875 3.80339Z" fill="url(#paint15_linear_495_1442)"/>
<path opacity="0.4099" d="M12.222 3.8034C14.8942 5.13951 17.9673 6.74285 20.7731 8.88063C23.8462 11.152 26.5184 13.557 28.9234 15.962C31.462 18.367 31.8628 22.6426 29.5915 25.8493C27.3201 29.0559 23.0445 30.1248 19.9714 28.5215C17.1656 27.0518 13.9589 25.3148 11.0195 23.177C8.08001 21.0393 5.5414 18.6343 3.27001 16.3629C0.731392 13.9579 0.464167 9.54869 2.73556 6.47562C4.87334 3.26895 9.14891 2.20006 12.222 3.8034Z" fill="url(#paint16_linear_495_1442)"/>
<path opacity="0.4155" d="M12.2204 3.8034C14.8926 5.13951 17.9657 6.74284 20.7715 8.74701C23.8446 11.0184 26.5168 13.557 28.7882 15.8284C31.3268 18.2334 31.594 22.509 29.3227 25.7157C27.0513 28.9223 22.7757 29.9912 19.7026 28.3879C16.8968 27.0518 13.6901 25.3148 10.7507 23.177C7.81123 21.0393 5.27261 18.6343 3.00121 16.3629C0.596207 13.9579 0.195381 9.6823 2.46677 6.47562C5.00539 3.26895 9.14735 2.20006 12.2204 3.8034Z" fill="url(#paint17_linear_495_1442)"/>
<path opacity="0.4212" d="M12.2205 3.8034C14.8927 5.0059 17.9657 6.60923 20.7716 8.74701C23.8446 11.0184 26.5169 13.557 28.7883 15.8284C31.1933 18.2334 31.5941 22.509 29.3227 25.7157C27.0513 28.9223 22.7757 29.9912 19.7027 28.3879C16.8968 27.0518 13.6902 25.3148 10.7507 23.177C7.81127 21.0393 5.27266 18.6343 3.13487 16.3629C0.729868 13.9579 0.462641 9.6823 2.73403 6.47562C5.00543 3.26895 9.14739 2.20006 12.2205 3.8034Z" fill="url(#paint18_linear_495_1442)"/>
<path opacity="0.4268" d="M12.3541 3.80338C15.0263 5.00588 18.0994 6.60921 20.9052 8.61338C23.9783 10.8848 26.6505 13.4234 28.7883 15.8284C31.1933 18.2334 31.4605 22.509 29.1891 25.7156C26.9177 28.9223 22.6421 29.9912 19.7027 28.5215C16.8968 27.1854 13.6902 25.582 10.7507 23.4442C7.81127 21.3065 5.27266 18.9015 3.13487 16.6301C0.729868 14.2251 0.462641 9.9495 2.73403 6.74282C5.13904 3.40254 9.28099 2.33365 12.3541 3.80338Z" fill="url(#paint19_linear_495_1442)"/>
<path opacity="0.4324" d="M12.3546 3.80325C15.0268 5.00576 18.0999 6.47548 21.0393 8.61326C24.1124 10.8847 26.7846 13.4233 28.9224 15.8283C31.3274 18.2333 31.5946 22.5089 29.3232 25.5819C27.0518 28.7886 22.9099 29.8575 19.8368 28.3877C17.031 27.1852 13.8243 25.4483 10.8849 23.3105C7.9454 21.1727 5.40678 18.6341 3.40261 16.3627C1.13121 13.9577 0.863993 9.68216 3.13539 6.47548C5.13956 3.40242 9.2815 2.33353 12.3546 3.80325Z" fill="url(#paint20_linear_495_1442)"/>
<path opacity="0.438" d="M12.3544 3.80338C15.0266 4.87227 18.0997 6.47561 21.0391 8.47978C24.1122 10.7512 26.7844 13.2898 28.9222 15.6948C31.1936 18.0998 31.4608 22.3754 29.1894 25.4484C26.918 28.6551 22.7761 29.724 19.703 28.3879C16.8972 27.1854 13.6905 25.582 10.7511 23.4443C7.81161 21.3065 5.27299 18.7679 3.26882 16.4965C0.997429 14.0915 0.7302 9.81589 3.00159 6.60922C5.27299 3.53616 9.41494 2.33366 12.3544 3.80338Z" fill="url(#paint21_linear_495_1442)"/>
<path opacity="0.4436" d="M12.3543 3.80341C15.0265 4.8723 18.0996 6.34203 21.039 8.47981C24.1121 10.7512 26.7843 13.2898 28.7885 15.6948C31.0599 18.0998 31.3271 22.3754 29.0557 25.4485C26.7843 28.6551 22.6424 29.724 19.5693 28.3879C16.7635 27.1854 13.5568 25.5821 10.4837 23.4443C7.54429 21.3065 5.00567 18.7679 3.13511 16.4965C0.863716 14.0915 0.730096 9.81592 3.00149 6.60925C5.27288 3.53619 9.41484 2.4673 12.3543 3.80341Z" fill="url(#paint22_linear_495_1442)"/>
<path opacity="0.4493" d="M12.4876 3.80342C15.1598 4.87232 18.2329 6.34204 21.1723 8.34621C24.2454 10.6176 26.784 13.1562 28.9218 15.5612C31.1932 17.9662 31.3268 22.2418 29.0554 25.3149C26.784 28.5215 22.6421 29.724 19.569 28.3879C16.7632 27.319 13.5565 25.7157 10.4834 23.5779C7.54397 21.4401 5.00535 18.9015 3.13479 16.6301C0.99701 14.2251 0.729779 9.94954 3.00117 6.74287C5.40618 3.5362 9.41453 2.46731 12.4876 3.80342Z" fill="url(#paint23_linear_495_1442)"/>
<path opacity="0.4549" d="M12.4882 3.80345C15.1605 4.73873 18.3671 6.20846 21.173 8.34624C24.246 10.6176 26.7847 13.2899 28.7888 15.6949C30.9266 18.0999 31.1938 22.3754 28.9224 25.4485C26.6511 28.6552 22.5091 29.8577 19.5697 28.5216C16.7638 27.4527 13.5571 25.8493 10.4841 23.7115C7.54462 21.5738 5.006 19.0352 3.26905 16.6302C1.13127 14.2251 0.997661 9.94957 3.26905 6.7429C5.40684 3.66984 9.54879 2.46734 12.4882 3.80345Z" fill="url(#paint24_linear_495_1442)"/>
<path opacity="0.4605" d="M12.4881 3.80333C15.1603 4.73861 18.367 6.20834 21.1728 8.21251C24.2459 10.4839 26.7845 13.1561 28.7886 15.5611C30.9264 17.9661 31.06 22.1081 28.7886 25.3148C26.5173 28.5214 22.3753 29.7239 19.4359 28.5214C16.63 27.4525 13.4233 25.9828 10.3503 23.845C7.41082 21.7073 5.00583 19.1686 3.13527 16.7636C0.997483 14.3586 0.863872 10.0831 3.13527 6.87639C5.54027 3.66972 9.54861 2.46721 12.4881 3.80333Z" fill="url(#paint25_linear_495_1442)"/>
<path opacity="0.4661" d="M12.6206 3.80335C15.2928 4.73863 18.4995 6.07475 21.3053 8.21253C24.3784 10.4839 26.917 13.1562 28.7876 15.5612C30.9254 17.9662 31.059 22.1081 28.7876 25.3148C26.5162 28.5215 22.3742 29.724 19.4348 28.5215C16.6289 27.5862 13.4223 25.9828 10.3492 23.8451C7.40974 21.7073 5.00475 19.035 3.13419 16.7637C1.13002 14.3586 0.996404 10.0831 3.2678 7.01003C5.53919 3.80335 9.54752 2.60085 12.6206 3.80335Z" fill="url(#paint26_linear_495_1442)"/>
<path opacity="0.4717" d="M12.6206 3.80335C15.2928 4.60502 18.4995 6.07474 21.3053 8.07891C24.3784 10.3503 26.917 13.0225 28.7876 15.4275C30.7917 17.8325 30.9253 21.9745 28.654 25.1812C26.3826 28.3878 22.3742 29.5903 19.3012 28.5215C16.4953 27.5862 13.155 26.1165 10.2156 23.9787C7.27615 21.8409 4.87114 19.1687 3.13419 16.8973C1.13002 14.4923 0.996404 10.2167 3.2678 7.14363C5.6728 3.80335 9.68113 2.60085 12.6206 3.80335Z" fill="url(#paint27_linear_495_1442)"/>
<path opacity="0.4774" d="M12.6216 3.80335C15.2938 4.60502 18.5005 5.94113 21.3063 8.07891C24.3794 10.3503 26.918 13.0225 28.6549 15.4275C30.6591 17.8325 30.7927 21.9745 28.5213 25.1812C26.25 28.3878 22.2416 29.5904 19.1685 28.5215C16.3627 27.5862 13.0224 26.1165 10.083 23.9787C7.14352 21.8409 4.73851 19.1687 3.00156 16.7637C0.997392 14.3586 0.997398 10.0831 3.26879 7.01003C5.6738 3.80335 9.68213 2.60085 12.6216 3.80335Z" fill="url(#paint28_linear_495_1442)"/>
<path opacity="0.483" d="M12.7557 3.80347C15.428 4.60513 18.6346 5.94125 21.5741 7.94542C24.6472 10.2168 27.1858 12.889 28.9227 15.4277C30.9269 17.8327 30.9269 21.9746 28.6555 25.0477C26.3841 28.2543 22.3758 29.4569 19.4363 28.5216C16.6305 27.7199 13.2902 26.2502 10.3507 24.1124C7.41127 21.9746 5.00627 19.3024 3.40293 16.8974C1.39876 14.4924 1.39876 10.2168 3.67015 7.14375C5.80794 3.93708 9.81628 2.60096 12.7557 3.80347Z" fill="url(#paint29_linear_495_1442)"/>
<path opacity="0.4886" d="M12.755 3.66973C15.4272 4.33779 18.6339 5.6739 21.5733 7.81168C24.6464 10.0831 27.185 12.8889 28.7883 15.2939C30.6589 17.6989 30.7925 21.8409 28.5211 24.9139C26.2497 28.1206 22.2414 29.4567 19.3019 28.3878C16.4961 27.5862 13.1558 26.1164 10.2164 23.9787C7.27692 21.8409 4.87191 19.1686 3.26857 16.7636C1.39801 14.225 1.398 10.0831 3.6694 7.01001C5.80718 3.93695 9.81553 2.73445 12.755 3.66973Z" fill="url(#paint30_linear_495_1442)"/>
<path opacity="0.4942" d="M12.755 3.66978C15.4272 4.33783 18.6339 5.67395 21.5733 7.67812C24.6464 9.94951 27.0514 12.7554 28.7883 15.1604C30.6589 17.5654 30.6589 21.7073 28.3875 24.7804C26.1161 27.987 22.1078 29.3232 19.1683 28.3879C16.3625 27.5862 13.0222 26.2501 10.0827 24.1123C7.1433 21.9745 4.7383 19.3023 3.26857 16.8973C1.39801 14.3587 1.398 10.2167 3.6694 7.14367C5.94079 4.07061 9.81553 2.7345 12.755 3.66978Z" fill="url(#paint31_linear_495_1442)"/>
<path opacity="0.4998" d="M12.8888 3.66983C15.561 4.33788 18.7677 5.54039 21.7071 7.67817C24.7802 9.94956 27.1852 12.7554 28.7885 15.1604C30.6591 17.5654 30.6591 21.7074 28.3877 24.7804C26.1163 27.9871 22.108 29.3232 19.1685 28.3879C16.3627 27.7199 13.0224 26.2501 10.083 24.1124C7.1435 21.9746 4.7385 19.1687 3.26878 16.7637C1.39822 14.2251 1.53183 10.0832 3.80322 7.01011C5.94101 4.07066 9.94935 2.73455 12.8888 3.66983Z" fill="url(#paint32_linear_495_1442)"/>
<path opacity="0.5055" d="M12.8882 3.66994C15.5604 4.20439 18.7671 5.5405 21.7065 7.67829C24.7796 9.94968 27.1846 12.7555 28.7879 15.2941C30.5249 17.6991 30.5249 21.8411 28.3871 24.9142C26.1157 28.1208 22.241 29.4569 19.3015 28.5217C16.4957 27.8536 13.1554 26.5175 10.216 24.3797C7.27652 22.2419 4.87151 19.4361 3.40178 17.0311C1.66484 14.4925 1.66484 10.4841 3.93623 7.27745C6.07401 4.07077 9.94875 2.86828 12.8882 3.66994Z" fill="url(#paint33_linear_495_1442)"/>
<path opacity="0.5111" d="M12.8892 3.66971C15.5614 4.20416 18.768 5.40666 21.7075 7.54444C24.7806 9.81584 27.1856 12.6217 28.7889 15.1603C30.5258 17.5653 30.5259 21.7072 28.2545 24.7803C25.9831 27.987 22.1083 29.3231 19.1689 28.5214C16.363 27.8534 13.0228 26.6509 9.9497 24.3795C7.01024 22.2417 4.73885 19.4358 3.26913 17.0308C1.53218 14.4922 1.66579 10.4839 3.93718 7.27722C6.07496 4.20415 9.9497 2.86804 12.8892 3.66971Z" fill="url(#paint34_linear_495_1442)"/>
<path opacity="0.5167" d="M12.889 3.66977C15.5612 4.20421 18.7679 5.40672 21.7073 7.5445C24.7804 9.81589 27.1854 12.6217 28.6551 15.1603C30.392 17.5653 30.2584 21.7073 28.1207 24.7804C25.8493 27.987 21.9745 29.3231 19.0351 28.5215C16.2292 27.987 12.889 26.6509 9.81591 24.5131C6.87646 22.3754 4.60506 19.5695 3.13534 17.1645C1.39839 14.6259 1.532 10.6176 3.80339 7.41088C6.2084 4.20421 10.0831 2.8681 12.889 3.66977Z" fill="url(#paint35_linear_495_1442)"/>
<path opacity="0.5223" d="M13.0234 3.66976C15.6956 4.0706 19.0359 5.27309 21.8417 7.41088C24.9148 9.68227 27.3198 12.4881 28.7895 15.0267C30.3928 17.4317 30.3928 21.5737 28.1215 24.6468C25.8501 27.8534 21.9753 29.1895 19.0359 28.5215C16.23 27.987 12.8898 26.7845 9.81669 24.5131C6.87724 22.3754 4.60585 19.5695 3.26973 17.1645C1.6664 14.6259 1.80001 10.6176 4.0714 7.41088C6.34279 4.33782 10.0839 2.8681 13.0234 3.66976Z" fill="url(#paint36_linear_495_1442)"/>
<path opacity="0.5279" d="M13.0222 3.66962C15.6944 4.07045 19.0347 5.27295 21.8406 7.41073C24.9136 9.68212 27.3186 12.6216 28.6547 15.0266C30.2581 17.4316 30.1245 21.4399 27.9867 24.6466C25.7153 27.8533 21.8406 29.1894 18.9011 28.5213C16.0953 27.9869 12.755 26.7844 9.68192 24.6466C6.74247 22.5088 4.47108 19.703 3.13497 17.1644C1.53163 14.6257 1.66524 10.6174 3.93663 7.41073C6.34164 4.33767 10.2164 3.00156 13.0222 3.66962Z" fill="url(#paint37_linear_495_1442)"/>
<path opacity="0.5336" d="M13.0223 3.66972C15.6945 4.07056 19.0348 5.13944 21.9742 7.27722C25.0473 9.54862 27.4523 12.4881 28.7884 15.0267C30.3918 17.4317 30.2582 21.44 27.9868 24.5131C25.7154 27.7198 21.8406 29.1895 19.0348 28.5214C16.229 28.1206 12.8887 26.9181 9.81562 24.6467C6.87617 22.5089 4.60477 19.5695 3.40227 17.1645C1.79893 14.6259 2.06615 10.6175 4.33755 7.41083C6.47533 4.47138 10.2164 3.00166 13.0223 3.66972Z" fill="url(#paint38_linear_495_1442)"/>
<path opacity="0.5392" d="M13.1562 3.66986C15.8284 3.93708 19.1687 5.13958 22.1082 7.27736C25.1812 9.54876 27.4526 12.4882 28.7888 15.0268C30.2585 17.5654 30.1249 21.4402 27.9871 24.5132C25.7157 27.7199 21.841 29.1896 19.0351 28.5216C16.3629 28.1207 12.889 26.9182 9.81594 24.7805C6.87649 22.6427 4.60509 19.7032 3.40259 17.2982C1.93286 14.7596 2.06647 10.7513 4.33786 7.6782C6.47564 4.47153 10.2168 3.0018 13.1562 3.66986Z" fill="url(#paint39_linear_495_1442)"/>
<path opacity="0.5448" d="M13.1563 3.66982C15.8285 3.93704 19.1688 5.00593 22.1083 7.14372C25.1813 9.41511 27.4527 12.3546 28.7888 14.8932C30.2585 17.4318 30.1249 21.3065 27.8535 24.3796C25.5822 27.5863 21.841 29.056 18.9016 28.5215C16.2294 28.1207 12.7555 27.0518 9.68239 24.7804C6.74294 22.6426 4.47155 19.7032 3.40266 17.2982C1.93293 14.7596 2.20016 10.7512 4.47155 7.67816C6.60934 4.47149 10.3505 3.13538 13.1563 3.66982Z" fill="url(#paint40_linear_495_1442)"/>
<path opacity="0.5504" d="M13.1561 3.66975C15.8283 3.93697 19.1686 5.00586 22.1081 7.14364C25.1811 9.41504 27.4525 12.3545 28.655 14.8931C30.1248 17.4317 29.8575 21.3064 27.7198 24.3795C25.4484 27.5862 21.7072 29.0559 18.7678 28.5215C16.0956 28.2542 12.6217 27.0517 9.5486 24.914C6.60915 22.7762 4.33776 19.8367 3.26887 17.2981C1.79915 14.7595 2.06636 10.7512 4.33776 7.67809C6.60915 4.60503 10.3503 3.1353 13.1561 3.66975Z" fill="url(#paint41_linear_495_1442)"/>
<path opacity="0.556" d="M13.2889 3.66975C15.9612 3.80336 19.3015 4.87225 22.2409 7.01003C25.314 9.28143 27.5854 12.2209 28.7879 14.7595C30.124 17.2981 29.9904 21.1728 27.719 24.2459C25.4476 27.4526 21.7065 28.9223 18.767 28.5215C16.0948 28.2542 12.4873 27.1854 9.54782 24.914C6.60837 22.7762 4.33698 19.8367 3.26809 17.2981C1.93198 14.7595 2.1992 10.7512 4.4706 7.67809C6.74199 4.60503 10.3495 3.1353 13.2889 3.66975Z" fill="url(#paint42_linear_495_1442)"/>
<path opacity="0.5617" d="M13.2891 3.66976C15.9613 3.80337 19.3016 4.87226 22.2411 7.01004C25.3142 9.28144 27.5855 12.3545 28.6544 14.8931C29.9905 17.4317 29.7233 21.3065 27.5855 24.3795C25.3142 27.5862 21.573 29.0559 18.7672 28.6551C16.095 28.3879 12.4875 27.319 9.548 25.1812C6.47494 23.0434 4.47077 20.104 3.40188 17.5653C2.06577 15.0267 2.33299 11.0184 4.60438 7.94532C6.74217 4.73865 10.4833 3.13531 13.2891 3.66976Z" fill="url(#paint43_linear_495_1442)"/>
<path opacity="0.5673" d="M13.2891 3.66981C15.9614 3.80342 19.3017 4.7387 22.2411 6.87649C25.3142 9.14788 27.5855 12.2209 28.6544 14.7595C29.9905 17.2982 29.7233 21.1729 27.4519 24.246C25.1805 27.4526 21.4394 28.9224 18.6336 28.6551C15.9614 28.5215 12.3539 27.4526 9.4144 25.1812C6.34134 23.0435 4.33717 19.9704 3.26828 17.5654C1.93217 15.0268 2.333 11.0184 4.60439 7.94537C6.87579 4.7387 10.4833 3.26898 13.2891 3.66981Z" fill="url(#paint44_linear_495_1442)"/>
<path opacity="0.5729" d="M13.2892 3.66981C15.9614 3.66981 19.3017 4.7387 22.2412 6.87649C25.3142 9.14788 27.5856 12.2209 28.5209 14.7595C29.857 17.2982 29.4562 21.1729 27.3184 24.246C25.047 27.4526 21.3059 28.9224 18.5001 28.6551C15.8278 28.5215 12.2203 27.4526 9.28086 25.3149C6.2078 23.1771 4.20363 20.104 3.26835 17.5654C2.06585 15.0268 2.33307 11.0184 4.60446 7.94537C6.87586 4.7387 10.617 3.26898 13.2892 3.66981Z" fill="url(#paint45_linear_495_1442)"/>
<path opacity="0.5785" d="M13.4237 3.66982C16.0959 3.66982 19.4362 4.60509 22.3756 6.74288C25.4487 9.01427 27.5865 12.0873 28.6554 14.626C29.8579 17.1646 29.5906 21.0393 27.3192 24.1124C25.0479 27.319 21.4404 28.9224 18.5009 28.5215C15.8287 28.3879 12.2212 27.4526 9.14811 25.1813C6.07505 23.0435 4.07087 19.9704 3.13559 17.4318C1.93309 14.8932 2.33392 10.8848 4.60532 7.81177C7.01032 4.87232 10.6178 3.26899 13.4237 3.66982Z" fill="url(#paint46_linear_495_1442)"/>
<path opacity="0.5841" d="M13.423 3.66979C15.9617 3.66979 19.4356 4.60506 22.5086 6.74284C25.5817 9.01423 27.7195 12.0873 28.6547 14.7595C29.8572 17.2981 29.4564 21.1729 27.3186 24.1123C25.0472 27.319 21.4397 28.9223 18.6339 28.6551C15.9617 28.6551 12.3542 27.5862 9.2811 25.4484C6.20804 23.3107 4.20386 20.2376 3.4022 17.699C2.19969 15.1604 2.60053 11.152 4.87192 8.07896C7.0097 4.87228 10.6172 3.26895 13.423 3.66979Z" fill="url(#paint47_linear_495_1442)"/>
<path opacity="0.5898" d="M13.4227 3.6697C15.9613 3.6697 19.5688 4.47136 22.5082 6.60914C25.5813 8.88054 27.7191 11.9536 28.6543 14.6258C29.8568 17.1645 29.456 21.0392 27.1846 23.9786C24.9132 27.1853 21.3057 28.7886 18.4999 28.5214C15.8277 28.5214 12.2202 27.5861 9.14709 25.3147C6.07403 23.177 4.06986 20.1039 3.26819 17.5653C2.1993 15.0267 2.60013 11.1519 4.87152 7.94526C7.14292 5.00581 10.7504 3.40248 13.4227 3.6697Z" fill="url(#paint48_linear_495_1442)"/>
<path opacity="0.5954" d="M13.5574 3.66977C16.096 3.53616 19.7035 4.47143 22.643 6.60922C25.716 8.88061 27.8538 11.9537 28.7891 14.6259C29.858 17.1645 29.4572 21.0393 27.3194 23.9787C25.048 27.1854 21.4405 28.7887 18.6346 28.6551C15.9624 28.6551 12.3549 27.7198 9.28186 25.582C6.2088 23.4443 4.20462 20.2376 3.40296 17.699C2.33406 15.1603 2.73489 11.2856 5.00629 8.07894C7.14407 5.00588 10.7516 3.40255 13.5574 3.66977Z" fill="url(#paint49_linear_495_1442)"/>
<path opacity="0.601" d="M13.556 3.6697C16.0946 3.53609 19.7021 4.33775 22.6415 6.47554C25.7146 8.74693 27.8524 11.9536 28.654 14.4922C29.7229 17.0308 29.3221 20.772 27.0507 23.845C24.7793 27.0517 21.1718 28.655 18.366 28.5214C15.6937 28.655 12.0862 27.7197 9.01316 25.4483C5.9401 23.3106 3.93594 20.1039 3.26788 17.5653C2.19899 15.0267 2.73343 11.1519 5.00482 7.94526C7.27622 5.00581 10.7501 3.40248 13.556 3.6697Z" fill="url(#paint50_linear_495_1442)"/>
<path opacity="0.6066" d="M13.5571 3.53615C16.0958 3.40253 19.7032 4.2042 22.6427 6.34198C25.7158 8.61338 27.8535 11.82 28.6552 14.3587C29.7241 16.8973 29.1897 20.6384 27.0519 23.7115C24.7805 26.9181 21.173 28.5215 18.3671 28.5215C15.6949 28.6551 12.0874 27.7198 9.01434 25.582C5.94127 23.4442 3.93711 20.2376 3.26905 17.6989C2.33377 15.1603 2.7346 11.2856 5.00599 8.21254C7.27739 5.13948 10.8849 3.53615 13.5571 3.53615Z" fill="url(#paint51_linear_495_1442)"/>
<path opacity="0.6122" d="M13.6902 3.53604C16.2289 3.26882 19.8364 4.07049 22.7758 6.34188C25.8489 8.61327 27.9867 11.8199 28.6547 14.4922C29.59 17.0308 29.1892 20.7719 27.0514 23.845C24.78 27.0516 21.1725 28.655 18.5003 28.655C15.828 28.7886 12.2205 27.9869 9.14747 25.7155C6.07441 23.5777 4.20384 20.3711 3.53578 17.8325C2.6005 15.2938 3.13495 11.4191 5.40635 8.34605C7.41052 5.13938 10.8844 3.53604 13.6902 3.53604Z" fill="url(#paint52_linear_495_1442)"/>
<path opacity="0.6179" d="M13.691 3.53617C16.2297 3.26894 19.8372 4.07061 22.7766 6.20839C25.8497 8.47979 27.9875 11.6864 28.6555 14.3587C29.5908 16.8973 29.0564 20.6384 26.9186 23.7115C24.6472 26.7845 21.1733 28.6551 18.3674 28.6551C15.6952 28.9223 12.0877 27.987 9.01465 25.8493C5.94158 23.7115 4.07103 20.5048 3.40297 17.8326C2.46769 15.294 3.00214 11.4192 5.27353 8.34617C7.54493 5.27311 11.0188 3.53617 13.691 3.53617Z" fill="url(#paint53_linear_495_1442)"/>
<path opacity="0.6235" d="M13.6907 3.53616C16.2294 3.26894 19.8369 3.937 22.7763 6.20839C25.8494 8.47978 27.8536 11.6864 28.5216 14.3587C29.4569 16.8973 28.9224 20.6384 26.7847 23.7115C24.5133 26.7845 21.0394 28.6551 18.2335 28.6551C15.5613 28.9223 11.9538 28.1207 8.88074 25.8493C5.80767 23.7115 3.93712 20.5048 3.40267 17.8326C2.601 15.294 3.13545 11.4192 5.27323 8.34617C7.54463 5.27311 11.0185 3.53616 13.6907 3.53616Z" fill="url(#paint54_linear_495_1442)"/>
<path opacity="0.6291" d="M13.824 3.53612C16.3627 3.13529 19.9702 3.93695 22.9096 6.07473C25.9827 8.34612 27.9868 11.5528 28.6549 14.225C29.4566 16.7637 28.9221 20.5048 26.7843 23.5778C24.513 26.6509 21.0391 28.5215 18.2332 28.6551C15.561 28.9223 11.9535 28.1206 8.88042 25.9828C5.80736 23.8451 3.9368 20.5048 3.40236 17.9662C2.60069 15.4275 3.13513 11.5528 5.40653 8.47974C7.67792 5.27307 11.0182 3.66973 13.824 3.53612Z" fill="url(#paint55_linear_495_1442)"/>
<path opacity="0.6347" d="M13.824 3.53607C16.3627 3.13524 19.9702 3.80329 23.0432 6.07468C26.1163 8.34608 28.1205 11.6864 28.6549 14.3586C29.4566 16.8972 28.9221 20.6383 26.7843 23.5778C24.513 26.6508 21.0391 28.5214 18.3668 28.655C15.6946 29.0559 12.0871 28.2542 9.01403 25.9828C5.94097 23.845 4.07041 20.5047 3.53596 17.9661C2.73429 15.4275 3.40235 11.5528 5.54013 8.47969C7.67792 5.40663 11.1518 3.66969 13.824 3.53607Z" fill="url(#paint56_linear_495_1442)"/>
<path opacity="0.6403" d="M13.8245 3.53613C16.3631 3.13529 19.9706 3.80334 23.0437 5.94113C26.1167 8.21252 28.1209 11.5528 28.6553 14.225C29.457 16.7637 28.789 20.5048 26.6512 23.4442C24.3798 26.5173 20.9059 28.3878 18.2337 28.6551C15.5614 29.0559 11.9539 28.2542 8.88086 26.1164C5.8078 23.9787 3.93724 20.6384 3.5364 18.0998C2.86835 15.4275 3.40279 11.6864 5.67418 8.61335C7.81197 5.40668 11.1523 3.66974 13.8245 3.53613Z" fill="url(#paint57_linear_495_1442)"/>
<path opacity="0.646" d="M13.8245 3.53604C16.3631 3.00159 19.9706 3.66964 23.0436 5.94104C26.1167 8.21243 28.1209 11.5527 28.5217 14.2249C29.1898 16.7636 28.6553 20.5047 26.5175 23.4441C24.2461 26.5172 20.7722 28.3878 18.1 28.655C15.4278 29.0558 11.6867 28.3877 8.74722 26.1164C5.67416 23.9786 3.8036 20.6383 3.40277 17.9661C2.73471 15.2938 3.40277 11.5527 5.54055 8.47966C7.81194 5.54021 11.1522 3.66965 13.8245 3.53604Z" fill="url(#paint58_linear_495_1442)"/>
<path opacity="0.6516" d="M13.958 3.53604C16.4967 3.00159 20.1042 3.66965 23.1772 5.80743C26.2503 8.07882 28.2545 11.4191 28.6553 14.0913C29.3233 16.6299 28.6553 20.3711 26.5175 23.3105C24.2461 26.3836 20.9058 28.2541 18.1 28.655C15.4278 29.1894 11.6867 28.3878 8.61359 26.25C5.54053 23.9786 3.66997 20.7719 3.40275 18.0997C2.73469 15.4274 3.40274 11.6863 5.67414 8.61326C7.94553 5.5402 11.2858 3.80326 13.958 3.53604Z" fill="url(#paint59_linear_495_1442)"/>
<path opacity="0.6572" d="M13.958 3.53604C16.4966 3.00159 20.2377 3.66965 23.1772 5.80743C26.2502 8.07882 28.2544 11.4191 28.5216 14.0913C29.1897 16.6299 28.5216 20.3711 26.3838 23.3105C24.1124 26.3836 20.7722 28.2541 17.9663 28.655C15.2941 29.1894 11.553 28.5214 8.47992 26.25C5.40685 23.9786 3.6699 20.7719 3.26907 18.0997C2.73462 15.4274 3.40268 11.6863 5.54046 8.61326C7.94546 5.5402 11.2857 3.80326 13.958 3.53604Z" fill="url(#paint60_linear_495_1442)"/>
<path opacity="0.6628" d="M13.9578 3.53619C16.4964 2.86813 20.2375 3.53619 23.177 5.67397C26.25 7.94537 28.1206 11.2856 28.5214 14.0915C29.0559 16.6301 28.3878 20.3712 26.25 23.3107C23.9787 26.3837 20.6384 28.3879 17.9661 28.6551C15.2939 29.1896 11.5528 28.5215 8.47973 26.3837C5.40667 24.1123 3.66972 20.7721 3.40249 18.2334C2.86805 15.5612 3.53611 11.8201 5.8075 8.74703C8.0789 5.67397 11.4192 3.80341 13.9578 3.53619Z" fill="url(#paint61_linear_495_1442)"/>
<path opacity="0.6684" d="M14.0916 3.53619C16.6302 2.86813 20.3713 3.53619 23.3108 5.67397C26.3839 7.94537 28.2544 11.2856 28.6552 14.0915C29.1897 16.6301 28.5216 20.2376 26.3839 23.3107C24.1125 26.3837 20.7722 28.3879 18.1 28.7887C15.4277 29.4568 11.6866 28.7887 8.61355 26.5173C5.54048 24.246 3.80353 20.9057 3.53631 18.2334C3.00186 15.5612 3.80354 11.8201 5.94132 8.74703C8.0791 5.67397 11.4194 3.93703 14.0916 3.53619Z" fill="url(#paint62_linear_495_1442)"/>
<path opacity="0.674" d="M14.0923 3.53618C16.6309 2.86812 20.372 3.40257 23.3115 5.54035C26.3845 7.81175 28.2551 11.2856 28.5223 13.9579C29.0568 16.4965 28.3887 20.104 26.1173 23.1771C23.8459 26.2501 20.5056 28.2543 17.8334 28.6551C15.1612 29.3232 11.4201 28.6551 8.347 26.5173C5.27394 24.2459 3.53699 20.9057 3.40338 18.2334C3.00255 15.5612 3.67061 11.8201 5.942 8.88064C8.2134 5.80758 11.4201 3.93702 14.0923 3.53618Z" fill="url(#paint63_linear_495_1442)"/>
<path opacity="0.6797" d="M14.0903 3.53609C16.6289 2.73442 20.37 3.40247 23.3094 5.54026C26.3825 7.81165 28.2531 11.2856 28.5203 13.9578C28.9211 16.4964 28.2531 20.1039 26.1153 23.177C23.8439 26.25 20.5036 28.2542 17.8314 28.7886C15.1592 29.4567 11.418 28.9223 8.34497 26.6509C5.27191 24.3795 3.53497 21.0392 3.40136 18.3669C3.00052 15.6947 3.80219 12.0872 5.93997 9.01415C8.21137 5.80748 11.5517 3.93692 14.0903 3.53609Z" fill="url(#paint64_linear_495_1442)"/>
<path opacity="0.6853" d="M14.2251 3.53622C16.7637 2.73455 20.5048 3.26899 23.4442 5.40677C26.5173 7.67816 28.3879 11.1521 28.5215 13.8243C28.9223 16.3629 28.2542 19.9704 25.9829 23.0435C23.7115 26.1165 20.3712 28.1207 17.6989 28.6552C15.1603 29.4568 11.2856 28.7888 8.21254 26.651C5.13948 24.3796 3.40254 21.0393 3.26893 18.3671C2.86809 15.6948 3.66976 12.0873 5.94115 9.01428C8.34616 5.94122 11.5528 3.93705 14.2251 3.53622Z" fill="url(#paint65_linear_495_1442)"/>
<path opacity="0.6909" d="M14.226 3.53622C16.7646 2.73455 20.5057 3.26899 23.5788 5.40677C26.6519 7.67816 28.5224 11.1521 28.656 13.9579C29.0568 16.4965 28.2552 20.104 26.1174 23.0435C23.846 26.1165 20.6393 28.1207 17.9671 28.7888C15.4285 29.5904 11.5538 29.056 8.48071 26.7846C5.40764 24.5132 3.67069 21.1729 3.67069 18.3671C3.40347 15.6948 4.20513 12.0873 6.34292 9.01428C8.34709 5.94122 11.5538 4.07066 14.226 3.53622Z" fill="url(#paint66_linear_495_1442)"/>
<path opacity="0.6965" d="M14.2254 3.53617C16.764 2.60089 20.5051 3.13533 23.5782 5.27311C26.6513 7.5445 28.5218 11.0184 28.5218 13.8242C28.789 16.3629 28.121 19.9704 25.8496 22.9098C23.5782 25.9829 20.3715 27.9871 17.6993 28.6551C15.1607 29.4568 11.2859 28.9223 8.21287 26.7845C5.13981 24.5131 3.40286 21.0392 3.40286 18.367C3.13564 15.6948 3.93731 12.0873 6.2087 9.01423C8.48009 5.94117 11.6868 4.07061 14.2254 3.53617Z" fill="url(#paint67_linear_495_1442)"/>
<path opacity="0.7021" d="M14.3584 3.53617C16.8971 2.60089 20.6382 3.13533 23.7112 5.27311C26.7843 7.5445 28.6549 11.0184 28.6549 13.8242C28.9221 16.3629 28.1204 19.9704 25.9826 22.9098C23.7112 25.9829 20.5046 28.1207 17.8324 28.7887C15.2937 29.724 11.419 29.1896 8.34594 26.9182C5.27287 24.6468 3.53593 21.1729 3.66954 18.5006C3.40231 15.8284 4.3376 12.2209 6.47538 9.14784C8.47956 6.07478 11.6862 4.07061 14.3584 3.53617Z" fill="url(#paint68_linear_495_1442)"/>
<path opacity="0.7078" d="M14.3589 3.5361C16.8975 2.60082 20.6387 3.00165 23.7117 5.13943C26.9184 7.41083 28.5217 11.0183 28.5217 13.6906C28.789 16.2292 27.9873 19.8367 25.7159 22.7761C23.4445 25.8492 20.2378 27.987 17.5656 28.655C15.027 29.5903 11.1523 29.0559 8.0792 26.7845C5.00614 24.5131 3.4028 21.0392 3.4028 18.367C3.26919 15.6947 4.07085 12.0872 6.34225 9.01416C8.61364 6.07471 11.8203 4.07054 14.3589 3.5361Z" fill="url(#paint69_linear_495_1442)"/>
<path opacity="0.7134" d="M14.3586 3.53616C16.8972 2.46726 20.6384 3.00171 23.7114 5.13949C26.9181 7.41088 28.5214 11.0184 28.5214 13.8242C28.6551 16.3628 27.8534 19.9704 25.7156 22.9098C23.4442 25.9829 20.2375 28.1207 17.6989 28.9223C15.1603 29.8576 11.2856 29.4568 8.21251 27.1854C5.13945 24.914 3.53611 21.4401 3.66972 18.6342C3.53611 15.962 4.47139 12.3545 6.60918 9.28144C8.61335 6.20838 11.82 4.20421 14.3586 3.53616Z" fill="url(#paint70_linear_495_1442)"/>
<path opacity="0.719" d="M14.3582 3.40259C16.8969 2.3337 20.638 2.73454 23.711 5.00593C26.9177 7.27732 28.521 10.8848 28.3874 13.6907C28.521 16.2293 27.7194 19.8368 25.5816 22.7762C23.3102 25.8493 20.1035 27.9871 17.5649 28.7888C15.0263 29.8576 11.1516 29.3232 7.9449 27.0518C4.87184 24.7804 3.2685 21.3065 3.40211 18.5007C3.2685 15.8284 4.20378 12.2209 6.47518 9.14788C8.74657 6.20843 11.8196 4.20425 14.3582 3.40259Z" fill="url(#paint71_linear_495_1442)"/>
<path opacity="0.7246" d="M14.492 3.40257C17.0306 2.33367 20.9054 2.73452 23.8448 4.8723C27.0515 7.14369 28.6548 10.7512 28.5212 13.557C28.6548 16.0957 27.7195 19.7032 25.5818 22.6426C23.3104 25.7157 20.2373 27.8535 17.5651 28.7887C15.0265 29.8576 11.1517 29.4568 7.94504 27.1854C4.87198 24.914 3.26864 21.4401 3.40225 18.6343C3.40225 15.962 4.33754 12.3545 6.47532 9.28147C8.88033 6.20841 11.9534 4.20423 14.492 3.40257Z" fill="url(#paint72_linear_495_1442)"/>
<path opacity="0.7302" d="M14.4926 3.40244C17.0312 2.19993 20.9059 2.60078 23.8453 4.87217C27.052 7.14356 28.6554 10.7511 28.3881 13.5569C28.3881 16.0955 27.5865 19.703 25.4487 22.6425C23.1773 25.7156 20.1042 27.8533 17.432 28.7886C14.8934 29.8575 11.0187 29.4567 7.81198 27.1853C4.73892 24.9139 3.13558 21.3064 3.4028 18.6341C3.4028 15.9619 4.33808 12.3544 6.60948 9.28134C8.88087 6.34189 11.9539 4.33772 14.4926 3.40244Z" fill="url(#paint73_linear_495_1442)"/>
<path opacity="0.7359" d="M14.4914 3.40255C17.03 2.20005 20.9047 2.60089 23.8442 4.73867C27.0509 7.01006 28.6542 10.6176 28.387 13.4234C28.387 15.962 27.4517 19.4359 25.3139 22.509C23.0425 25.582 19.9695 27.7198 17.2972 28.6551C14.7586 29.8576 10.7503 29.4568 7.67721 27.1854C4.60414 24.914 3.00081 21.3065 3.26804 18.6343C3.26804 15.962 4.33693 12.3545 6.47471 9.28146C9.01333 6.34201 11.9528 4.33783 14.4914 3.40255Z" fill="url(#paint74_linear_495_1442)"/>
<path opacity="0.7415" d="M14.6262 3.4025C17.1648 2.2 21.0395 2.46722 24.1126 4.73862C27.3193 7.01001 28.9226 10.6175 28.5218 13.557C28.5218 16.2292 27.5865 19.5695 25.4487 22.5089C23.1773 25.582 20.1043 27.7198 17.5656 28.7887C15.027 29.9912 11.0187 29.5903 7.94562 27.319C4.87255 25.0476 3.26921 21.4401 3.67005 18.6342C3.80366 15.962 4.73894 12.3545 7.01033 9.28141C9.0145 6.47557 12.0876 4.33778 14.6262 3.4025Z" fill="url(#paint75_linear_495_1442)"/>
<path opacity="0.7471" d="M14.626 3.40255C17.1646 2.06643 21.0393 2.46727 24.1124 4.60505C27.3191 6.87645 28.7888 10.6176 28.5216 13.4234C28.5216 16.0956 27.4527 19.4359 25.3149 22.3754C23.0435 25.4484 19.9705 27.7198 17.4318 28.6551C14.8932 29.8576 10.8849 29.5904 7.81183 27.319C4.73876 25.0476 3.13542 21.4401 3.53626 18.6343C3.66987 15.962 4.73876 12.3545 6.87654 9.41506C9.14793 6.47561 12.0874 4.33783 14.626 3.40255Z" fill="url(#paint76_linear_495_1442)"/>
<path opacity="0.7527" d="M14.626 3.40249C17.1647 2.06638 21.0394 2.3336 24.1125 4.60499C27.3191 6.87639 28.7889 10.6175 28.5216 13.4233C28.388 16.0956 27.4527 19.4359 25.315 22.3753C23.0436 25.4484 19.9705 27.7198 17.4319 28.7887C14.8933 30.1248 10.8849 29.7239 7.81187 27.4525C4.73881 25.1811 3.13547 21.5736 3.66991 18.7678C3.80352 16.0956 4.87242 12.4881 7.14382 9.54862C9.14799 6.47556 12.221 4.47138 14.626 3.40249Z" fill="url(#paint77_linear_495_1442)"/>
<path opacity="0.7583" d="M14.7588 3.4025C17.2974 2.06638 21.1722 2.33361 24.2452 4.47139C27.4519 6.74279 28.9216 10.4839 28.5208 13.2898C28.3872 15.962 27.3183 19.3023 25.1805 22.2417C22.9091 25.3148 19.836 27.5862 17.2974 28.6551C14.7588 29.9912 10.7505 29.7239 7.67741 27.4525C4.60434 25.1812 3.13462 21.5736 3.53546 18.7678C3.80268 16.0956 4.87157 12.4881 7.00935 9.54863C9.28074 6.60918 12.2202 4.47139 14.7588 3.4025Z" fill="url(#paint78_linear_495_1442)"/>
<path opacity="0.764" d="M14.7583 3.40248C17.2969 2.06637 21.1717 2.19999 24.2447 4.47138C27.4514 6.74277 28.9211 10.4839 28.5203 13.4233C28.3867 16.0956 27.3178 19.4358 25.18 22.3753C22.9086 25.4484 19.9692 27.7198 17.4306 28.9223C14.8919 30.2584 10.8836 29.9911 7.81054 27.7198C4.73747 25.4484 3.26775 21.7073 3.80219 18.9014C4.06942 16.2292 5.1383 12.6217 7.4097 9.68223C9.28026 6.60916 12.2197 4.47138 14.7583 3.40248Z" fill="url(#paint79_linear_495_1442)"/>
<path opacity="0.7696" d="M14.759 3.40257C17.2976 1.93284 21.1723 2.20007 24.2454 4.33785C27.452 6.60925 28.9218 10.3504 28.3873 13.2898C28.1201 15.962 27.0512 19.3023 24.9134 22.2418C22.642 25.3148 19.7026 27.5862 17.164 28.7887C14.6253 30.2585 10.617 29.9912 7.54393 27.7198C4.47087 25.4484 3.00115 21.7073 3.53559 18.9015C3.80282 16.2293 5.00532 12.7554 7.14311 9.68231C9.4145 6.74286 12.3539 4.47146 14.759 3.40257Z" fill="url(#paint80_linear_495_1442)"/>
<path opacity="0.7752" d="M14.759 3.40258C17.2976 1.93286 21.1723 2.06647 24.2454 4.33787C27.452 6.60926 28.9218 10.3504 28.3873 13.2898C28.1201 15.9621 27.0512 19.3023 24.9134 22.2418C22.642 25.3149 19.7026 27.5863 17.164 28.9224C14.6253 30.3921 10.617 30.1249 7.54393 27.8535C4.47087 25.5821 3.00115 21.841 3.53559 19.0351C3.93643 16.3629 5.00532 12.889 7.27672 9.81593C9.4145 6.74287 12.3539 4.60509 14.759 3.40258Z" fill="url(#paint81_linear_495_1442)"/>
<path opacity="0.7808" d="M14.8936 3.40256C17.4322 1.93283 21.3069 2.06645 24.38 4.20423C27.5867 6.47562 29.0564 10.3504 28.3883 13.1562C28.1211 15.8284 26.9186 19.1687 24.7808 22.1081C22.5094 25.1812 19.57 27.4526 17.0314 28.7887C14.4927 30.2584 10.4844 30.1248 7.41134 27.8534C4.33828 25.582 2.86855 21.8409 3.53661 19.0351C3.93744 16.3629 5.13995 12.889 7.27773 9.81591C9.54912 6.74284 12.355 4.60506 14.8936 3.40256Z" fill="url(#paint82_linear_495_1442)"/>
<path opacity="0.7864" d="M14.8934 3.40242C17.2984 1.79908 21.3067 1.9327 24.3798 4.2041C27.5865 6.47549 29.0562 10.3502 28.3881 13.1561C27.9873 15.8283 26.9184 19.1686 24.7806 22.108C22.5092 25.1811 19.5698 27.5861 17.0312 28.9222C14.4926 30.5255 10.4842 30.2583 7.27755 27.9869C4.20449 25.7155 2.73476 21.9744 3.40282 19.0349C3.80365 16.2291 5.00616 12.8888 7.27755 9.81577C9.54894 6.87632 12.4884 4.60492 14.8934 3.40242Z" fill="url(#paint83_linear_495_1442)"/>
<path opacity="0.7921" d="M14.8943 3.40242C17.2993 1.79908 21.3076 1.93269 24.5143 4.07048C27.721 6.34187 29.0571 10.2166 28.389 13.1561C27.9882 15.8283 26.7857 19.1686 24.6479 21.9744C22.3765 25.0475 19.4371 27.4525 17.0321 28.7886C14.4934 30.3919 10.4851 30.2583 7.27844 27.9869C4.20538 25.7155 2.73565 21.9744 3.53732 19.0349C4.07176 16.2291 5.27427 12.8888 7.41205 9.81577C9.68344 6.87632 12.4893 4.73853 14.8943 3.40242Z" fill="url(#paint84_linear_495_1442)"/>
<path opacity="0.7977" d="M15.0271 3.40243C17.4321 1.79909 21.5741 1.79909 24.6471 4.07049C27.8538 6.34188 29.1899 10.2166 28.5219 13.1561C28.121 15.8283 26.9185 19.1686 24.7807 21.9744C22.5093 25.0475 19.7035 27.4525 17.1649 28.9222C14.6263 30.5256 10.6179 30.3919 7.41125 28.1205C4.33819 25.8491 2.86846 21.9744 3.67013 19.1686C4.20458 16.3627 5.40708 13.0225 7.67847 9.94939C9.68264 7.00994 12.6221 4.73854 15.0271 3.40243Z" fill="url(#paint85_linear_495_1442)"/>
<path opacity="0.8033" d="M15.0264 3.40254C17.4314 1.66559 21.5734 1.79921 24.6464 3.93699C27.8531 6.20838 29.1892 10.0831 28.3875 13.0226C27.8531 15.6948 26.6506 18.9015 24.5128 21.8409C22.2414 24.914 19.4356 27.319 16.897 28.7887C14.3584 30.5257 10.35 30.392 7.14334 28.1207C4.07028 25.8493 2.60055 21.9745 3.53583 19.1687C4.07027 16.3629 5.40639 13.0226 7.54417 9.9495C9.81556 7.01005 12.6214 4.73866 15.0264 3.40254Z" fill="url(#paint86_linear_495_1442)"/>
<path opacity="0.8089" d="M15.0264 3.40252C17.4314 1.66557 21.5733 1.66557 24.6464 3.93696C27.8531 6.20836 29.1892 10.0831 28.3875 13.0225C27.8531 15.6948 26.6506 18.9014 24.5128 21.8409C22.2414 24.914 19.4356 27.319 16.8969 28.9223C14.3583 30.6592 10.35 30.5256 7.14331 28.2542C4.07025 25.9828 2.73413 22.1081 3.5358 19.1687C4.20386 16.3628 5.40636 13.0225 7.67775 9.94948C9.81553 7.01003 12.6214 4.73863 15.0264 3.40252Z" fill="url(#paint87_linear_495_1442)"/>
<path opacity="0.8145" d="M15.1608 3.40262C17.5658 1.66567 21.7077 1.66567 24.7808 3.80346C27.9875 6.07485 29.3236 9.94958 28.3883 12.889C27.8539 15.5613 26.5178 18.7679 24.38 21.7074C22.1086 24.7804 19.3027 27.1854 16.7641 28.7888C14.2255 30.5257 10.2172 30.5257 7.01049 28.2543C3.93743 25.9829 2.60132 22.1082 3.40299 19.1688C4.07105 16.3629 5.40716 13.0226 7.54494 10.0832C9.94994 7.14374 12.7558 4.87234 15.1608 3.40262Z" fill="url(#paint88_linear_495_1442)"/>
<path opacity="0.8202" d="M15.1602 3.40248C17.5652 1.53192 21.7072 1.53192 24.7803 3.80331C27.9869 6.07471 29.323 10.083 28.3878 13.0225C27.7197 15.6947 26.5172 18.9014 24.3794 21.8409C22.108 24.9139 19.3022 27.3189 16.8972 28.9223C14.3586 30.7928 10.2166 30.6592 7.14356 28.3878C4.0705 26.1164 2.73437 22.2417 3.66965 19.3022C4.33771 16.4964 5.80744 13.1561 7.94522 10.2167C10.083 7.1436 12.7552 4.8722 15.1602 3.40248Z" fill="url(#paint89_linear_495_1442)"/>
<path opacity="0.8258" d="M15.1602 3.40248C17.5652 1.53192 21.7072 1.53192 24.7803 3.80331C27.9869 6.07471 29.323 10.083 28.3878 13.0225C27.7197 15.6947 26.3836 18.9014 24.3794 21.8409C22.108 24.9139 19.3022 27.3189 16.8972 29.0559C14.3586 30.9264 10.2166 30.9264 7.14356 28.655C4.0705 26.3836 2.73437 22.5089 3.66965 19.5695C4.47132 16.7636 5.80744 13.4233 7.94522 10.4839C10.083 7.27721 12.7552 4.8722 15.1602 3.40248Z" fill="url(#paint90_linear_495_1442)"/>
<path opacity="0.8314" d="M15.2948 3.26902C17.6998 1.39846 21.8418 1.26486 24.9149 3.53625C28.1215 5.80764 29.4576 9.81598 28.3887 12.7554C27.7207 15.4277 26.3846 18.6343 24.2468 21.5738C21.9754 24.6469 19.1696 27.1855 16.7646 28.7888C14.2259 30.6594 10.084 30.6594 7.01092 28.388C3.93785 26.1166 2.60174 22.1082 3.67063 19.1688C4.4723 16.3629 5.94203 13.0227 8.07981 10.0832C10.2176 7.27736 12.8898 4.87236 15.2948 3.26902Z" fill="url(#paint91_linear_495_1442)"/>
<path opacity="0.837" d="M15.2948 3.2689C17.6998 1.26473 21.8418 1.26473 24.9149 3.53613C28.1215 5.80752 29.324 9.81585 28.3887 12.7553C27.5871 15.4275 26.251 18.6342 24.2468 21.5737C21.9754 24.6467 19.3032 27.1853 16.7646 28.9223C14.3595 30.9265 10.084 30.9265 7.01092 28.6551C3.93785 26.3837 2.60174 22.3753 3.67063 19.4359C4.4723 16.63 5.94203 13.2898 8.07981 10.3503C10.2176 7.41085 12.8898 5.00584 15.2948 3.2689Z" fill="url(#paint92_linear_495_1442)"/>
<path opacity="0.8426" d="M15.2937 3.26895C17.6987 1.26478 21.8406 1.13117 25.0473 3.40256C28.254 5.67396 29.4565 9.6823 28.3876 12.7554C27.5859 15.4276 26.2498 18.6343 24.112 21.4401C21.8406 24.5132 19.1684 27.0518 16.7634 28.7887C14.3584 30.7929 10.0828 30.7929 7.00978 28.5215C3.8031 26.2501 2.60061 22.2418 3.80311 19.3023C4.73839 16.4965 6.20811 13.1562 8.34589 10.2168C10.3501 7.41091 13.0223 5.0059 15.2937 3.26895Z" fill="url(#paint93_linear_495_1442)"/>
<path opacity="0.8483" d="M15.2937 3.26895C17.6987 1.26478 21.8406 1.13117 25.0473 3.40256C28.254 5.67396 29.4565 9.6823 28.3876 12.7554C27.5859 15.4276 26.1162 18.6343 24.112 21.4401C21.8406 24.5132 19.1684 27.0518 16.7634 28.9223C14.3584 30.9265 10.0828 31.0601 7.00978 28.7887C3.8031 26.5173 2.60061 22.509 3.80311 19.5695C4.73839 16.7637 6.20811 13.4234 8.34589 10.484C10.3501 7.41091 13.0223 5.0059 15.2937 3.26895Z" fill="url(#paint94_linear_495_1442)"/>
<path opacity="0.8539" d="M15.4274 3.26905C17.8324 1.13127 21.9744 0.997661 25.181 3.26905C28.3877 5.54045 29.5902 9.68241 28.3877 12.6219C27.4524 15.2941 26.1163 18.5008 23.9785 21.3066C21.7071 24.3797 19.0349 26.9183 16.6299 28.7888C14.2249 30.793 9.94933 30.9266 6.87626 28.6552C3.66959 26.3838 2.46709 22.3755 3.80321 19.436C4.73849 16.6302 6.34182 13.4235 8.47961 10.3505C10.4838 7.54462 13.0224 5.13961 15.4274 3.26905Z" fill="url(#paint95_linear_495_1442)"/>
<path opacity="0.8595" d="M15.4282 3.26905C17.8332 1.13127 21.9752 0.997661 25.1818 3.26905C28.3885 5.54045 29.591 9.68241 28.3885 12.6219C27.4532 15.2941 25.9835 18.5008 23.9793 21.3066C21.7079 24.3797 19.0357 26.9183 16.6307 28.9224C14.2257 31.0602 9.95014 31.1938 6.74347 28.9224C3.53679 26.6511 2.4679 22.6427 3.6704 19.5697C4.73929 16.7638 6.20902 13.5571 8.3468 10.4841C10.4846 7.54462 13.1568 5.13961 15.4282 3.26905Z" fill="url(#paint96_linear_495_1442)"/>
<path opacity="0.8651" d="M15.4278 3.26882C17.8329 1.13104 22.1084 0.863817 25.1815 3.13521C28.3882 5.4066 29.5907 9.54856 28.2545 12.488C27.3193 15.1602 25.8495 18.3669 23.7117 21.1727C21.4404 24.2458 18.7681 26.7844 16.3631 28.7886C13.9581 30.9264 9.68256 31.06 6.47589 28.7886C3.26922 26.5172 2.20032 22.3752 3.40282 19.4358C4.47171 16.63 6.07505 13.4233 8.21283 10.3502C10.6178 7.678 13.1565 5.13938 15.4278 3.26882Z" fill="url(#paint97_linear_495_1442)"/>
<path opacity="0.8707" d="M15.5616 3.26889C17.9666 0.997499 22.2422 0.86389 25.3152 3.13528C28.5219 5.40668 29.7244 9.54864 28.3883 12.6217C27.3194 15.2939 25.8497 18.367 23.8455 21.3064C21.5741 24.3795 19.0355 26.9181 16.6305 29.0559C14.2255 31.1937 9.94991 31.4609 6.74324 29.1895C3.53656 26.9181 2.46768 22.7762 3.80379 19.8367C4.87268 17.0309 6.47602 13.8242 8.6138 10.7511C10.618 7.67807 13.1566 5.13945 15.5616 3.26889Z" fill="url(#paint98_linear_495_1442)"/>
<path opacity="0.8764" d="M15.5612 3.26882C17.9663 0.997423 22.2418 0.730204 25.3149 3.0016C28.5215 5.27299 29.5904 9.41494 28.2543 12.488C27.1854 15.1602 25.7157 18.2333 23.5779 21.1727C21.3065 24.2458 18.7679 26.918 16.3629 28.9222C13.9579 31.1936 9.68234 31.3272 6.47567 29.0558C3.26899 26.7844 2.2001 22.6425 3.53621 19.703C4.73871 16.8972 6.34206 13.6905 8.47984 10.6174C10.7512 7.67799 13.2899 5.27299 15.5612 3.26882Z" fill="url(#paint99_linear_495_1442)"/>
<path opacity="0.882" d="M15.5612 3.26882C17.9662 0.997423 22.2417 0.730204 25.3148 3.0016C28.5214 5.27299 29.5903 9.41494 28.2542 12.488C27.1853 15.1602 25.582 18.2333 23.5778 21.1727C21.3064 24.2458 18.7678 26.918 16.3628 29.0558C13.9578 31.3272 9.68225 31.5944 6.47557 29.323C3.2689 27.0517 2.2 22.9097 3.66973 19.8366C4.87223 17.0308 6.47557 13.8241 8.61335 10.8847C10.7511 7.81161 13.2898 5.27299 15.5612 3.26882Z" fill="url(#paint100_linear_495_1442)"/>
<path opacity="0.8876" d="M15.6946 3.26902C18.0996 0.864018 22.3751 0.596801 25.4482 2.86819C28.6549 5.13959 29.7238 9.28154 28.2541 12.3546C27.0516 15.0268 25.5818 18.0999 23.444 21.0393C21.1726 24.1124 18.634 26.7846 16.229 28.9224C13.824 31.1938 9.54845 31.461 6.34178 29.1896C3.1351 26.9182 2.06621 22.7763 3.53594 19.7032C4.73844 16.8974 6.47539 13.6907 8.61318 10.7513C10.8846 7.81181 13.4232 5.27319 15.6946 3.26902Z" fill="url(#paint101_linear_495_1442)"/>
<path opacity="0.8932" d="M15.6944 3.26902C18.0994 0.864018 22.375 0.596801 25.5817 2.86819C28.7884 5.13959 29.8572 9.41515 28.3875 12.3546C27.185 15.0268 25.5817 18.0999 23.5775 20.9057C21.3061 23.9788 18.7675 26.651 16.3625 28.7888C13.9575 31.1938 9.68193 31.461 6.47526 29.1896C3.26858 26.9182 2.19969 22.7763 3.80303 19.7032C5.13914 16.8974 6.74247 13.6907 8.88026 10.7513C10.8844 7.94542 13.423 5.27319 15.6944 3.26902Z" fill="url(#paint102_linear_495_1442)"/>
<path opacity="0.8988" d="M15.6952 3.26892C18.1002 0.863913 22.3758 0.463077 25.5825 2.73447C28.7892 5.00586 29.8581 9.28144 28.2547 12.3545C27.0522 15.0267 25.4489 18.0998 23.3111 20.9056C21.0397 23.9787 18.5011 26.6509 16.2297 28.9223C13.8247 31.3273 9.54912 31.5945 6.34244 29.3232C3.13577 27.0518 2.06688 22.7762 3.67022 19.8367C5.00633 17.0309 6.74328 13.8242 8.88106 10.8848C11.0188 7.94532 13.4238 5.4067 15.6952 3.26892Z" fill="url(#paint103_linear_495_1442)"/>
<path opacity="0.9045" d="M15.8285 3.26891C18.2335 0.730293 22.509 0.463068 25.7157 2.73446C28.9224 5.00586 29.9913 9.28143 28.388 12.3545C27.0518 15.0267 25.4485 18.0998 23.4443 20.9056C21.1729 23.9787 18.6343 26.6509 16.3629 28.9223C13.9579 31.3273 9.68236 31.7281 6.47569 29.4567C3.26902 27.1853 2.33374 22.9098 3.80346 19.8367C5.13958 17.0309 6.87652 13.8242 9.0143 10.8848C11.0185 7.94531 13.5571 5.40669 15.8285 3.26891Z" fill="url(#paint104_linear_495_1442)"/>
<path opacity="0.9101" d="M15.8283 3.26897C18.2333 0.730352 22.5089 0.329518 25.7155 2.60091C28.9222 4.87231 29.9911 9.14788 28.3878 12.2209C27.0516 14.8932 25.4483 17.9662 23.3105 20.7721C21.0391 23.8451 18.6341 26.5174 16.2291 28.9224C13.8241 31.461 9.41494 31.7282 6.34187 29.4568C3.1352 27.1854 2.19993 22.9098 3.80327 19.8368C5.27299 17.0309 7.00994 13.8243 9.14772 10.8848C11.1519 8.07899 13.5569 5.40675 15.8283 3.26897Z" fill="url(#paint105_linear_495_1442)"/>
<path opacity="0.9157" d="M15.8291 3.26897C18.2341 0.730352 22.5097 0.329518 25.7163 2.60091C28.923 4.87231 29.9919 9.14788 28.255 12.2209C26.9188 14.8932 25.1819 17.9662 23.1777 20.7721C20.9063 23.8451 18.5013 26.651 16.0963 28.9224C13.6913 31.461 9.28213 31.8618 6.20907 29.5904C3.0024 27.319 2.06711 23.0435 3.67045 19.9704C5.14018 17.1646 6.87712 13.9579 9.01491 11.0184C11.1527 8.07898 13.5577 5.54036 15.8291 3.26897Z" fill="url(#paint106_linear_495_1442)"/>
<path opacity="0.9213" d="M15.8285 3.26896C18.2335 0.596734 22.509 0.195902 25.7157 2.4673C28.9224 4.73869 29.8577 9.01426 28.2543 12.2209C26.7846 14.8932 25.1813 17.9662 23.0435 20.7721C20.7721 23.8451 18.3671 26.651 16.0957 29.056C13.6907 31.5946 9.2815 31.9954 6.20843 29.724C3.00176 27.4526 2.06649 23.1771 3.80344 20.104C5.27316 17.2982 7.14372 14.0915 9.2815 11.152C11.2857 8.21259 13.6907 5.54036 15.8285 3.26896Z" fill="url(#paint107_linear_495_1442)"/>
<path opacity="0.9269" d="M15.9629 3.26896C18.3679 0.596734 22.6434 0.195902 25.8501 2.4673C29.0568 4.73869 29.9921 9.14787 28.2551 12.2209C26.7854 14.8932 25.0484 17.9662 23.0443 20.7721C20.7729 23.8451 18.3679 26.651 16.0965 29.056C13.6915 31.7282 9.2823 32.129 6.07563 29.8576C2.86896 27.5862 1.93367 23.3107 3.67062 20.104C5.27396 17.2982 7.01091 14.0915 9.1487 11.152C11.4201 8.21259 13.6915 5.54036 15.9629 3.26896Z" fill="url(#paint108_linear_495_1442)"/>
<path opacity="0.9326" d="M15.9614 3.26905C18.3664 0.596824 22.7756 0.062381 25.8486 2.46739C29.0553 4.73878 29.9906 9.14796 28.2537 12.221C26.7839 14.8933 25.047 17.9663 23.0428 20.7721C20.7714 23.8452 18.3664 26.651 16.095 29.1897C13.69 31.8619 9.28083 32.2627 6.07415 29.9913C2.86748 27.7199 1.9322 23.3108 3.80276 20.2377C5.4061 17.4319 7.27665 14.2252 9.41444 11.2857C11.4186 8.21267 13.8236 5.54045 15.9614 3.26905Z" fill="url(#paint109_linear_495_1442)"/>
<path opacity="0.9382" d="M15.961 3.26899C18.366 0.46315 22.7752 0.0623199 25.8483 2.33371C29.055 4.60511 29.9902 9.01428 28.1197 12.0873C26.65 14.7596 24.7794 17.8326 22.7752 20.6385C20.5038 23.7115 18.0988 26.5174 15.8274 29.056C13.4224 31.7282 9.01325 32.2627 5.80658 29.9913C2.59991 27.7199 1.66462 23.3107 3.53518 20.2376C5.13852 17.2982 7.00908 14.2251 9.14687 11.2857C11.5519 8.34622 13.8233 5.67399 15.961 3.26899Z" fill="url(#paint110_linear_495_1442)"/>
<path opacity="0.9438" d="M16.095 3.26893C18.5 0.46309 22.9092 -0.0713511 26.1159 2.33365C29.3225 4.60505 30.2578 9.01422 28.3872 12.0873C26.7839 14.8931 25.047 17.699 23.0428 20.5048C20.7714 23.5779 18.5 26.3837 16.095 29.0559C13.69 31.8618 9.28082 32.2626 6.07415 29.9912C2.86748 27.7198 1.9322 23.3106 3.80276 20.2376C5.53971 17.2981 7.41026 14.3587 9.54805 11.2856C11.5522 8.34616 13.8236 5.67393 16.095 3.26893Z" fill="url(#paint111_linear_495_1442)"/>
<path opacity="0.9494" d="M16.0962 3.1354C18.5012 0.329559 22.9104 -0.204891 26.1171 2.0665C29.3237 4.3379 30.259 8.74707 28.2549 11.9537C26.6515 14.7596 24.781 17.5654 22.7768 20.3713C20.5054 23.4443 18.234 26.2502 15.9626 28.9224C13.5576 31.7282 9.14843 32.2627 5.94176 29.9913C2.73508 27.7199 1.7998 23.3107 3.80398 20.2377C5.54092 17.2982 7.41148 14.3588 9.54926 11.4193C11.687 8.47985 13.9584 5.67401 16.0962 3.1354Z" fill="url(#paint112_linear_495_1442)"/>
<path opacity="0.955" d="M16.0956 3.1354C18.5006 0.329565 22.9098 -0.338496 26.1165 2.06651C29.3232 4.3379 30.2584 8.74708 28.2543 11.9538C26.6509 14.7596 24.7804 17.5654 22.7762 20.3713C20.5048 23.4443 18.2334 26.2502 15.962 29.056C13.557 31.8618 9.14784 32.5299 5.94116 30.1249C2.73449 27.8535 1.93282 23.4443 3.80338 20.2377C5.54033 17.2982 7.54449 14.3588 9.68228 11.4193C11.6864 8.47986 13.9578 5.67402 16.0956 3.1354Z" fill="url(#paint113_linear_495_1442)"/>
<path opacity="0.9607" d="M16.2304 3.13537C18.6354 0.195919 23.0446 -0.338528 26.2513 1.93287C29.458 4.20426 30.2596 8.61344 28.2555 11.8201C26.5185 14.626 24.6479 17.4318 22.6438 20.2376C20.3724 23.3107 18.101 26.2501 15.8296 28.9224C13.4246 31.8618 9.01542 32.3963 5.80874 30.1249C2.60207 27.8535 1.8004 23.4443 3.80457 20.2376C5.67513 17.2982 7.54568 14.3587 9.68347 11.4193C11.8212 8.47982 13.959 5.8076 16.2304 3.13537Z" fill="url(#paint114_linear_495_1442)"/>
<path opacity="0.9663" d="M16.2304 3.13539C18.6354 0.19594 23.0446 -0.472119 26.2513 1.93289C29.458 4.20428 30.2596 8.74707 28.2555 11.8201C26.5185 14.626 24.6479 17.4318 22.6438 20.2377C20.3724 23.3107 18.101 26.2502 15.8296 29.056C13.4246 31.9954 9.01542 32.6635 5.80874 30.2585C2.60207 27.9871 1.8004 23.4443 3.80457 20.3713C5.67513 17.4318 7.6793 14.4924 9.81709 11.5529C11.8213 8.61346 14.0927 5.80762 16.2304 3.13539Z" fill="url(#paint115_linear_495_1442)"/>
<path opacity="0.9719" d="M16.2293 3.13533C18.6344 0.195884 23.0435 -0.472173 26.2502 1.79922C29.4569 4.07061 30.2585 8.6134 28.1207 11.8201C26.3838 14.6259 24.3796 17.4318 22.3755 20.2376C20.1041 23.3107 17.8327 26.2501 15.6949 29.0559C13.2899 31.9954 8.88071 32.6634 5.67403 30.392C2.46736 28.1207 1.6657 23.5779 3.80348 20.5048C5.67404 17.5654 7.67821 14.6259 9.81599 11.6865C11.9538 8.6134 14.0916 5.80756 16.2293 3.13533Z" fill="url(#paint116_linear_495_1442)"/>
<path opacity="0.9775" d="M16.3631 3.13542C18.7681 0.0623565 23.1773 -0.6057 26.384 1.7993C29.5906 4.0707 30.3923 8.61349 28.2545 11.8202C26.384 14.626 24.5134 17.4318 22.5093 20.2377C20.3715 23.3107 17.9665 26.2502 15.8287 29.056C13.4237 32.1291 9.0145 32.7971 5.80783 30.3921C2.60115 28.1207 1.79948 23.578 3.93727 20.3713C5.94144 17.4318 7.94561 14.4924 10.0834 11.5529C11.9539 8.7471 14.2253 5.94126 16.3631 3.13542Z" fill="url(#paint117_linear_495_1442)"/>
<path opacity="0.9831" d="M16.3635 3.13544C18.6349 0.0623829 23.1777 -0.605672 26.3844 1.66572C29.591 3.93712 30.3927 8.4799 28.2549 11.6866C26.3844 14.4924 24.3802 17.2982 22.376 20.1041C20.2382 23.1771 17.9668 26.1166 15.6955 29.056C13.2904 32.1291 8.88127 32.7972 5.6746 30.5258C2.46792 28.2544 1.66626 23.7116 3.93765 20.5049C5.94183 17.5655 7.94599 14.626 10.0838 11.6866C12.0879 8.74713 14.2257 5.94128 16.3635 3.13544Z" fill="url(#paint118_linear_495_1442)"/>
<path opacity="0.9888" d="M16.3633 3.13533C18.6347 0.062264 23.1775 -0.739402 26.3842 1.6656C29.5909 3.937 30.3925 8.47978 28.1211 11.6865C26.2506 14.4923 24.2464 17.2981 22.2422 20.104C20.1045 23.177 17.8331 26.1165 15.5617 29.0559C13.2903 32.129 8.74748 32.9307 5.54081 30.5257C2.33413 28.2543 1.53247 23.7115 3.80387 20.5048C5.80804 17.5654 7.94581 14.6259 10.0836 11.6865C12.0878 8.88062 14.2255 5.94117 16.3633 3.13533Z" fill="url(#paint119_linear_495_1442)"/>
<path opacity="0.9944" d="M16.363 3.13532C18.6344 -0.0713523 23.1772 -0.739405 26.3838 1.53199C29.5905 3.80338 30.3922 8.34617 28.1208 11.5528C26.1166 14.3587 24.1124 17.1645 22.1083 19.9704C19.9705 23.0434 17.6991 25.9829 15.4277 29.0559C13.1563 32.2626 8.61352 32.9307 5.27324 30.6593C2.06656 28.3879 1.26489 23.8451 3.53628 20.6384C5.67407 17.699 7.67824 14.7595 9.81603 11.8201C12.221 8.88061 14.3588 5.94116 16.363 3.13532Z" fill="url(#paint120_linear_495_1442)"/>
<path d="M5.40698 30.6593C2.20031 28.3879 1.39865 23.7115 3.80365 20.5048C5.94143 17.5654 8.07922 14.6259 10.217 11.6865C12.3548 8.74701 14.359 5.94117 16.4967 3.00172C18.7681 -0.204956 23.4445 -1.00663 26.6512 1.39837C29.8579 3.66977 30.6595 8.34618 28.2545 11.5528C26.2504 14.3587 24.2462 17.1645 22.242 19.8368C20.1042 22.9098 17.8328 25.9829 15.6951 28.9223C13.2901 32.2626 8.61366 33.0643 5.40698 30.6593Z" fill="url(#paint121_linear_495_1442)"/>
<defs>
<linearGradient id="paint0_linear_495_1442" x1="30.5989" y1="26.6443" x2="1.41179" y2="5.53648" gradientUnits="userSpaceOnUse">
<stop stop-color="#00FFC0"/>
<stop offset="0.9888" stop-color="#A9FF14"/>
</linearGradient>
<linearGradient id="paint1_linear_495_1442" x1="30.4594" y1="26.8389" x2="1.5919" y2="5.59309" gradientUnits="userSpaceOnUse">
<stop stop-color="#00FFC0"/>
<stop offset="0.9888" stop-color="#A9FF14"/>
</linearGradient>
<linearGradient id="paint2_linear_495_1442" x1="30.2457" y1="26.7458" x2="1.70581" y2="5.36627" gradientUnits="userSpaceOnUse">
<stop stop-color="#00FFC0"/>
<stop offset="0.9888" stop-color="#A9FF14"/>
</linearGradient>
<linearGradient id="paint3_linear_495_1442" x1="30.1039" y1="26.9393" x2="1.89231" y2="5.42331" gradientUnits="userSpaceOnUse">
<stop stop-color="#00FFC0"/>
<stop offset="0.9888" stop-color="#A9FF14"/>
</linearGradient>
<linearGradient id="paint4_linear_495_1442" x1="29.8835" y1="26.8471" x2="2.00859" y2="5.19944" gradientUnits="userSpaceOnUse">
<stop stop-color="#00FFC0"/>
<stop offset="0.9888" stop-color="#A9FF14"/>
</linearGradient>
<linearGradient id="paint5_linear_495_1442" x1="29.7391" y1="27.0383" x2="2.20175" y2="5.25654" gradientUnits="userSpaceOnUse">
<stop stop-color="#00FFC0"/>
<stop offset="0.9888" stop-color="#A9FF14"/>
</linearGradient>
<linearGradient id="paint6_linear_495_1442" x1="29.6927" y1="27.0449" x2="2.49758" y2="5.13395" gradientUnits="userSpaceOnUse">
<stop stop-color="#00FFC0"/>
<stop offset="0.9888" stop-color="#A9FF14"/>
</linearGradient>
<linearGradient id="paint7_linear_495_1442" x1="29.3626" y1="27.1364" x2="2.51801" y2="5.09408" gradientUnits="userSpaceOnUse">
<stop stop-color="#00FFC0"/>
<stop offset="0.9888" stop-color="#A9FF14"/>
</linearGradient>
<linearGradient id="paint8_linear_495_1442" x1="29.3094" y1="27.1394" x2="2.81624" y2="4.9708" gradientUnits="userSpaceOnUse">
<stop stop-color="#00FFC0"/>
<stop offset="0.9888" stop-color="#A9FF14"/>
</linearGradient>
<linearGradient id="paint9_linear_495_1442" x1="28.9764" y1="27.2328" x2="2.84311" y2="4.93593" gradientUnits="userSpaceOnUse">
<stop stop-color="#00FFC0"/>
<stop offset="0.9888" stop-color="#A9FF14"/>
</linearGradient>
<linearGradient id="paint10_linear_495_1442" x1="28.9154" y1="27.2324" x2="3.14319" y2="4.81282" gradientUnits="userSpaceOnUse">
<stop stop-color="#00FFC0"/>
<stop offset="0.9888" stop-color="#A9FF14"/>
</linearGradient>
<linearGradient id="paint11_linear_495_1442" x1="28.7649" y1="27.4136" x2="3.35812" y2="4.86944" gradientUnits="userSpaceOnUse">
<stop stop-color="#00FFC0"/>
<stop offset="0.9888" stop-color="#A9FF14"/>
</linearGradient>
<linearGradient id="paint12_linear_495_1442" x1="28.4271" y1="27.5083" x2="3.39457" y2="4.84189" gradientUnits="userSpaceOnUse">
<stop stop-color="#00FFC0"/>
<stop offset="0.9888" stop-color="#A9FF14"/>
</linearGradient>
<linearGradient id="paint13_linear_495_1442" x1="28.3572" y1="27.5007" x2="3.69948" y2="4.71764" gradientUnits="userSpaceOnUse">
<stop stop-color="#00FFC0"/>
<stop offset="0.9888" stop-color="#A9FF14"/>
</linearGradient>
<linearGradient id="paint14_linear_495_1442" x1="28.0177" y1="27.5967" x2="3.74351" y2="4.69583" gradientUnits="userSpaceOnUse">
<stop stop-color="#00FFC0"/>
<stop offset="0.9888" stop-color="#A9FF14"/>
</linearGradient>
<linearGradient id="paint15_linear_495_1442" x1="27.94" y1="27.5852" x2="4.05004" y2="4.57254" gradientUnits="userSpaceOnUse">
<stop stop-color="#00FFC0"/>
<stop offset="0.9888" stop-color="#A9FF14"/>
</linearGradient>
<linearGradient id="paint16_linear_495_1442" x1="27.7848" y1="27.7558" x2="4.28369" y2="4.63036" gradientUnits="userSpaceOnUse">
<stop stop-color="#00FFC0"/>
<stop offset="0.9888" stop-color="#A9FF14"/>
</linearGradient>
<linearGradient id="paint17_linear_495_1442" x1="27.512" y1="27.6663" x2="4.40828" y2="4.43466" gradientUnits="userSpaceOnUse">
<stop stop-color="#00FFC0"/>
<stop offset="0.9888" stop-color="#A9FF14"/>
</linearGradient>
<linearGradient id="paint18_linear_495_1442" x1="27.3538" y1="27.8325" x2="4.64792" y2="4.49358" gradientUnits="userSpaceOnUse">
<stop stop-color="#00FFC0"/>
<stop offset="0.9888" stop-color="#A9FF14"/>
</linearGradient>
<linearGradient id="paint19_linear_495_1442" x1="27.2609" y1="27.8089" x2="4.95748" y2="4.36966" gradientUnits="userSpaceOnUse">
<stop stop-color="#00FFC0"/>
<stop offset="0.9888" stop-color="#A9FF14"/>
</linearGradient>
<linearGradient id="paint20_linear_495_1442" x1="26.9151" y1="27.905" x2="5.02205" y2="4.36476" gradientUnits="userSpaceOnUse">
<stop stop-color="#00FFC0"/>
<stop offset="0.9888" stop-color="#A9FF14"/>
</linearGradient>
<linearGradient id="paint21_linear_495_1442" x1="26.8147" y1="27.8768" x2="5.33245" y2="4.24257" gradientUnits="userSpaceOnUse">
<stop stop-color="#00FFC0"/>
<stop offset="0.9888" stop-color="#A9FF14"/>
</linearGradient>
<linearGradient id="paint22_linear_495_1442" x1="26.4668" y1="27.9734" x2="5.40338" y2="4.2449" gradientUnits="userSpaceOnUse">
<stop stop-color="#00FFC0"/>
<stop offset="0.9888" stop-color="#A9FF14"/>
</linearGradient>
<linearGradient id="paint23_linear_495_1442" x1="26.3586" y1="27.9401" x2="5.7142" y2="4.12458" gradientUnits="userSpaceOnUse">
<stop stop-color="#00FFC0"/>
<stop offset="0.9888" stop-color="#A9FF14"/>
</linearGradient>
<linearGradient id="paint24_linear_495_1442" x1="26.1951" y1="28.0877" x2="5.97359" y2="4.18509" gradientUnits="userSpaceOnUse">
<stop stop-color="#00FFC0"/>
<stop offset="0.9888" stop-color="#A9FF14"/>
</linearGradient>
<linearGradient id="paint25_linear_495_1442" x1="25.8474" y1="28.1827" x2="6.05618" y2="4.19659" gradientUnits="userSpaceOnUse">
<stop stop-color="#00FFC0"/>
<stop offset="0.9888" stop-color="#A9FF14"/>
</linearGradient>
<linearGradient id="paint26_linear_495_1442" x1="25.7286" y1="28.1402" x2="6.36752" y2="4.07829" gradientUnits="userSpaceOnUse">
<stop stop-color="#00FFC0"/>
<stop offset="0.9888" stop-color="#A9FF14"/>
</linearGradient>
<linearGradient id="paint27_linear_495_1442" x1="25.3808" y1="28.2351" x2="6.45694" y2="4.09733" gradientUnits="userSpaceOnUse">
<stop stop-color="#00FFC0"/>
<stop offset="0.9888" stop-color="#A9FF14"/>
</linearGradient>
<linearGradient id="paint28_linear_495_1442" x1="25.2571" y1="28.1875" x2="6.76976" y2="3.98172" gradientUnits="userSpaceOnUse">
<stop stop-color="#00FFC0"/>
<stop offset="0.9888" stop-color="#A9FF14"/>
</linearGradient>
<linearGradient id="paint29_linear_495_1442" x1="25.0919" y1="28.3178" x2="7.04412" y2="4.04407" gradientUnits="userSpaceOnUse">
<stop stop-color="#00FFC0"/>
<stop offset="0.9888" stop-color="#A9FF14"/>
</linearGradient>
<linearGradient id="paint30_linear_495_1442" x1="24.7784" y1="28.2294" x2="7.17667" y2="3.89571" gradientUnits="userSpaceOnUse">
<stop stop-color="#00FFC0"/>
<stop offset="0.9888" stop-color="#A9FF14"/>
</linearGradient>
<linearGradient id="paint31_linear_495_1442" x1="24.6123" y1="28.353" x2="7.4553" y2="3.95936" gradientUnits="userSpaceOnUse">
<stop stop-color="#00FFC0"/>
<stop offset="0.9888" stop-color="#A9FF14"/>
</linearGradient>
<linearGradient id="paint32_linear_495_1442" x1="24.2953" y1="28.2663" x2="7.58921" y2="3.82086" gradientUnits="userSpaceOnUse">
<stop stop-color="#00FFC0"/>
<stop offset="0.9888" stop-color="#A9FF14"/>
</linearGradient>
<linearGradient id="paint33_linear_495_1442" x1="24.1286" y1="28.383" x2="7.87149" y2="3.88565" gradientUnits="userSpaceOnUse">
<stop stop-color="#00FFC0"/>
<stop offset="0.9888" stop-color="#A9FF14"/>
</linearGradient>
<linearGradient id="paint34_linear_495_1442" x1="23.9845" y1="28.3179" x2="8.17809" y2="3.7763" gradientUnits="userSpaceOnUse">
<stop stop-color="#00FFC0"/>
<stop offset="0.9888" stop-color="#A9FF14"/>
</linearGradient>
<linearGradient id="paint35_linear_495_1442" x1="23.643" y1="28.4079" x2="8.29257" y2="3.82228" gradientUnits="userSpaceOnUse">
<stop stop-color="#00FFC0"/>
<stop offset="0.9888" stop-color="#A9FF14"/>
</linearGradient>
<linearGradient id="paint36_linear_495_1442" x1="23.493" y1="28.339" x2="8.59593" y2="3.71676" gradientUnits="userSpaceOnUse">
<stop stop-color="#00FFC0"/>
<stop offset="0.9888" stop-color="#A9FF14"/>
</linearGradient>
<linearGradient id="paint37_linear_495_1442" x1="23.1546" y1="28.4283" x2="8.71556" y2="3.76933" gradientUnits="userSpaceOnUse">
<stop stop-color="#00FFC0"/>
<stop offset="0.9888" stop-color="#A9FF14"/>
</linearGradient>
<linearGradient id="paint38_linear_495_1442" x1="22.9985" y1="28.3562" x2="9.01431" y2="3.66767" gradientUnits="userSpaceOnUse">
<stop stop-color="#00FFC0"/>
<stop offset="0.9888" stop-color="#A9FF14"/>
</linearGradient>
<linearGradient id="paint39_linear_495_1442" x1="22.8336" y1="28.4496" x2="9.30471" y2="3.73101" gradientUnits="userSpaceOnUse">
<stop stop-color="#00FFC0"/>
<stop offset="0.9888" stop-color="#A9FF14"/>
</linearGradient>
<linearGradient id="paint40_linear_495_1442" x1="22.5046" y1="28.5358" x2="9.43472" y2="3.79039" gradientUnits="userSpaceOnUse">
<stop stop-color="#00FFC0"/>
<stop offset="0.9888" stop-color="#A9FF14"/>
</linearGradient>
<linearGradient id="paint41_linear_495_1442" x1="22.342" y1="28.4573" x2="9.72711" y2="3.69136" gradientUnits="userSpaceOnUse">
<stop stop-color="#00FFC0"/>
<stop offset="0.9888" stop-color="#A9FF14"/>
</linearGradient>
<linearGradient id="paint42_linear_495_1442" x1="22.0182" y1="28.5435" x2="9.86158" y2="3.75616" gradientUnits="userSpaceOnUse">
<stop stop-color="#00FFC0"/>
<stop offset="0.9888" stop-color="#A9FF14"/>
</linearGradient>
<linearGradient id="paint43_linear_495_1442" x1="21.852" y1="28.4636" x2="10.1491" y2="3.6606" gradientUnits="userSpaceOnUse">
<stop stop-color="#00FFC0"/>
<stop offset="0.9888" stop-color="#A9FF14"/>
</linearGradient>
<linearGradient id="paint44_linear_495_1442" x1="21.6922" y1="28.5393" x2="10.4419" y2="3.71891" gradientUnits="userSpaceOnUse">
<stop stop-color="#00FFC0"/>
<stop offset="0.9888" stop-color="#A9FF14"/>
</linearGradient>
<linearGradient id="paint45_linear_495_1442" x1="21.3661" y1="28.4697" x2="10.571" y2="3.63732" gradientUnits="userSpaceOnUse">
<stop stop-color="#00FFC0"/>
<stop offset="0.9888" stop-color="#A9FF14"/>
</linearGradient>
<linearGradient id="paint46_linear_495_1442" x1="21.2095" y1="28.5403" x2="10.8642" y2="3.6933" gradientUnits="userSpaceOnUse">
<stop stop-color="#00FFC0"/>
<stop offset="0.9888" stop-color="#A9FF14"/>
</linearGradient>
<linearGradient id="paint47_linear_495_1442" x1="20.8849" y1="28.4769" x2="10.9916" y2="3.6199" gradientUnits="userSpaceOnUse">
<stop stop-color="#00FFC0"/>
<stop offset="0.9888" stop-color="#A9FF14"/>
</linearGradient>
<linearGradient id="paint48_linear_495_1442" x1="20.7297" y1="28.5432" x2="11.2827" y2="3.67278" gradientUnits="userSpaceOnUse">
<stop stop-color="#00FFC0"/>
<stop offset="0.9888" stop-color="#A9FF14"/>
</linearGradient>
<linearGradient id="paint49_linear_495_1442" x1="20.5527" y1="28.4622" x2="11.5499" y2="3.58228" gradientUnits="userSpaceOnUse">
<stop stop-color="#00FFC0"/>
<stop offset="0.9888" stop-color="#A9FF14"/>
</linearGradient>
<linearGradient id="paint50_linear_495_1442" x1="20.2566" y1="28.5497" x2="11.6995" y2="3.65596" gradientUnits="userSpaceOnUse">
<stop stop-color="#00FFC0"/>
<stop offset="0.9888" stop-color="#A9FF14"/>
</linearGradient>
<linearGradient id="paint51_linear_495_1442" x1="20.0772" y1="28.472" x2="11.9598" y2="3.56717" gradientUnits="userSpaceOnUse">
<stop stop-color="#00FFC0"/>
<stop offset="0.9888" stop-color="#A9FF14"/>
</linearGradient>
<linearGradient id="paint52_linear_495_1442" x1="19.7911" y1="28.5618" x2="12.1147" y2="3.64089" gradientUnits="userSpaceOnUse">
<stop stop-color="#00FFC0"/>
<stop offset="0.9888" stop-color="#A9FF14"/>
</linearGradient>
<linearGradient id="paint53_linear_495_1442" x1="19.6436" y1="28.6183" x2="12.4021" y2="3.67961" gradientUnits="userSpaceOnUse">
<stop stop-color="#00FFC0"/>
<stop offset="0.9888" stop-color="#A9FF14"/>
</linearGradient>
<linearGradient id="paint54_linear_495_1442" x1="19.4591" y1="28.5445" x2="12.6501" y2="3.58932" gradientUnits="userSpaceOnUse">
<stop stop-color="#00FFC0"/>
<stop offset="0.9888" stop-color="#A9FF14"/>
</linearGradient>
<linearGradient id="paint55_linear_495_1442" x1="19.1861" y1="28.6361" x2="12.8109" y2="3.65806" gradientUnits="userSpaceOnUse">
<stop stop-color="#00FFC0"/>
<stop offset="0.9888" stop-color="#A9FF14"/>
</linearGradient>
<linearGradient id="paint56_linear_495_1442" x1="18.9998" y1="28.5685" x2="13.0523" y2="3.56812" gradientUnits="userSpaceOnUse">
<stop stop-color="#00FFC0"/>
<stop offset="0.9888" stop-color="#A9FF14"/>
</linearGradient>
<linearGradient id="paint57_linear_495_1442" x1="18.7367" y1="28.6638" x2="13.2183" y2="3.6337" gradientUnits="userSpaceOnUse">
<stop stop-color="#00FFC0"/>
<stop offset="0.9888" stop-color="#A9FF14"/>
</linearGradient>
<linearGradient id="paint58_linear_495_1442" x1="18.5482" y1="28.6036" x2="13.4531" y2="3.54343" gradientUnits="userSpaceOnUse">
<stop stop-color="#00FFC0"/>
<stop offset="0.9888" stop-color="#A9FF14"/>
</linearGradient>
<linearGradient id="paint59_linear_495_1442" x1="18.4016" y1="28.657" x2="13.7277" y2="3.55871" gradientUnits="userSpaceOnUse">
<stop stop-color="#00FFC0"/>
<stop offset="0.9888" stop-color="#A9FF14"/>
</linearGradient>
<linearGradient id="paint60_linear_495_1442" x1="18.1027" y1="28.6511" x2="13.8518" y2="3.51341" gradientUnits="userSpaceOnUse">
<stop stop-color="#00FFC0"/>
<stop offset="0.9888" stop-color="#A9FF14"/>
</linearGradient>
<linearGradient id="paint61_linear_495_1442" x1="17.9589" y1="28.7207" x2="14.1199" y2="3.49654" gradientUnits="userSpaceOnUse">
<stop stop-color="#00FFC0"/>
<stop offset="0.9888" stop-color="#A9FF14"/>
</linearGradient>
<linearGradient id="paint62_linear_495_1442" x1="17.7063" y1="28.7258" x2="14.2798" y2="3.40297" gradientUnits="userSpaceOnUse">
<stop stop-color="#00FFC0"/>
<stop offset="0.9888" stop-color="#A9FF14"/>
</linearGradient>
<linearGradient id="paint63_linear_495_1442" x1="17.5241" y1="28.8205" x2="14.5101" y2="3.39076" gradientUnits="userSpaceOnUse">
<stop stop-color="#00FFC0"/>
<stop offset="0.9888" stop-color="#A9FF14"/>
</linearGradient>
<linearGradient id="paint64_linear_495_1442" x1="17.2882" y1="28.8249" x2="14.6874" y2="3.28784" gradientUnits="userSpaceOnUse">
<stop stop-color="#00FFC0"/>
<stop offset="0.9888" stop-color="#A9FF14"/>
</linearGradient>
<linearGradient id="paint65_linear_495_1442" x1="17.1066" y1="28.9206" x2="14.9201" y2="3.26876" gradientUnits="userSpaceOnUse">
<stop stop-color="#00FFC0"/>
<stop offset="0.9888" stop-color="#A9FF14"/>
</linearGradient>
<linearGradient id="paint66_linear_495_1442" x1="16.9247" y1="29.0147" x2="15.1538" y2="3.24438" gradientUnits="userSpaceOnUse">
<stop stop-color="#00FFC0"/>
<stop offset="0.9888" stop-color="#A9FF14"/>
</linearGradient>
<linearGradient id="paint67_linear_495_1442" x1="16.6872" y1="29.03" x2="15.3334" y2="3.14186" gradientUnits="userSpaceOnUse">
<stop stop-color="#00FFC0"/>
<stop offset="0.9888" stop-color="#A9FF14"/>
</linearGradient>
<linearGradient id="paint68_linear_495_1442" x1="16.5029" y1="29.1239" x2="15.5677" y2="3.11156" gradientUnits="userSpaceOnUse">
<stop stop-color="#00FFC0"/>
<stop offset="0.9888" stop-color="#A9FF14"/>
</linearGradient>
<linearGradient id="paint69_linear_495_1442" x1="16.2645" y1="29.1467" x2="15.7497" y2="3.01147" gradientUnits="userSpaceOnUse">
<stop stop-color="#00FFC0"/>
<stop offset="0.9888" stop-color="#A9FF14"/>
</linearGradient>
<linearGradient id="paint70_linear_495_1442" x1="16.0787" y1="29.2398" x2="15.9862" y2="2.97607" gradientUnits="userSpaceOnUse">
<stop stop-color="#00FFC0"/>
<stop offset="0.9888" stop-color="#A9FF14"/>
</linearGradient>
<linearGradient id="paint71_linear_495_1442" x1="15.8375" y1="29.2694" x2="16.1691" y2="2.87935" gradientUnits="userSpaceOnUse">
<stop stop-color="#00FFC0"/>
<stop offset="0.9888" stop-color="#A9FF14"/>
</linearGradient>
<linearGradient id="paint72_linear_495_1442" x1="15.6502" y1="29.3607" x2="16.408" y2="2.83956" gradientUnits="userSpaceOnUse">
<stop stop-color="#00FFC0"/>
<stop offset="0.9888" stop-color="#A9FF14"/>
</linearGradient>
<linearGradient id="paint73_linear_495_1442" x1="15.408" y1="29.3959" x2="16.5939" y2="2.74677" gradientUnits="userSpaceOnUse">
<stop stop-color="#00FFC0"/>
<stop offset="0.9888" stop-color="#A9FF14"/>
</linearGradient>
<linearGradient id="paint74_linear_495_1442" x1="15.2174" y1="29.4846" x2="16.8333" y2="2.70374" gradientUnits="userSpaceOnUse">
<stop stop-color="#00FFC0"/>
<stop offset="0.9888" stop-color="#A9FF14"/>
</linearGradient>
<linearGradient id="paint75_linear_495_1442" x1="14.9743" y1="29.5246" x2="17.0222" y2="2.61585" gradientUnits="userSpaceOnUse">
<stop stop-color="#00FFC0"/>
<stop offset="0.9888" stop-color="#A9FF14"/>
</linearGradient>
<linearGradient id="paint76_linear_495_1442" x1="14.7822" y1="29.6098" x2="17.264" y2="2.57007" gradientUnits="userSpaceOnUse">
<stop stop-color="#00FFC0"/>
<stop offset="0.9888" stop-color="#A9FF14"/>
</linearGradient>
<linearGradient id="paint77_linear_495_1442" x1="14.5369" y1="29.6536" x2="17.4543" y2="2.48768" gradientUnits="userSpaceOnUse">
<stop stop-color="#00FFC0"/>
<stop offset="0.9888" stop-color="#A9FF14"/>
</linearGradient>
<linearGradient id="paint78_linear_495_1442" x1="14.3419" y1="29.7345" x2="17.6966" y2="2.44016" gradientUnits="userSpaceOnUse">
<stop stop-color="#00FFC0"/>
<stop offset="0.9888" stop-color="#A9FF14"/>
</linearGradient>
<linearGradient id="paint79_linear_495_1442" x1="14.1567" y1="29.7927" x2="17.9488" y2="2.37176" gradientUnits="userSpaceOnUse">
<stop stop-color="#00FFC0"/>
<stop offset="0.9888" stop-color="#A9FF14"/>
</linearGradient>
<linearGradient id="paint80_linear_495_1442" x1="13.8932" y1="29.8689" x2="18.1278" y2="2.32734" gradientUnits="userSpaceOnUse">
<stop stop-color="#00FFC0"/>
<stop offset="0.9888" stop-color="#A9FF14"/>
</linearGradient>
<linearGradient id="paint81_linear_495_1442" x1="13.7053" y1="29.9209" x2="18.3798" y2="2.25728" gradientUnits="userSpaceOnUse">
<stop stop-color="#00FFC0"/>
<stop offset="0.9888" stop-color="#A9FF14"/>
</linearGradient>
<linearGradient id="paint82_linear_495_1442" x1="13.4472" y1="29.9971" x2="18.5663" y2="2.21812" gradientUnits="userSpaceOnUse">
<stop stop-color="#00FFC0"/>
<stop offset="0.9888" stop-color="#A9FF14"/>
</linearGradient>
<linearGradient id="paint83_linear_495_1442" x1="13.2549" y1="30.0437" x2="18.8158" y2="2.14882" gradientUnits="userSpaceOnUse">
<stop stop-color="#00FFC0"/>
<stop offset="0.9888" stop-color="#A9FF14"/>
</linearGradient>
<linearGradient id="paint84_linear_495_1442" x1="13.0149" y1="30.0743" x2="19.0182" y2="2.07051" gradientUnits="userSpaceOnUse">
<stop stop-color="#00FFC0"/>
<stop offset="0.9888" stop-color="#A9FF14"/>
</linearGradient>
<linearGradient id="paint85_linear_495_1442" x1="12.8054" y1="30.1602" x2="19.2552" y2="2.04742" gradientUnits="userSpaceOnUse">
<stop stop-color="#00FFC0"/>
<stop offset="0.9888" stop-color="#A9FF14"/>
</linearGradient>
<linearGradient id="paint86_linear_495_1442" x1="12.5633" y1="30.1918" x2="19.4559" y2="1.97769" gradientUnits="userSpaceOnUse">
<stop stop-color="#00FFC0"/>
<stop offset="0.9888" stop-color="#A9FF14"/>
</linearGradient>
<linearGradient id="paint87_linear_495_1442" x1="12.3576" y1="30.269" x2="19.6969" y2="1.95372" gradientUnits="userSpaceOnUse">
<stop stop-color="#00FFC0"/>
<stop offset="0.9888" stop-color="#A9FF14"/>
</linearGradient>
<linearGradient id="paint88_linear_495_1442" x1="12.1169" y1="30.3009" x2="19.8987" y2="1.89252" gradientUnits="userSpaceOnUse">
<stop stop-color="#00FFC0"/>
<stop offset="0.9888" stop-color="#A9FF14"/>
</linearGradient>
<linearGradient id="paint89_linear_495_1442" x1="11.911" y1="30.3322" x2="20.135" y2="1.83124" gradientUnits="userSpaceOnUse">
<stop stop-color="#00FFC0"/>
<stop offset="0.9888" stop-color="#A9FF14"/>
</linearGradient>
<linearGradient id="paint90_linear_495_1442" x1="11.6731" y1="30.4007" x2="20.3421" y2="1.81531" gradientUnits="userSpaceOnUse">
<stop stop-color="#00FFC0"/>
<stop offset="0.9888" stop-color="#A9FF14"/>
</linearGradient>
<linearGradient id="paint91_linear_495_1442" x1="11.4664" y1="30.4264" x2="20.5758" y2="1.7573" gradientUnits="userSpaceOnUse">
<stop stop-color="#00FFC0"/>
<stop offset="0.9888" stop-color="#A9FF14"/>
</linearGradient>
<linearGradient id="paint92_linear_495_1442" x1="11.2354" y1="30.4907" x2="20.7877" y2="1.74634" gradientUnits="userSpaceOnUse">
<stop stop-color="#00FFC0"/>
<stop offset="0.9888" stop-color="#A9FF14"/>
</linearGradient>
<linearGradient id="paint93_linear_495_1442" x1="11.0246" y1="30.5105" x2="21.0146" y2="1.69166" gradientUnits="userSpaceOnUse">
<stop stop-color="#00FFC0"/>
<stop offset="0.9888" stop-color="#A9FF14"/>
</linearGradient>
<linearGradient id="paint94_linear_495_1442" x1="10.8121" y1="30.527" x2="21.2383" y2="1.63847" gradientUnits="userSpaceOnUse">
<stop stop-color="#00FFC0"/>
<stop offset="0.9888" stop-color="#A9FF14"/>
</linearGradient>
<linearGradient id="paint95_linear_495_1442" x1="10.5898" y1="30.5845" x2="21.4541" y2="1.63471" gradientUnits="userSpaceOnUse">
<stop stop-color="#00FFC0"/>
<stop offset="0.9888" stop-color="#A9FF14"/>
</linearGradient>
<linearGradient id="paint96_linear_495_1442" x1="10.3769" y1="30.5955" x2="21.6734" y2="1.58527" gradientUnits="userSpaceOnUse">
<stop stop-color="#00FFC0"/>
<stop offset="0.9888" stop-color="#A9FF14"/>
</linearGradient>
<linearGradient id="paint97_linear_495_1442" x1="10.1618" y1="30.6477" x2="21.8921" y2="1.58559" gradientUnits="userSpaceOnUse">
<stop stop-color="#00FFC0"/>
<stop offset="0.9888" stop-color="#A9FF14"/>
</linearGradient>
<linearGradient id="paint98_linear_495_1442" x1="9.94719" y1="30.6534" x2="22.1052" y2="1.54009" gradientUnits="userSpaceOnUse">
<stop stop-color="#00FFC0"/>
<stop offset="0.9888" stop-color="#A9FF14"/>
</linearGradient>
<linearGradient id="paint99_linear_495_1442" x1="9.71287" y1="30.6836" x2="22.296" y2="1.52759" gradientUnits="userSpaceOnUse">
<stop stop-color="#00FFC0"/>
<stop offset="0.9888" stop-color="#A9FF14"/>
</linearGradient>
<linearGradient id="paint100_linear_495_1442" x1="9.52473" y1="30.7011" x2="22.534" y2="1.50301" gradientUnits="userSpaceOnUse">
<stop stop-color="#00FFC0"/>
<stop offset="0.9888" stop-color="#A9FF14"/>
</linearGradient>
<linearGradient id="paint101_linear_495_1442" x1="9.29448" y1="30.7307" x2="22.7233" y2="1.49874" gradientUnits="userSpaceOnUse">
<stop stop-color="#00FFC0"/>
<stop offset="0.9888" stop-color="#A9FF14"/>
</linearGradient>
<linearGradient id="paint102_linear_495_1442" x1="9.11005" y1="30.739" x2="22.9592" y2="1.47391" gradientUnits="userSpaceOnUse">
<stop stop-color="#00FFC0"/>
<stop offset="0.9888" stop-color="#A9FF14"/>
</linearGradient>
<linearGradient id="paint103_linear_495_1442" x1="8.88519" y1="30.7672" x2="23.1477" y2="1.47675" gradientUnits="userSpaceOnUse">
<stop stop-color="#00FFC0"/>
<stop offset="0.9888" stop-color="#A9FF14"/>
</linearGradient>
<linearGradient id="paint104_linear_495_1442" x1="8.66796" y1="30.7603" x2="23.3406" y2="1.44503" gradientUnits="userSpaceOnUse">
<stop stop-color="#00FFC0"/>
<stop offset="0.9888" stop-color="#A9FF14"/>
</linearGradient>
<linearGradient id="paint105_linear_495_1442" x1="8.48318" y1="30.7941" x2="23.5664" y2="1.46182" gradientUnits="userSpaceOnUse">
<stop stop-color="#00FFC0"/>
<stop offset="0.9888" stop-color="#A9FF14"/>
</linearGradient>
<linearGradient id="paint106_linear_495_1442" x1="8.26777" y1="30.783" x2="23.7543" y2="1.43387" gradientUnits="userSpaceOnUse">
<stop stop-color="#00FFC0"/>
<stop offset="0.9888" stop-color="#A9FF14"/>
</linearGradient>
<linearGradient id="paint107_linear_495_1442" x1="8.09063" y1="30.7704" x2="23.9808" y2="1.40819" gradientUnits="userSpaceOnUse">
<stop stop-color="#00FFC0"/>
<stop offset="0.9888" stop-color="#A9FF14"/>
</linearGradient>
<linearGradient id="paint108_linear_495_1442" x1="7.87609" y1="30.7964" x2="24.1625" y2="1.42859" gradientUnits="userSpaceOnUse">
<stop stop-color="#00FFC0"/>
<stop offset="0.9888" stop-color="#A9FF14"/>
</linearGradient>
<linearGradient id="paint109_linear_495_1442" x1="7.65798" y1="30.7803" x2="24.337" y2="1.40667" gradientUnits="userSpaceOnUse">
<stop stop-color="#00FFC0"/>
<stop offset="0.9888" stop-color="#A9FF14"/>
</linearGradient>
<linearGradient id="paint110_linear_495_1442" x1="7.49135" y1="30.8012" x2="24.5628" y2="1.4291" gradientUnits="userSpaceOnUse">
<stop stop-color="#00FFC0"/>
<stop offset="0.9888" stop-color="#A9FF14"/>
</linearGradient>
<linearGradient id="paint111_linear_495_1442" x1="7.27639" y1="30.7816" x2="24.7329" y2="1.41043" gradientUnits="userSpaceOnUse">
<stop stop-color="#00FFC0"/>
<stop offset="0.9888" stop-color="#A9FF14"/>
</linearGradient>
<linearGradient id="paint112_linear_495_1442" x1="7.07179" y1="30.8084" x2="24.9095" y2="1.44511" gradientUnits="userSpaceOnUse">
<stop stop-color="#00FFC0"/>
<stop offset="0.9888" stop-color="#A9FF14"/>
</linearGradient>
<linearGradient id="paint113_linear_495_1442" x1="6.90457" y1="30.7752" x2="25.1233" y2="1.41926" gradientUnits="userSpaceOnUse">
<stop stop-color="#00FFC0"/>
<stop offset="0.9888" stop-color="#A9FF14"/>
</linearGradient>
<linearGradient id="paint114_linear_495_1442" x1="6.70573" y1="30.8012" x2="25.2979" y2="1.45928" gradientUnits="userSpaceOnUse">
<stop stop-color="#00FFC0"/>
<stop offset="0.9888" stop-color="#A9FF14"/>
</linearGradient>
<linearGradient id="paint115_linear_495_1442" x1="6.54274" y1="30.7613" x2="25.5081" y2="1.43248" gradientUnits="userSpaceOnUse">
<stop stop-color="#00FFC0"/>
<stop offset="0.9888" stop-color="#A9FF14"/>
</linearGradient>
<linearGradient id="paint116_linear_495_1442" x1="6.34718" y1="30.7868" x2="25.6782" y2="1.47733" gradientUnits="userSpaceOnUse">
<stop stop-color="#00FFC0"/>
<stop offset="0.9888" stop-color="#A9FF14"/>
</linearGradient>
<linearGradient id="paint117_linear_495_1442" x1="6.13548" y1="30.7614" x2="25.8283" y2="1.47025" gradientUnits="userSpaceOnUse">
<stop stop-color="#00FFC0"/>
<stop offset="0.9888" stop-color="#A9FF14"/>
</linearGradient>
<linearGradient id="paint118_linear_495_1442" x1="5.99967" y1="30.7657" x2="26.0538" y2="1.49911" gradientUnits="userSpaceOnUse">
<stop stop-color="#00FFC0"/>
<stop offset="0.9888" stop-color="#A9FF14"/>
</linearGradient>
<linearGradient id="paint119_linear_495_1442" x1="5.78927" y1="30.738" x2="26.1973" y2="1.49455" gradientUnits="userSpaceOnUse">
<stop stop-color="#00FFC0"/>
<stop offset="0.9888" stop-color="#A9FF14"/>
</linearGradient>
<linearGradient id="paint120_linear_495_1442" x1="5.63315" y1="30.6832" x2="26.3948" y2="1.46511" gradientUnits="userSpaceOnUse">
<stop stop-color="#00FFC0"/>
<stop offset="0.9888" stop-color="#A9FF14"/>
</linearGradient>
<linearGradient id="paint121_linear_495_1442" x1="5.45172" y1="30.7088" x2="26.5595" y2="1.52166" gradientUnits="userSpaceOnUse">
<stop stop-color="#00FFC0"/>
<stop offset="0.9888" stop-color="#A9FF14"/>
</linearGradient>
</defs>
</svg>
