<svg width="0" height="0" class="hidden">
  <symbol fill="none" xmlns="http://www.w3.org/2000/svg" viewBox="0 0 8 14" id="fb-icon">
    <path d="M2.40634 7.90238C2.35377 7.90238 1.19733 7.90238 0.671671 7.90238C0.391321 7.90238 0.303711 7.79725 0.303711 7.53442C0.303711 6.83354 0.303711 6.11514 0.303711 5.41427C0.303711 5.13392 0.408842 5.04631 0.671671 5.04631H2.40634C2.40634 4.99374 2.40634 3.97747 2.40634 3.50438C2.40634 2.8035 2.52899 2.13767 2.87943 1.52441C3.24739 0.893617 3.77305 0.473091 4.43888 0.227785C4.87693 0.0700875 5.31497 0 5.78807 0H7.50521C7.75052 0 7.85565 0.105131 7.85565 0.350438V2.34793C7.85565 2.59324 7.75052 2.69837 7.50521 2.69837C7.03212 2.69837 6.55903 2.69837 6.08594 2.71589C5.61285 2.71589 5.36754 2.94368 5.36754 3.43429C5.35002 3.95995 5.36754 4.46808 5.36754 5.01126H7.40008C7.68043 5.01126 7.78556 5.11639 7.78556 5.39675V7.5169C7.78556 7.79725 7.69795 7.88486 7.40008 7.88486C6.76929 7.88486 5.42011 7.88486 5.36754 7.88486V13.597C5.36754 13.8949 5.27993 14 4.96454 14C4.22862 14 3.51022 14 2.7743 14C2.51147 14 2.40634 13.8949 2.40634 13.632C2.40634 11.7922 2.40634 7.95494 2.40634 7.90238Z" fill="#D7D7D7"></path>
  </symbol>
  <symbol fill="none" xmlns="http://www.w3.org/2000/svg" viewBox="0 0 13 14" id="inst-icon">
    <path d="M12.8141 4.68107C12.7842 4.0038 12.6747 3.53819 12.5178 3.13473C12.3559 2.70647 12.1069 2.32304 11.7807 2.0043C11.462 1.6806 11.076 1.42907 10.6527 1.26975C10.2469 1.11286 9.78374 1.00333 9.10647 0.973473C8.42415 0.941083 8.20754 0.933594 6.47698 0.933594C4.74642 0.933594 4.52981 0.941083 3.85001 0.970944C3.17275 1.0008 2.70713 1.11042 2.30377 1.26722C1.87541 1.42907 1.49199 1.67807 1.17325 2.0043C0.849544 2.32304 0.59811 2.70899 0.438691 3.1323C0.281801 3.53819 0.172279 4.00127 0.142418 4.67854C0.110029 5.36086 0.102539 5.57747 0.102539 7.30803C0.102539 9.03859 0.110029 9.25521 0.139889 9.935C0.16975 10.6123 0.279369 11.0779 0.436259 11.4813C0.59811 11.9096 0.849544 12.293 1.17325 12.6118C1.49199 12.9355 1.87794 13.187 2.30124 13.3463C2.70713 13.5032 3.17022 13.6127 3.84758 13.6426C4.52728 13.6726 4.74399 13.6799 6.47455 13.6799C8.20511 13.6799 8.42172 13.6726 9.10151 13.6426C9.77878 13.6127 10.2444 13.5032 10.6478 13.3463C11.5044 13.0151 12.1816 12.3379 12.5128 11.4813C12.6696 11.0754 12.7792 10.6123 12.8091 9.935C12.839 9.25521 12.8465 9.03859 12.8465 7.30803C12.8465 5.57747 12.8439 5.36086 12.8141 4.68107ZM11.6662 9.8852C11.6388 10.5077 11.5342 10.8439 11.4471 11.068C11.2329 11.6232 10.7922 12.064 10.2369 12.2781C10.0128 12.3653 9.67422 12.4699 9.05414 12.4972C8.38184 12.5271 8.18021 12.5345 6.47951 12.5345C4.77881 12.5345 4.57465 12.5271 3.90477 12.4972C3.28227 12.4699 2.94612 12.3653 2.72202 12.2781C2.44568 12.176 2.19415 12.0142 1.98999 11.8025C1.77834 11.5958 1.61649 11.3468 1.51436 11.0705C1.42721 10.8464 1.32265 10.5077 1.29531 9.88773C1.26536 9.21542 1.25796 9.01369 1.25796 7.31299C1.25796 5.61229 1.26536 5.40813 1.29531 4.73836C1.32265 4.11585 1.42721 3.7797 1.51436 3.5556C1.61649 3.27917 1.77834 3.02774 1.99252 2.82348C2.19911 2.61183 2.44811 2.44997 2.72454 2.34794C2.94865 2.26079 3.28733 2.15623 3.9073 2.1288C4.57961 2.09894 4.78134 2.09145 6.48194 2.09145C8.18517 2.09145 8.3868 2.09894 9.05667 2.1288C9.67918 2.15623 10.0153 2.26079 10.2394 2.34794C10.5158 2.44997 10.7673 2.61183 10.9715 2.82348C11.1831 3.03017 11.345 3.27917 11.4471 3.5556C11.5342 3.7797 11.6388 4.11828 11.6662 4.73836C11.6961 5.41066 11.7036 5.61229 11.7036 7.31299C11.7036 9.01369 11.6961 9.21289 11.6662 9.8852Z" fill="#D7D7D7"></path>
    <path d="M6.4775 4.0332C4.6698 4.0332 3.20312 5.49978 3.20312 7.30757C3.20312 9.11536 4.6698 10.5819 6.4775 10.5819C8.28529 10.5819 9.75187 9.11536 9.75187 7.30757C9.75187 5.49978 8.28529 4.0332 6.4775 4.0332ZM6.4775 9.43158C5.30476 9.43158 4.35349 8.48041 4.35349 7.30757C4.35349 6.13474 5.30476 5.18357 6.4775 5.18357C7.65033 5.18357 8.6015 6.13474 8.6015 7.30757C8.6015 8.48041 7.65033 9.43158 6.4775 9.43158Z" fill="#D7D7D7"></path>
    <path d="M10.6442 3.90406C10.6442 4.3262 10.3019 4.66848 9.87965 4.66848C9.45751 4.66848 9.11523 4.3262 9.11523 3.90406C9.11523 3.48183 9.45751 3.13965 9.87965 3.13965C10.3019 3.13965 10.6442 3.48183 10.6442 3.90406Z" fill="#D7D7D7"></path>
  </symbol>
  <symbol fill="none" xmlns="http://www.w3.org/2000/svg" viewBox="0 0 10 17" id="mouse">
    <rect x="0.5" y="0.5" width="9" height="15.6667" rx="4.5" stroke="white"></rect>
    <line x1="4.94434" y1="0.5" x2="4.94434" y2="4.28261" stroke="white" stroke-linecap="round"></line>
  </symbol>
  <symbol fill="none" xmlns="http://www.w3.org/2000/svg" viewBox="0 0 19 12" id="vk-icon">
    <path d="M16.1904 5.15838C16.4463 4.82761 16.6495 4.5622 16.7995 4.36196C17.8799 2.92548 18.3482 2.00784 18.2047 1.60777L18.1484 1.51407C18.111 1.45779 18.014 1.40611 17.858 1.35933C17.7018 1.31258 17.502 1.30511 17.2585 1.33597L14.5604 1.355C14.4979 1.34878 14.4354 1.35024 14.373 1.35933C14.3105 1.36883 14.27 1.37836 14.2511 1.38745C14.2323 1.39698 14.2168 1.40462 14.2044 1.41084L14.167 1.43897C14.1357 1.45759 14.1014 1.49048 14.064 1.53746C14.0265 1.58441 13.9951 1.63883 13.9702 1.7015C13.6767 2.45716 13.3426 3.15989 12.9678 3.80945C12.7367 4.19671 12.5243 4.53266 12.3309 4.81645C12.1372 5.10089 11.9749 5.31005 11.8437 5.44407C11.7126 5.57833 11.5938 5.68629 11.4877 5.76721C11.3814 5.84871 11.3003 5.88285 11.2442 5.87044C11.1879 5.85804 11.1348 5.84563 11.0849 5.83279C10.9975 5.77674 10.9271 5.70039 10.8741 5.60338C10.821 5.50681 10.7852 5.38492 10.7664 5.23805C10.7477 5.09139 10.7366 4.9648 10.7337 4.85847C10.7304 4.75236 10.732 4.60259 10.7384 4.40874C10.7447 4.21509 10.7477 4.08418 10.7477 4.01529C10.7477 3.77821 10.7525 3.52048 10.7619 3.24246C10.7712 2.96465 10.779 2.74433 10.7852 2.58192C10.7914 2.41974 10.7945 2.24783 10.7945 2.06662C10.7945 1.88582 10.7836 1.74348 10.7616 1.64029C10.7397 1.53746 10.7068 1.43755 10.6633 1.34054C10.6195 1.24393 10.5555 1.16883 10.4711 1.11589C10.3868 1.06272 10.2823 1.02074 10.1574 0.989274C9.82614 0.914167 9.40457 0.874045 8.89259 0.867454C7.73084 0.855454 6.98447 0.930324 6.65349 1.0925C6.52234 1.16139 6.4036 1.25488 6.2975 1.37363C6.18497 1.5112 6.16946 1.58627 6.25075 1.59827C6.62557 1.65455 6.89081 1.78901 7.04697 2.00125L7.10325 2.11357C7.14689 2.19506 7.19056 2.33865 7.2344 2.54467C7.27807 2.75072 7.30619 2.97868 7.3188 3.22857C7.35003 3.68448 7.35003 4.07465 7.3188 4.39965C7.28757 4.72461 7.25799 4.97741 7.22987 5.15822C7.20171 5.33942 7.15953 5.48609 7.10345 5.59841C7.04717 5.71114 7.00976 5.77982 6.99093 5.80483C6.9721 5.82964 6.95659 5.84536 6.94418 5.85161C6.86289 5.88264 6.77869 5.89836 6.69121 5.89836C6.6037 5.89836 6.49757 5.85449 6.37264 5.76697C6.24767 5.6799 6.11798 5.5595 5.98392 5.40642C5.84946 5.25357 5.69823 5.03947 5.52943 4.76453C5.36083 4.49003 5.18581 4.16503 5.0048 3.79042L4.85503 3.51859C4.76133 3.344 4.63326 3.08934 4.47088 2.75525C4.3085 2.42116 4.16471 2.09806 4.03998 1.7855C3.98992 1.65455 3.91502 1.55463 3.81513 1.48575L3.76839 1.45762C3.73716 1.43278 3.6871 1.40611 3.61841 1.37816C3.54952 1.35003 3.47797 1.32975 3.40286 1.31715L0.835894 1.33577C0.573597 1.33577 0.395701 1.39536 0.302004 1.51407L0.264552 1.57015C0.245623 1.60158 0.236328 1.65164 0.236328 1.72012C0.236328 1.78901 0.255155 1.87321 0.292607 1.97292C0.667429 2.85375 1.07497 3.70314 1.51516 4.52106C1.95559 5.33942 2.33809 5.99848 2.66285 6.49806C2.98761 6.99805 3.31859 7.46927 3.656 7.91278C3.9934 8.35628 4.21659 8.64028 4.3258 8.76504C4.43502 8.89021 4.52087 8.98394 4.58337 9.04617L4.81754 9.27122C4.96732 9.42102 5.18763 9.60054 5.47809 9.80991C5.76851 10.0192 6.08999 10.2253 6.44311 10.428C6.79583 10.6312 7.20665 10.7964 7.67496 10.9247C8.14331 11.0529 8.59923 11.1044 9.04273 11.0792H10.1201C10.3388 11.0606 10.5042 10.9921 10.6166 10.8732L10.654 10.8264C10.6788 10.7892 10.7024 10.7313 10.7243 10.6532C10.746 10.5753 10.7573 10.4892 10.7573 10.3957C10.7508 10.1272 10.7713 9.88478 10.8181 9.66963C10.8648 9.45408 10.918 9.2919 10.9774 9.18228C11.0367 9.07324 11.1037 8.981 11.1788 8.90589C11.2537 8.83079 11.3067 8.7859 11.3381 8.77018C11.3693 8.75487 11.3944 8.74392 11.413 8.73729C11.5628 8.6874 11.7392 8.73584 11.9424 8.8825C12.1453 9.0296 12.3358 9.21037 12.5139 9.42592C12.6918 9.64147 12.9057 9.88329 13.1556 10.152C13.4053 10.4205 13.6239 10.6203 13.8114 10.7515L13.9988 10.8642C14.1237 10.9389 14.2859 11.0076 14.4859 11.0703C14.6858 11.1325 14.8608 11.1483 15.0105 11.117L17.4089 11.0794C17.6462 11.0794 17.8305 11.0405 17.9617 10.9623C18.0928 10.8847 18.1709 10.7983 18.1959 10.7048C18.2207 10.6111 18.2223 10.5054 18.2006 10.3864C18.1787 10.2678 18.1568 10.1851 18.1351 10.1384C18.1132 10.0916 18.0928 10.0523 18.074 10.0213C17.7617 9.45922 17.1653 8.7689 16.2846 7.95077L16.2658 7.93215L16.2565 7.92265L16.2472 7.91352H16.2378C15.838 7.53248 15.5852 7.27637 15.479 7.14502C15.2854 6.89556 15.2416 6.64256 15.3479 6.38648C15.4224 6.1923 15.7033 5.78313 16.1904 5.15838Z" fill="#D7D7D7"></path>
  </symbol>
</svg>
