<svg width="13" height="14" viewBox="0 0 13 14" fill="none" xmlns="http://www.w3.org/2000/svg">
<path d="M12.8141 4.68107C12.7842 4.0038 12.6747 3.53819 12.5178 3.13473C12.3559 2.70647 12.1069 2.32304 11.7807 2.0043C11.462 1.6806 11.076 1.42907 10.6527 1.26975C10.2469 1.11286 9.78374 1.00333 9.10647 0.973473C8.42415 0.941083 8.20754 0.933594 6.47698 0.933594C4.74642 0.933594 4.52981 0.941083 3.85001 0.970944C3.17275 1.0008 2.70713 1.11042 2.30377 1.26722C1.87541 1.42907 1.49199 1.67807 1.17325 2.0043C0.849544 2.32304 0.59811 2.70899 0.438691 3.1323C0.281801 3.53819 0.172279 4.00127 0.142418 4.67854C0.110029 5.36086 0.102539 5.57747 0.102539 7.30803C0.102539 9.03859 0.110029 9.25521 0.139889 9.935C0.16975 10.6123 0.279369 11.0779 0.436259 11.4813C0.59811 11.9096 0.849544 12.293 1.17325 12.6118C1.49199 12.9355 1.87794 13.187 2.30124 13.3463C2.70713 13.5032 3.17022 13.6127 3.84758 13.6426C4.52728 13.6726 4.74399 13.6799 6.47455 13.6799C8.20511 13.6799 8.42172 13.6726 9.10151 13.6426C9.77878 13.6127 10.2444 13.5032 10.6478 13.3463C11.5044 13.0151 12.1816 12.3379 12.5128 11.4813C12.6696 11.0754 12.7792 10.6123 12.8091 9.935C12.839 9.25521 12.8465 9.03859 12.8465 7.30803C12.8465 5.57747 12.8439 5.36086 12.8141 4.68107ZM11.6662 9.8852C11.6388 10.5077 11.5342 10.8439 11.4471 11.068C11.2329 11.6232 10.7922 12.064 10.2369 12.2781C10.0128 12.3653 9.67422 12.4699 9.05414 12.4972C8.38184 12.5271 8.18021 12.5345 6.47951 12.5345C4.77881 12.5345 4.57465 12.5271 3.90477 12.4972C3.28227 12.4699 2.94612 12.3653 2.72202 12.2781C2.44568 12.176 2.19415 12.0142 1.98999 11.8025C1.77834 11.5958 1.61649 11.3468 1.51436 11.0705C1.42721 10.8464 1.32265 10.5077 1.29531 9.88773C1.26536 9.21542 1.25796 9.01369 1.25796 7.31299C1.25796 5.61229 1.26536 5.40813 1.29531 4.73836C1.32265 4.11585 1.42721 3.7797 1.51436 3.5556C1.61649 3.27917 1.77834 3.02774 1.99252 2.82348C2.19911 2.61183 2.44811 2.44997 2.72454 2.34794C2.94865 2.26079 3.28733 2.15623 3.9073 2.1288C4.57961 2.09894 4.78134 2.09145 6.48194 2.09145C8.18517 2.09145 8.3868 2.09894 9.05667 2.1288C9.67918 2.15623 10.0153 2.26079 10.2394 2.34794C10.5158 2.44997 10.7673 2.61183 10.9715 2.82348C11.1831 3.03017 11.345 3.27917 11.4471 3.5556C11.5342 3.7797 11.6388 4.11828 11.6662 4.73836C11.6961 5.41066 11.7036 5.61229 11.7036 7.31299C11.7036 9.01369 11.6961 9.21289 11.6662 9.8852Z" fill="#D7D7D7"/>
<path d="M6.4775 4.0332C4.6698 4.0332 3.20312 5.49978 3.20312 7.30757C3.20312 9.11536 4.6698 10.5819 6.4775 10.5819C8.28529 10.5819 9.75187 9.11536 9.75187 7.30757C9.75187 5.49978 8.28529 4.0332 6.4775 4.0332ZM6.4775 9.43158C5.30476 9.43158 4.35349 8.48041 4.35349 7.30757C4.35349 6.13474 5.30476 5.18357 6.4775 5.18357C7.65033 5.18357 8.6015 6.13474 8.6015 7.30757C8.6015 8.48041 7.65033 9.43158 6.4775 9.43158Z" fill="#D7D7D7"/>
<path d="M10.6442 3.90406C10.6442 4.3262 10.3019 4.66848 9.87965 4.66848C9.45751 4.66848 9.11523 4.3262 9.11523 3.90406C9.11523 3.48183 9.45751 3.13965 9.87965 3.13965C10.3019 3.13965 10.6442 3.48183 10.6442 3.90406Z" fill="#D7D7D7"/>
</svg>
