<svg width="20" height="19" viewBox="0 0 20 19" fill="none" xmlns="http://www.w3.org/2000/svg">
<g filter="url(#filter0_f_646_2398)">
<path d="M16.7052 6.74747C16.6753 6.07021 16.5658 5.60459 16.4089 5.20113C16.2471 4.77287 15.9981 4.38945 15.6718 4.07071C15.3531 3.747 14.9671 3.49547 14.5438 3.33615C14.138 3.17926 13.6749 3.06974 12.9976 3.03988C12.3153 3.00749 12.0987 3 10.3681 3C8.63753 3 8.42092 3.00749 7.74113 3.03735C7.06386 3.06721 6.59825 3.17683 6.19488 3.33362C5.76652 3.49547 5.3831 3.74448 5.06436 4.07071C4.74066 4.38945 4.48922 4.7754 4.3298 5.1987C4.17291 5.60459 4.06339 6.06768 4.03353 6.74494C4.00114 7.42727 3.99365 7.64388 3.99365 9.37444C3.99365 11.105 4.00114 11.3216 4.031 12.0014C4.06086 12.6787 4.17048 13.1443 4.32737 13.5477C4.48922 13.976 4.74066 14.3594 5.06436 14.6782C5.3831 15.0019 5.76905 15.2534 6.19236 15.4127C6.59825 15.5696 7.06133 15.6791 7.73869 15.709C8.41839 15.739 8.6351 15.7463 10.3657 15.7463C12.0962 15.7463 12.3128 15.739 12.9926 15.709C13.6699 15.6791 14.1355 15.5696 14.5389 15.4127C15.3955 15.0815 16.0728 14.4043 16.4039 13.5477C16.5607 13.1419 16.6704 12.6787 16.7002 12.0014C16.7301 11.3216 16.7376 11.105 16.7376 9.37444C16.7376 7.64388 16.735 7.42727 16.7052 6.74747ZM15.5573 11.9516C15.5299 12.5741 15.4254 12.9103 15.3382 13.1344C15.124 13.6897 14.6833 14.1304 14.128 14.3445C13.9039 14.4317 13.5653 14.5363 12.9453 14.5636C12.273 14.5935 12.0713 14.6009 10.3706 14.6009C8.66992 14.6009 8.46576 14.5935 7.79589 14.5636C7.17338 14.5363 6.83723 14.4317 6.61313 14.3445C6.3368 14.2424 6.08527 14.0806 5.8811 13.8689C5.66945 13.6622 5.5076 13.4132 5.40547 13.1369C5.31832 12.9128 5.21376 12.5741 5.18643 11.9541C5.15647 11.2818 5.14908 11.0801 5.14908 9.3794C5.14908 7.6787 5.15647 7.47454 5.18643 6.80476C5.21376 6.18226 5.31832 5.84611 5.40547 5.62201C5.5076 5.34557 5.66945 5.09414 5.88363 4.88988C6.09023 4.67823 6.33923 4.51638 6.61566 4.41435C6.83976 4.3272 7.17844 4.22264 7.79841 4.19521C8.47072 4.16535 8.67245 4.15786 10.3731 4.15786C12.0763 4.15786 12.2779 4.16535 12.9478 4.19521C13.5703 4.22264 13.9064 4.3272 14.1305 4.41435C14.4069 4.51638 14.6584 4.67823 14.8626 4.88988C15.0742 5.09657 15.2361 5.34557 15.3382 5.62201C15.4254 5.84611 15.5299 6.18469 15.5573 6.80476C15.5872 7.47707 15.5947 7.6787 15.5947 9.3794C15.5947 11.0801 15.5872 11.2793 15.5573 11.9516Z" fill="url(#paint0_linear_646_2398)" fill-opacity="0.8"/>
<path d="M10.3686 6.1001C8.56092 6.1001 7.09424 7.56668 7.09424 9.37447C7.09424 11.1823 8.56092 12.6488 10.3686 12.6488C12.1764 12.6488 13.643 11.1823 13.643 9.37447C13.643 7.56668 12.1764 6.1001 10.3686 6.1001ZM10.3686 11.4985C9.19587 11.4985 8.24461 10.5473 8.24461 9.37447C8.24461 8.20163 9.19587 7.25047 10.3686 7.25047C11.5414 7.25047 12.4926 8.20163 12.4926 9.37447C12.4926 10.5473 11.5414 11.4985 10.3686 11.4985Z" fill="url(#paint1_linear_646_2398)" fill-opacity="0.8"/>
<path d="M14.5353 5.97038C14.5353 6.39251 14.193 6.73479 13.7708 6.73479C13.3486 6.73479 13.0063 6.39251 13.0063 5.97038C13.0063 5.54815 13.3486 5.20596 13.7708 5.20596C14.193 5.20596 14.5353 5.54815 14.5353 5.97038Z" fill="url(#paint2_linear_646_2398)" fill-opacity="0.8"/>
</g>
<path d="M16.7052 6.74747C16.6753 6.07021 16.5658 5.60459 16.4089 5.20113C16.2471 4.77287 15.9981 4.38945 15.6718 4.07071C15.3531 3.747 14.9671 3.49547 14.5438 3.33615C14.138 3.17926 13.6749 3.06974 12.9976 3.03988C12.3153 3.00749 12.0987 3 10.3681 3C8.63753 3 8.42092 3.00749 7.74113 3.03735C7.06386 3.06721 6.59825 3.17683 6.19488 3.33362C5.76652 3.49547 5.3831 3.74448 5.06436 4.07071C4.74066 4.38945 4.48922 4.7754 4.3298 5.1987C4.17291 5.60459 4.06339 6.06768 4.03353 6.74494C4.00114 7.42727 3.99365 7.64388 3.99365 9.37444C3.99365 11.105 4.00114 11.3216 4.031 12.0014C4.06086 12.6787 4.17048 13.1443 4.32737 13.5477C4.48922 13.976 4.74066 14.3594 5.06436 14.6782C5.3831 15.0019 5.76905 15.2534 6.19236 15.4127C6.59825 15.5696 7.06133 15.6791 7.73869 15.709C8.41839 15.739 8.6351 15.7463 10.3657 15.7463C12.0962 15.7463 12.3128 15.739 12.9926 15.709C13.6699 15.6791 14.1355 15.5696 14.5389 15.4127C15.3955 15.0815 16.0728 14.4043 16.4039 13.5477C16.5607 13.1419 16.6704 12.6787 16.7002 12.0014C16.7301 11.3216 16.7376 11.105 16.7376 9.37444C16.7376 7.64388 16.735 7.42727 16.7052 6.74747ZM15.5573 11.9516C15.5299 12.5741 15.4254 12.9103 15.3382 13.1344C15.124 13.6897 14.6833 14.1304 14.128 14.3445C13.9039 14.4317 13.5653 14.5363 12.9453 14.5636C12.273 14.5935 12.0713 14.6009 10.3706 14.6009C8.66992 14.6009 8.46576 14.5935 7.79589 14.5636C7.17338 14.5363 6.83723 14.4317 6.61313 14.3445C6.3368 14.2424 6.08527 14.0806 5.8811 13.8689C5.66945 13.6622 5.5076 13.4132 5.40547 13.1369C5.31832 12.9128 5.21376 12.5741 5.18643 11.9541C5.15647 11.2818 5.14908 11.0801 5.14908 9.3794C5.14908 7.6787 5.15647 7.47454 5.18643 6.80476C5.21376 6.18226 5.31832 5.84611 5.40547 5.62201C5.5076 5.34557 5.66945 5.09414 5.88363 4.88988C6.09023 4.67823 6.33923 4.51638 6.61566 4.41435C6.83976 4.3272 7.17844 4.22264 7.79841 4.19521C8.47072 4.16535 8.67245 4.15786 10.3731 4.15786C12.0763 4.15786 12.2779 4.16535 12.9478 4.19521C13.5703 4.22264 13.9064 4.3272 14.1305 4.41435C14.4069 4.51638 14.6584 4.67823 14.8626 4.88988C15.0742 5.09657 15.2361 5.34557 15.3382 5.62201C15.4254 5.84611 15.5299 6.18469 15.5573 6.80476C15.5872 7.47707 15.5947 7.6787 15.5947 9.3794C15.5947 11.0801 15.5872 11.2793 15.5573 11.9516Z" fill="url(#paint3_linear_646_2398)"/>
<path d="M10.3686 6.1001C8.56092 6.1001 7.09424 7.56668 7.09424 9.37447C7.09424 11.1823 8.56092 12.6488 10.3686 12.6488C12.1764 12.6488 13.643 11.1823 13.643 9.37447C13.643 7.56668 12.1764 6.1001 10.3686 6.1001ZM10.3686 11.4985C9.19587 11.4985 8.24461 10.5473 8.24461 9.37447C8.24461 8.20163 9.19587 7.25047 10.3686 7.25047C11.5414 7.25047 12.4926 8.20163 12.4926 9.37447C12.4926 10.5473 11.5414 11.4985 10.3686 11.4985Z" fill="url(#paint4_linear_646_2398)"/>
<path d="M14.5353 5.97038C14.5353 6.39251 14.193 6.73479 13.7708 6.73479C13.3486 6.73479 13.0063 6.39251 13.0063 5.97038C13.0063 5.54815 13.3486 5.20596 13.7708 5.20596C14.193 5.20596 14.5353 5.54815 14.5353 5.97038Z" fill="url(#paint5_linear_646_2398)"/>
<defs>
<filter id="filter0_f_646_2398" x="0.993652" y="0" width="18.7441" height="18.7464" filterUnits="userSpaceOnUse" color-interpolation-filters="sRGB">
<feFlood flood-opacity="0" result="BackgroundImageFix"/>
<feBlend mode="normal" in="SourceGraphic" in2="BackgroundImageFix" result="shape"/>
<feGaussianBlur stdDeviation="1.5" result="effect1_foregroundBlur_646_2398"/>
</filter>
<linearGradient id="paint0_linear_646_2398" x1="6.82663" y1="12.9325" x2="18.2885" y2="9.66326" gradientUnits="userSpaceOnUse">
<stop stop-color="#94F930"/>
<stop offset="1" stop-color="#05E3DB"/>
</linearGradient>
<linearGradient id="paint1_linear_646_2398" x1="8.55003" y1="11.2031" x2="14.4398" y2="9.52291" gradientUnits="userSpaceOnUse">
<stop stop-color="#94F930"/>
<stop offset="1" stop-color="#05E3DB"/>
</linearGradient>
<linearGradient id="paint2_linear_646_2398" x1="13.3462" y1="6.39729" x2="14.7213" y2="6.00499" gradientUnits="userSpaceOnUse">
<stop stop-color="#94F930"/>
<stop offset="1" stop-color="#05E3DB"/>
</linearGradient>
<linearGradient id="paint3_linear_646_2398" x1="6.82663" y1="12.9325" x2="18.2885" y2="9.66326" gradientUnits="userSpaceOnUse">
<stop stop-color="#94F930"/>
<stop offset="1" stop-color="#05E3DB"/>
</linearGradient>
<linearGradient id="paint4_linear_646_2398" x1="8.55003" y1="11.2031" x2="14.4398" y2="9.52291" gradientUnits="userSpaceOnUse">
<stop stop-color="#94F930"/>
<stop offset="1" stop-color="#05E3DB"/>
</linearGradient>
<linearGradient id="paint5_linear_646_2398" x1="13.3462" y1="6.39729" x2="14.7213" y2="6.00499" gradientUnits="userSpaceOnUse">
<stop stop-color="#94F930"/>
<stop offset="1" stop-color="#05E3DB"/>
</linearGradient>
</defs>
</svg>
