<svg width="3987" height="2834" viewBox="0 0 3987 2834" fill="none" xmlns="http://www.w3.org/2000/svg">
<path d="M327.676 1593.93C266.791 1458.34 282.209 1315.99 338.606 1197.76C417.129 1032.46 576.014 902.879 743.791 867.674C902.125 834.461 1067.3 884.363 1259.1 942.046C1495.54 1013.33 1763.83 1093.91 2099.95 1044.13C2334.45 1009.28 2464.23 931.222 2578.38 862.481C2679.08 801.901 2765.78 749.769 2898.7 744.188C3064.83 737.091 3268.22 805.012 3429.83 921.612C3665.92 1091.68 3832.72 1381.29 3526.62 1638.03L3528.35 1638.38L3526.62 1638.03C3317.35 1814.57 2880.24 1962.66 2358.31 2034.54C1776.01 2114.54 1201.96 2088.78 822.786 1965.51C543.458 1874.4 392.664 1738.18 327.676 1593.93ZM3662.05 1182C3620.48 1088.85 3541.8 998.025 3434.28 920.759C3272.07 803.722 3066.96 735.457 2899.7 742.646C2763.98 748.458 2676.76 801.119 2575.52 861.987C2461.9 930.44 2332.66 1008.21 2099.27 1042.73C1765.4 1092.32 1497.69 1011.94 1261.83 940.849C1069.44 882.97 903.129 832.919 742.569 866.558C573.669 901.856 413.701 1032.01 334.677 1198.08C268.24 1338.55 266.831 1486.31 331.61 1614.28C408.541 1766.31 577.388 1888.39 819.537 1967.24C1011.74 2029.75 1260.19 2068.42 1537.43 2079.19C1799.36 2089.27 2082.97 2074.45 2358.46 2036.47C2609.92 2001.68 2847.43 1948.58 3046.58 1882.57C3259.49 1812.03 3422.29 1730.05 3531.19 1638.63C3665.49 1526.15 3719.03 1393.8 3687.33 1255.81C3681.36 1231.25 3673.1 1206.39 3662.05 1182Z" fill="url(#paint0_linear_155_10839)"/>
<path opacity="0.9756" d="M3501.59 1629.15L3499.87 1628.8C3293.68 1801.68 2865.37 1946.86 2353.49 2017.18C1782.37 2095.77 1219.68 2070.54 848.036 1949.57C573.959 1860.46 426.19 1726.67 362.583 1585.47C303.039 1452.45 318.135 1313.04 373.027 1197.12C450.104 1034.86 605.819 907.97 770.268 873.525C925.274 841.073 1087.54 889.997 1275.28 946.313C1507.65 1016.23 1770.73 1095.29 2100.13 1046.31C2330.16 1012.06 2457.25 935.69 2569.26 868.342C2667.81 809.154 2752.89 757.886 2883.54 752.248C3046.28 745.187 3246.18 811.935 3404.21 926.154C3636.07 1092.92 3799.59 1376.96 3501.59 1629.15ZM3503.31 1629.49C3634.94 1518.94 3687.56 1389.1 3656.08 1253.76C3650.71 1229.64 3641.92 1205.31 3631.46 1181.11C3590.61 1089.85 3513.21 1000.87 3408.08 925.106C3248.87 810.254 3047.83 743.357 2883.96 750.511C2751.06 756.334 2665.45 807.889 2566.35 867.365C2454.88 934.425 2328.35 1010.75 2099.43 1044.66C1771.69 1093.27 1509.76 1014.35 1278.54 944.828C1089.64 888.121 926.799 839.002 769.567 871.88C604.015 906.659 447.217 1034.12 369.619 1196.91C304.066 1334.39 303 1479.45 366.457 1605.1C442.007 1754.07 607.267 1873.78 845.328 1951.01C1034.05 2012.35 1277.35 2050.23 1549.48 2060.69C1806.29 2070.46 2084.29 2056.1 2354.19 2018.82C2600.07 1984.98 2833.15 1932.97 3028.45 1868.26C3236.97 1799.29 3396.52 1719.04 3503.31 1629.49Z" fill="url(#paint1_linear_155_10839)"/>
<path opacity="0.9512" d="M3473.67 1619.53L3471.95 1619.18C3270.01 1788.79 2849.95 1931.1 2348.12 2000.1C1788.18 2077.05 1236.83 2052.35 872.722 1933.67C603.876 1846.32 459.152 1715.2 397.468 1576.76C339.285 1446.54 354.018 1309.6 407.986 1196.19C483.637 1037.21 636.163 912.77 797.284 879.085C949.523 847.347 1108.3 895.098 1292.57 950.483C1520.29 1018.83 1778.16 1096.38 2100.89 1048.68C2326.46 1015.28 2450.85 940.35 2560.69 874.153C2657.08 816.116 2740.55 765.953 2868.39 760.546C3027.77 753.762 3223.58 818.9 3379.16 930.888C3605.66 1094.21 3765.89 1372.68 3473.67 1619.53ZM3475.41 1620.11C3604.39 1511.72 3656.06 1384.14 3625.37 1251.42C3620.03 1227.78 3611.85 1203.89 3600.88 1180.46C3560.75 1091.09 3485.22 1004.14 3382.47 929.886C3226.29 817.461 3029.31 751.932 2868.25 758.855C2738.16 764.447 2654.15 814.898 2556.68 873.509C2447.38 939.419 2322.97 1014.11 2099.09 1047.36C1778.04 1094.93 1521.32 1017.53 1294.18 949.378C1109.32 893.798 949.384 845.655 794.92 877.82C632.696 911.839 478.526 1036.9 402.914 1196.36C339.389 1330.99 338.645 1473.11 400.761 1596.19C474.368 1742.16 636.603 1859.44 870.034 1935.35C1054.7 1995.57 1293.41 2032.61 1559.87 2042.8C1811.59 2052.5 2083.96 2038.37 2348.84 2001.99C2589.69 1968.8 2818.34 1917.89 3009.8 1854.46C3214.44 1786.55 3370.72 1707.78 3475.41 1620.11Z" fill="url(#paint2_linear_155_10839)"/>
<path opacity="0.9268" d="M3445.77 1610.14L3444.05 1609.8C3246.35 1775.9 2834.53 1915.34 2343.33 1982.98C1795.13 2058.48 1254.55 2034.1 897.997 1917.97C634.943 1832.34 492.703 1703.93 432.38 1568.29C374.977 1440.69 389.949 1306.64 442.392 1195.3C516.617 1039.6 665.954 917.616 823.747 884.691C972.637 853.472 1128.53 900.488 1308.75 954.746C1531.84 1021.78 1784.5 1097.81 2100.51 1050.89C2321.61 1018.11 2443.29 944.619 2550.99 879.815C2645.77 822.883 2727.08 773.871 2852.65 768.407C3009.2 761.612 3200.41 825.67 3352.98 935.472C3574.69 1095.54 3732.18 1368.15 3445.77 1610.14ZM3447.5 1610.49C3574.37 1503.97 3624.56 1378.95 3594.08 1248.89C3588.79 1225.73 3580.66 1202.56 3570.28 1179.33C3530.87 1091.84 3457.18 1006.69 3356.25 933.987C3203.07 823.748 3010.17 759.587 2852.47 766.233C2724.63 771.64 2642.81 821.181 2547.5 878.642C2440.34 943.159 2318.65 1016.41 2099.21 1048.81C1784.88 1095.59 1532.81 1019.75 1310.86 952.87C1129.47 898.221 973.02 851.251 821.904 882.897C663.008 916.155 512.027 1038.76 437.841 1194.95C375.22 1326.83 374.238 1466.05 435.033 1586.8C507.259 1729.73 665.907 1844.63 894.708 1919.21C1075.89 1978.26 1309.45 2014.51 1570.81 2024.63C1816.86 2034.07 2084.16 2020.11 2344.01 1984.39C2580.39 1951.81 2804.02 1901.79 2991.63 1839.66C3191.36 1773.85 3345.5 1696.47 3447.5 1610.49Z" fill="url(#paint3_linear_155_10839)"/>
<path opacity="0.9024" d="M3417.88 1600.76L3416.15 1600.42C3222.68 1763.01 2819.68 1899.78 2337.97 1965.91C1800.94 2039.76 1271.7 2015.91 922.144 1902.36C664.322 1818.49 525.688 1692.7 466.164 1559.92C410.103 1434.88 424.732 1303.54 476.251 1194.71C548.49 1042.33 695.199 922.75 849.663 890.585C995.225 860.126 1148.19 905.924 1324.36 959.055C1542.83 1024.76 1790.27 1099.28 2100.13 1053.11C2316.76 1020.94 2436.31 949.084 2541.3 885.718C2633.92 829.938 2713.6 781.789 2836.93 776.51C2990.11 769.992 3177.81 832.636 3326.8 940.058C3544.27 1096.82 3698.48 1363.87 3417.88 1600.76ZM3419.6 1601.11C3543.83 1496.75 3593.07 1374 3562.83 1246.84C3557.57 1224.16 3549.49 1201.47 3539.72 1178.92C3501.04 1093.32 3428.63 1010.01 3330.11 939.056C3180.52 831.197 2991.1 768.208 2836.79 774.819C2711.78 780.237 2630.99 828.719 2537.83 884.787C2432.82 947.912 2313.81 1019.48 2098.87 1051.52C1791.24 1097.25 1544.37 1022.93 1327.07 957.616C1149.73 904.094 996.189 858.101 847.84 889.033C692.273 921.531 544.481 1041.69 471.74 1194.83C410.585 1323.92 409.363 1460.24 468.837 1578.67C539.682 1718.55 694.764 1831.31 918.896 1904.09C1097.13 1961.67 1326.12 1997.32 1581.79 2006.94C1822.73 2016.07 2084.97 2002.53 2338.67 1967.56C2570.01 1935.63 2789.22 1886.71 2972.97 1825.87C3168.84 1761.11 3319.73 1685.46 3419.6 1601.11Z" fill="url(#paint4_linear_155_10839)"/>
<path opacity="0.878" d="M3389.98 1591.38L3388.25 1591.04C3198.46 1750.16 2804.24 1883.78 2333.15 1948.55C1807.87 2020.94 1289.41 1997.67 947.375 1886.18C695.345 1804.02 559.195 1680.94 501.033 1550.97C446.333 1428.74 460.057 1300.15 510.632 1193.58C581.425 1044.24 724.985 927.599 876.101 895.953C1018.88 865.966 1167.83 911.12 1341.08 963.033C1554.91 1027.42 1797.13 1100.17 2100.31 1055.29C2311.91 1023.78 2429.33 953.551 2532.16 891.337C2622.61 836.708 2701.24 789.618 2821.21 784.615C2971 778.133 3154.63 839.408 3300.61 944.645C3513.86 1098.11 3664.21 1359.39 3389.98 1591.38ZM3392.26 1591.68C3514.38 1489.2 3562.14 1369 3532.68 1244.45C3527.46 1222.26 3519.98 1200.01 3509.7 1177.99C3471.73 1094.27 3401.16 1012.75 3305.05 943.551C3158.46 837.877 2973.67 776.211 2822.19 782.832C2699.98 788.019 2620.82 835.638 2529.83 890.555C2426.97 952.286 2310.66 1022.42 2100.17 1053.6C1798.67 1098.34 1557.6 1025.74 1344.35 961.548C1170.5 909.198 1020.42 864.136 875.401 894.308C723.182 926.287 578.559 1043.75 507.244 1193.62C446.993 1319.95 446.094 1453.32 504.808 1569.39C574.272 1706.22 725.767 1816.59 945.269 1888.05C1118.89 1944.56 1343.29 1979.37 1593.31 1988.97C1829.16 1998.03 2085.77 1984.71 2334.43 1950.39C2560.74 1919.13 2775.52 1871.3 2954.86 1811.79C3146.32 1748.37 3293.93 1674.2 3392.26 1591.68Z" fill="url(#paint5_linear_155_10839)"/>
<path opacity="0.8537" d="M3362.08 1582L3360.36 1581.65C3174.79 1737.27 2788.81 1868.02 2327.79 1931.48C1813.68 2002.22 1306.57 1979.47 972.084 1870.52C725.285 1790.12 592.18 1669.71 535.379 1542.55C482.02 1422.88 495.422 1297.24 545.053 1192.94C614.421 1046.88 754.791 932.685 902.559 901.558C1042.01 872.332 1188.04 916.267 1357.25 967.295C1566.44 1030.12 1803.46 1101.6 2099.93 1057.51C2307.07 1026.85 2421.77 957.82 2522.45 896.998C2611.32 843.715 2687.77 797.535 2805.47 792.476C2951.89 786.27 3131.45 846.178 3274.41 948.987C3483.45 1099.39 3630.51 1355.11 3362.08 1582ZM3364.36 1582.3C3483.82 1481.74 3530.65 1364.05 3501.41 1242.16C3496.23 1220.45 3488.79 1198.68 3479.1 1177.1C3441.86 1095.27 3372.59 1015.83 3278.84 947.893C3135.26 844.405 2954.56 784.348 2806.45 790.692C2686.51 795.936 2609.51 842.404 2520.1 895.975C2419.41 956.555 2305.79 1025.01 2099.77 1055.58C1804.97 1099.28 1568.54 1028.24 1360.5 965.569C1190.14 914.391 1043.53 870.261 901.858 899.913C752.406 931.179 610.973 1046.19 541.645 1192.73C482.859 1316.27 481.723 1446.74 539.095 1560.24C606.617 1694.07 755.086 1802.02 970.499 1871.87C1140.64 1927.2 1359.89 1961.22 1604.81 1970.75C1835.54 1979.5 2086.54 1966.64 2329.61 1933.03C2550.91 1902.66 2761.24 1855.69 2936.73 1797.47C3123.79 1735.62 3268.14 1662.94 3364.36 1582.3Z" fill="url(#paint6_linear_155_10839)"/>
<path opacity="0.8293" d="M3334.18 1572.62L3332.46 1572.27C3151.12 1724.38 2773.97 1852.46 2322.99 1914.36C1820.04 1983.46 1324.84 1961.19 997.353 1854.83C755.805 1776.42 625.746 1658.69 570.286 1534.08C517.707 1417.03 531.327 1294.04 579.453 1192.06C647.394 1049.28 784.575 937.536 929.015 907.169C1065.7 878.657 1208.26 921.661 1373.97 971.275C1578.52 1032.78 1810.32 1102.49 2100.64 1059.4C2303.32 1029.35 2415.33 962.001 2513.86 902.572C2600.56 850.441 2675.41 805.365 2790.3 800.537C2933.34 794.366 3109.41 853.101 3248.81 953.772C3452.48 1100.72 3596.81 1350.83 3334.18 1572.62ZM3336.46 1572.92C3453.83 1474.48 3499.16 1359.1 3470.14 1239.87C3465 1218.64 3457.62 1197.6 3447.97 1176.5C3411.44 1096.56 3344.02 1018.91 3252.11 952.77C3112.12 851.662 2934.91 792.778 2790.16 798.846C2673.03 803.859 2597.64 849.222 2510.42 901.883C2411.86 961.07 2300.39 1028.13 2099.4 1058.04C1811.3 1100.71 1580.11 1031.43 1376.7 970.077C1210.38 920.027 1066.68 876.873 927.773 905.812C781.649 936.317 643.405 1048.88 575.504 1192.14C518.183 1312.88 516.828 1440.7 572.859 1551.63C638.999 1682.41 784.443 1787.93 994.665 1856.51C1160.75 1910.71 1375.41 1943.89 1614.67 1953.16C1840.31 1961.84 2085.65 1948.96 2323.71 1916.25C2540.54 1886.49 2745.87 1840.66 2917.49 1783.49C3101.27 1722.89 3242.37 1651.93 3336.46 1572.92Z" fill="url(#paint7_linear_155_10839)"/>
<path opacity="0.8049" d="M3306.28 1563.24L3304.56 1562.89C3127.48 1711.73 2758.54 1836.7 2318.19 1897.24C1826.99 1964.88 1342.58 1943.19 1022.62 1839.12C786.868 1762.43 659.293 1647.41 605.194 1525.62C553.957 1411.13 567.254 1291.09 614.436 1191.37C680.952 1051.87 814.944 942.578 956.055 912.971C1089.39 884.977 1229.04 927.004 1390.73 975.733C1590.65 1035.91 1817.23 1104.11 2100.84 1061.81C2299.05 1032.38 2408.35 966.466 2504.74 908.43C2589.27 857.449 2662.52 813.479 2775.14 808.594C2915.38 802.654 3086.79 859.825 3223.18 958.311C3422.06 1102.01 3563.1 1346.3 3306.28 1563.24ZM3308.57 1563.54C3423.26 1467.02 3467.67 1354.15 3439.43 1237.53C3434.33 1216.78 3427.55 1196.18 3417.94 1175.56C3382.7 1097.46 3316.56 1021.66 3227.03 957.021C3090.04 858.099 2916.9 800.583 2775.55 806.615C2661.23 811.638 2587.45 855.897 2501.83 907.452C2405.99 965.201 2296.66 1030.87 2100.12 1059.93C1818.17 1101.85 1592.74 1033.79 1393.39 973.811C1230.57 924.933 1090.33 882.71 954.773 911.131C811.998 941.117 676.903 1050.74 610.447 1190.97C554.592 1308.91 552.998 1433.83 608.269 1542.39C673.029 1670.12 814.906 1773.51 1020.46 1840.28C1183.04 1893.07 1392.57 1925.7 1626.71 1934.66C1847.24 1943.03 2086.97 1930.61 2319.99 1898.55C2531.79 1869.45 2732.11 1824.52 2900.47 1768.83C3078.74 1710.14 3216.58 1640.67 3308.57 1563.54Z" fill="url(#paint8_linear_155_10839)"/>
<path opacity="0.7805" d="M3278.38 1553.86L3277.22 1553.47C3103.81 1698.84 2743.68 1820.89 2313.39 1880.12C1833.36 1946.12 1360.29 1924.95 1047.87 1823.18C817.35 1748.25 693.381 1635.85 640.082 1516.91C590.205 1405.23 602.579 1287.7 648.837 1190.49C713.346 1054.07 844.73 947.426 982.513 918.58C1112.52 891.346 1249.27 932.396 1406.88 979.757C1602.18 1038.61 1823.52 1105.06 2100.46 1064.03C2294.2 1035.21 2400.81 970.979 2495.05 914.335C2577.98 864.46 2649.06 821.641 2758.86 816.745C2896.28 811.036 3063.66 867.081 3197.02 963.139C3391.65 1103.29 3529.4 1342.02 3278.38 1553.86ZM3280.67 1554.16C3393.28 1459.76 3436.18 1349.2 3408.16 1235.23C3403.1 1214.97 3396.36 1194.85 3387.37 1174.92C3352.85 1098.7 3287.99 1024.74 3200.87 961.85C3066.9 865.354 2897.81 808.964 2759.84 814.961C2647.78 819.8 2575.62 863.195 2492.15 913.358C2398.45 969.714 2291.83 1033.94 2099.76 1062.39C1824.51 1103.27 1604.3 1036.98 1409.59 978.318C1250.81 930.566 1113.48 889.321 981.251 916.981C841.804 946.207 709.898 1053.38 644.868 1190.33C590.478 1305.48 588.646 1427.49 642.576 1533.49C705.954 1658.17 844.245 1759.17 1045.17 1824.62C1203.7 1876.29 1408.64 1908.08 1637.12 1917.02C1852.56 1925.32 2086.66 1913.12 2314.09 1881.77C2520.86 1853.33 2716.75 1809.49 2881.25 1755.09C3056.2 1697.16 3190.8 1629.66 3280.67 1554.16Z" fill="url(#paint9_linear_155_10839)"/>
<path opacity="0.7561" d="M3250.49 1544.48L3249.34 1544.33C3080.17 1686.19 2728.28 1805.38 2308.61 1863.25C1839.77 1927.84 1378.03 1906.95 1072.6 1807.77C847.872 1734.55 726.387 1624.87 674.449 1508.73C625.353 1399.66 637.965 1285.03 683.259 1189.85C746.343 1056.71 874.537 952.517 1008.99 924.43C1136.23 897.911 1269.49 937.788 1423.64 984.218C1614.28 1041.51 1830.44 1106.68 2101.22 1066.41C2290.51 1038.43 2394.41 975.642 2486.49 920.149C2567.25 871.425 2637.27 829.423 2744.28 825C2877.76 819.372 3041.62 874.003 3171.4 967.681C3361.22 1104.34 3495.13 1337.54 3250.49 1544.48ZM3252.77 1544.78C3362.72 1452.3 3404.69 1344.25 3377.45 1232.9C3372.45 1213.36 3365.73 1193.48 3356.78 1174.03C3322.98 1099.7 3259.98 1027.77 3174.69 966.438C3043.73 872.127 2878.7 817.106 2744.12 823.067C2634.86 827.675 2564.33 870.206 2483.02 919.218C2391.49 974.423 2287.56 1036.97 2099.96 1064.81C1831.4 1104.65 1615.85 1039.92 1426.35 982.779C1271.06 936.2 1137.19 895.886 1007.73 922.832C871.611 951.298 742.895 1056.02 679.31 1189.93C625.804 1302.09 624.315 1421.4 676.923 1525.07C738.36 1646.75 873.625 1745.33 1069.9 1809.21C1224.94 1859.7 1424.73 1890.7 1648.1 1899.33C1858.43 1907.33 2086.91 1895.59 2309.32 1864.89C2511.61 1837.06 2702.51 1794.36 2863.16 1741.26C3033.68 1684.42 3165.01 1618.4 3252.77 1544.78Z" fill="url(#paint10_linear_155_10839)"/>
<path opacity="0.7317" d="M3222.58 1535.09L3221.44 1534.94C3056.5 1673.3 2713.43 1789.81 2303.25 1846.17C1846.14 1909.07 1395.18 1888.75 1097.31 1792.11C877.809 1720.65 759.369 1613.64 708.812 1500.55C661.057 1394.05 673.346 1282.36 717.135 1189.49C778.793 1059.63 903.798 957.89 1034.92 930.564C1158.81 904.563 1288.63 943.751 1439.29 989.008C1625.3 1044.98 1836.23 1108.39 2100.32 1069.15C2284.57 1041.84 2386.89 980.392 2476.26 926.339C2554.88 879.007 2623.26 837.868 2727.45 833.434C2857.54 827.842 3017.34 881.105 3144.67 972.552C3330.25 1105.67 3461.43 1333.26 3222.58 1535.09ZM3224.87 1535.39C3332.73 1445.03 3373.2 1339.3 3346.17 1230.6C3341.78 1211.5 3334.55 1192.39 3326.21 1173.38C3293.12 1100.94 3231.41 1030.85 3149.06 970.974C3021.69 879.045 2860.17 825.437 2728.38 830.926C2621.94 835.545 2553.01 876.971 2473.29 924.637C2383.9 978.449 2282.66 1039.32 2099.54 1066.54C1837.11 1105.4 1627.33 1042.14 1441.92 986.603C1290.67 941.15 1159.72 901.813 1033.6 928.24C900.813 955.946 774.724 1058.26 713.126 1188.84C661.086 1298.21 659.919 1414.57 710.645 1515.97C770.7 1634.6 902.378 1730.8 1094.02 1793.36C1245.58 1842.68 1440.21 1872.88 1657.92 1881.25C1863.15 1889.18 2086 1877.66 2302.81 1847.67C2500.07 1820.49 2686.54 1778.89 2843.34 1727.07C3011.15 1671.67 3139.22 1607.14 3224.87 1535.39Z" fill="url(#paint11_linear_155_10839)"/>
<path opacity="0.7073" d="M3194.69 1525.71L3193.54 1525.56C3032.85 1660.65 2698.01 1774.05 2298.45 1829.05C1851.94 1890.34 1412.33 1870.56 1122.54 1775.93C908.271 1706.23 792.876 1601.88 743.681 1491.6C697.287 1387.91 709.213 1278.68 752.078 1188.32C812.31 1061.74 934.126 962.45 1061.9 935.642C1183.03 910.356 1309.35 948.371 1455.97 992.502C1637.35 1047.15 1843.07 1109.04 2100.46 1070.84C2280.23 1044.14 2379.87 984.375 2467.09 931.714C2544.11 885.488 2610.33 845.5 2712.27 841.25C2839.53 835.648 2995.28 887.784 3119.04 977.092C3299.83 1106.95 3427.71 1328.73 3194.69 1525.71ZM3196.97 1526.01C3302.16 1437.57 3341.71 1334.35 3315.46 1228.26C3311.11 1209.65 3304.48 1190.98 3295.62 1172.49C3263.25 1101.93 3203.38 1033.64 3122.87 975.56C2998.51 885.816 2841.06 833.577 2712.65 839.03C2608.47 843.464 2541.7 883.739 2464.17 930.495C2376.93 982.915 2278.39 1042.34 2099.74 1068.96C1844.03 1107.02 1639.46 1045.27 1458.65 990.821C1310.88 946.299 1183.41 908.135 1060.62 933.802C931.181 960.989 808.262 1060.61 748.09 1187.92C697.515 1294.48 696.11 1407.95 746.055 1506.73C804.729 1622.31 932.841 1716.37 1120.38 1777.08C1267.87 1825.03 1457.93 1854.64 1670.54 1862.94C1870.66 1870.56 2088.44 1859.22 2299.67 1830.17C2491.9 1803.65 2673.92 1762.9 2826.31 1712.42C2988.63 1658.93 3114.01 1596.08 3196.97 1526.01Z" fill="url(#paint12_linear_155_10839)"/>
<path opacity="0.6829" d="M3166.79 1516.33L3165.65 1516.18C3008.62 1647.8 2682.58 1758.3 2293.09 1811.98C1858.33 1871.82 1430.07 1852.56 1147.27 1760.52C938.794 1692.53 826.444 1590.85 778.049 1483.43C732.996 1382.3 744.038 1276.06 785.94 1187.72C844.746 1064.43 963.373 967.588 1087.82 941.541C1205.6 916.772 1329.04 954.052 1472.16 997.01C1648.9 1050.1 1849.4 1110.47 2100.66 1073.26C2275.96 1047.17 2372.91 989.086 2457.97 937.576C2532.82 892.5 2597.43 853.618 2696.55 849.357C2820.44 844.032 2972.12 894.8 3092.86 981.681C3269.42 1108.24 3394.02 1324.45 3166.79 1516.33ZM3169.07 1516.63C3272.16 1430.07 3310.22 1329.4 3284.21 1226.21C3279.9 1208.08 3273.31 1189.89 3265.05 1171.84C3233.4 1103.18 3175.37 1036.68 3096.69 980.149C2975.33 892.59 2821.95 841.719 2696.93 847.137C2595.57 851.582 2530.41 890.752 2454.48 936.403C2369.39 987.43 2273 1045.47 2099.35 1071.18C1850.35 1108.2 1650.42 1048.02 1474.83 995.088C1331.1 951.693 1206.54 914.506 1086.52 939.458C960.407 965.886 840.677 1063.06 781.931 1187.08C732.821 1290.85 731.178 1401.42 779.802 1497.88C836.534 1610.46 961.62 1702.09 1144.53 1761.48C1288.53 1808.26 1474 1837.03 1680.94 1845.06C1875.97 1852.61 2088.11 1841.49 2294.32 1813.1C2482.07 1787.19 2659.1 1747.58 2807.64 1698.39C2966.11 1646.19 3088.22 1584.82 3169.07 1516.63Z" fill="url(#paint13_linear_155_10839)"/>
<path opacity="0.6585" d="M3138.89 1506.95L3137.75 1506.8C2984.96 1634.91 2667.72 1742.49 2288.29 1794.86C1865.26 1853.01 1447.78 1834.32 1172.54 1744.82C969.312 1678.84 859.988 1579.58 812.953 1474.96C768.681 1376.44 779.941 1272.87 820.919 1187.04C878.279 1066.78 993.196 972.92 1114.86 947.345C1229.86 923.291 1349.82 959.398 1488.91 1001.47C1661.02 1053.24 1856.31 1112.09 2100.85 1075.68C2271.71 1050.44 2365.93 993.553 2449.4 943.39C2522.08 899.466 2585.1 861.688 2681.95 857.371C2802.45 852.081 2950.06 901.481 3067.8 986.176C3239.01 1109.53 3360.3 1319.93 3138.89 1506.95ZM3141.17 1507.25C3241.61 1422.86 3278.73 1324.45 3252.94 1223.92C3248.66 1206.27 3242.12 1188.57 3234.47 1171.2C3203.55 1104.42 3146.8 1039.76 3070.52 984.979C2952.19 899.846 2803.42 850.055 2681.23 855.484C2582.67 859.698 2518.58 898.051 2445.35 942.263C2362.42 992.139 2268.72 1048.49 2099.55 1073.6C1857.24 1109.58 1662.54 1051.16 1491.02 999.596C1350.78 957.373 1229.69 921.117 1113.02 945.551C990.23 971.218 873.689 1065.94 816.368 1186.68C768.163 1287.7 766.843 1395.32 814.145 1489.46C869.496 1598.99 990.996 1688.24 1169.25 1746.07C1309.21 1791.72 1490.09 1819.65 1691.35 1827.42C1881.27 1834.67 2087.8 1824 2288.41 1796.31C2471.14 1771.07 2643.73 1732.55 2788.42 1684.65C2943.58 1633.45 3062.42 1573.57 3141.17 1507.25Z" fill="url(#paint14_linear_155_10839)"/>
<path opacity="0.6341" d="M3110.99 1497.57L3109.85 1497.42C2961.29 1622.02 2652.31 1726.97 2282.91 1777.55C1871.07 1834.29 1464.91 1815.88 1197.21 1728.68C999.776 1664.41 892.935 1567.87 847.262 1466.06C804.331 1370.1 815.268 1269.47 854.741 1185.96C910.114 1069.02 1022.4 977.569 1140.74 952.755C1252.42 929.461 1369.46 964.591 1504.49 1005.3C1671.97 1055.74 1862.03 1112.84 2099.87 1077.46C2266.26 1052.83 2357.79 997.626 2439.12 948.855C2510.19 906.036 2571.6 869.363 2665.65 865.277C2782.78 860.264 2926.89 908.25 3041.03 990.564C3208.04 1110.86 3326.05 1315.69 3110.99 1497.57ZM3113.84 1497.82C3212.17 1415.3 3247.8 1319.45 3222.79 1221.54C3218.55 1204.37 3212.63 1187.34 3204.45 1170.26C3174.24 1105.37 3119.36 1042.74 3045.46 989.47C2930.7 906.477 2785.45 858.342 2666.61 863.252C2570.3 867.281 2508.39 904.725 2436.77 947.832C2355.99 996.315 2264.99 1051.23 2100.29 1075.72C1864.11 1110.72 1675.19 1053.77 1508.3 1003.52C1372.11 962.427 1253.92 927.148 1140.02 950.868C1020.58 976.017 906.647 1068.09 850.752 1185.55C804.012 1283.78 802.453 1388.5 848.976 1480.03C902.945 1586.51 1020.86 1673.38 1194.48 1729.88C1330.95 1774.36 1506.68 1801.5 1702.84 1808.96C1887.66 1816.14 2088.56 1805.69 2284.14 1778.66C2461.85 1754.32 2629.99 1716.65 2770.83 1670.04C2921.06 1620.71 3036.65 1562.55 3113.84 1497.82Z" fill="url(#paint15_linear_155_10839)"/>
<path opacity="0.6098" d="M3083.07 1487.95L3081.93 1487.8C2937.62 1609.13 2636.87 1710.98 2278.09 1760.19C1877.42 1815.28 1482.63 1797.64 1221.9 1712.79C1029.69 1650.27 925.898 1556.4 881.586 1457.4C840.016 1364.25 850.611 1266.32 889.14 1185.07C943.088 1071.42 1052.19 982.418 1167.19 958.364C1275.52 935.589 1389.66 969.741 1521.22 1009.52C1684.07 1058.64 1868.92 1114.22 2100.63 1079.83C2262.54 1055.81 2351.37 1002.05 2430.55 954.669C2499.48 913.242 2559.25 877.191 2650.48 873.336C2764.23 868.358 2904.28 915.218 3015.43 995.347C3177.62 1112.14 3292.35 1311.41 3083.07 1487.95ZM3085.94 1488.44C3181.62 1408.09 3216.31 1314.5 3191.52 1219.24C3187.32 1202.56 3181.44 1186.02 3173.87 1169.61C3144.39 1106.61 3090.79 1045.82 3019.28 994.057C2907.53 913.491 2766.34 866.482 2650.88 871.357C2557.4 875.397 2497.1 911.736 2427.62 953.45C2349.55 1000.49 2260.7 1054.02 2100.45 1077.66C1870.97 1111.61 1687.28 1056.43 1525.01 1007.5C1392.31 967.578 1277.59 933.23 1167.03 956.431C1050.36 980.865 940.181 1070.44 885.732 1184.87C840.457 1280.29 838.66 1382.12 883.861 1471.32C935.889 1574.8 1050.23 1659.53 1219.21 1714.47C1352.17 1757.53 1522.77 1784.12 1713.27 1791.56C1892.99 1798.43 2088.27 1788.45 2278.25 1762.12C2450.93 1738.43 2614.64 1701.86 2751.61 1656.29C2898.53 1607.97 3010.86 1551.29 3085.94 1488.44Z" fill="url(#paint16_linear_155_10839)"/>
<path opacity="0.5854" d="M3055.18 1478.57L3054.03 1478.42C2913.96 1596.24 2621.45 1695.22 2272.74 1743.11C1883.81 1796.75 1499.78 1779.45 1246.61 1697.13C1059.64 1636.38 958.888 1545.18 915.936 1448.98C875.146 1358.44 885.96 1263.17 922.983 1184.23C975.506 1073.86 1081.42 987.31 1193.09 964.016C1298.66 941.955 1408.77 975.223 1536.82 1013.58C1695.02 1061.14 1874.66 1115.2 2099.67 1081.86C2256.55 1058.49 2343.25 1006.36 2420.28 960.377C2487.05 920.101 2545.21 885.155 2634.2 881.484C2745.14 876.738 2881.11 921.987 2988.69 999.978C3147.21 1113.43 3258.64 1306.88 3055.18 1478.57ZM3058.04 1479.06C3151.62 1400.58 3184.82 1309.55 3160.81 1216.9C3156.65 1200.7 3150.81 1184.64 3143.29 1168.72C3114.52 1107.6 3062.76 1048.61 2993.1 998.642C2884.36 920.261 2747.23 874.62 2635.17 879.459C2544.49 883.269 2485.79 918.503 2417.94 959.354C2342.01 1005 2255.87 1057.09 2100.09 1080.12C1877.33 1113.28 1698.27 1059.41 1540.65 1012.05C1412 973.255 1300.18 939.884 1192.95 962.325C1079.61 985.999 972.619 1073.12 919.595 1184.27C875.786 1276.9 873.751 1375.83 917.631 1462.7C968.277 1563.13 1079.6 1645.44 1243.92 1698.81C1372.83 1740.75 1538.84 1766.5 1724.23 1773.63C1898.86 1780.43 2088.49 1770.43 2273.46 1745C2441.67 1721.92 2600.36 1686.25 2733.51 1642.21C2875.45 1595.27 2985.09 1540.28 3058.04 1479.06Z" fill="url(#paint17_linear_155_10839)"/>
<path opacity="0.561" d="M3027.28 1469.19L3026.13 1469.04C2889.73 1583.39 2606.58 1679.41 2267.94 1725.99C1890.18 1777.98 1518.06 1761.16 1271.86 1681.19C1090.68 1622.15 992.994 1533.86 950.823 1440.27C911.374 1352.3 921.303 1260.02 957.944 1183.3C1009.02 1075.97 1111.76 992.112 1220.09 969.336C1322.33 948.036 1429.51 980.084 1554.1 1017.51C1707.66 1063.75 1882.09 1116.29 2100.39 1083.74C2252.82 1061.23 2337.37 1010.49 2411.68 965.707C2476.84 926.536 2532.84 892.741 2619 889.059C2726.55 884.348 2858.47 928.471 2963.02 1004.03C3116.8 1114.71 3224.94 1302.6 3027.28 1469.19ZM3030.14 1469.68C3121.07 1393.36 3152.77 1304.65 3129.54 1214.61C3125.42 1198.89 3119.62 1183.32 3112.69 1167.83C3085.21 1108.55 3034.73 1051.41 2967.45 1002.94C2861.74 926.986 2728.66 882.472 2619.98 887.276C2531.57 891.142 2475.04 925.225 2409.35 964.925C2335.59 1009.42 2251.56 1059.63 2100.83 1082.25C1884.2 1114.42 1710.93 1062.26 1557.95 1016.22C1432.78 978.599 1324.99 946.113 1219.97 967.887C1109.96 990.8 1006.15 1075.47 954.556 1183.34C912.193 1272.93 909.938 1369.2 952.477 1453.51C1001.74 1550.89 1109.48 1630.82 1269.73 1682.83C1395.16 1723.59 1556.02 1748.55 1735.73 1755.42C1905.24 1761.91 2089.26 1752.37 2269.2 1727.59C2432.38 1705.17 2586.64 1670.59 2715.93 1627.85C2852.91 1582.28 2959.29 1529.02 3030.14 1469.68Z" fill="url(#paint18_linear_155_10839)"/>
<path opacity="0.5366" d="M2999.38 1459.81L2998.23 1459.66C2866.06 1570.5 2591.15 1663.65 2262.57 1708.92C1895.98 1759.26 1535.23 1743.21 1296.57 1665.54C1120.62 1608.25 1025.98 1522.63 985.166 1431.85C947.059 1346.45 956.645 1256.87 991.801 1182.71C1041.45 1078.65 1141 997.248 1246.57 975.187C1346.01 954.358 1449.75 985.718 1570.29 1022.02C1719.23 1066.93 1888.42 1117.72 2100.6 1086.4C2248.56 1064.5 2330.41 1015.2 2402.57 971.808C2465.57 933.788 2519.96 901.098 2603.86 897.36C2708.04 892.925 2835.89 935.681 2937.98 1008.77C3085.83 1116.04 3191.22 1298.08 2999.38 1459.81ZM3002.24 1460.3C3091.06 1385.86 3121.28 1299.7 3098.26 1212.32C3094.21 1197.33 3089.01 1182.19 3082.12 1167.19C3055.36 1109.79 3006.18 1054.73 2941.29 1007.77C2839.14 933.954 2709.59 891.096 2603.72 895.668C2518.11 899.304 2463.2 932.523 2399.1 970.877C2327.49 1013.98 2246.16 1062.75 2099.88 1084.52C1889.95 1115.65 1721.89 1065.01 1573.54 1020.29C1451.86 983.842 1347.54 952.287 1245.87 973.541C1139.2 995.936 1038.57 1077.92 988.393 1182.5C946.934 1269.35 945.002 1362.67 986.781 1444.61C1034.67 1538.94 1139.37 1616.44 1294.42 1666.93C1415.8 1706.57 1572.06 1730.69 1746.69 1737.49C1911.11 1743.91 2089.49 1734.59 2263.84 1710.52C2421.98 1688.76 2571.82 1655.27 2697.26 1613.82C2830.38 1569.54 2933.5 1517.76 3002.24 1460.3Z" fill="url(#paint19_linear_155_10839)"/>
<path opacity="0.5122" d="M2971.48 1450.42L2970.34 1450.27C2842.42 1557.85 2575.75 1648.13 2257.78 1691.8C1902.93 1740.69 1552.95 1724.96 1321.84 1649.84C1151.68 1594.26 1059.53 1511.36 1020.08 1423.38C983.33 1340.78 992.574 1253.91 1026.77 1181.78C1074.43 1081.05 1171.35 1002.05 1273.59 980.745C1369.71 960.677 1470.54 991.059 1587.01 1025.99C1731.31 1069.58 1895.3 1118.85 2100.76 1088.33C2244.26 1067.04 2323.41 1019.42 2393.43 977.422C2454.82 940.508 2507.6 908.922 2588.14 905.461C2688.93 901.062 2813.28 942.403 2911.81 1013.6C3055.42 1117.33 3156.97 1293.84 2971.48 1450.42ZM2974.35 1450.92C3060.5 1378.4 3089.79 1294.74 3067.56 1209.98C3063.54 1195.47 3058.38 1180.81 3051.53 1166.29C3025.49 1110.79 2978.16 1057.52 2915.1 1012.35C2815.98 940.964 2690.48 899.232 2587.98 903.528C2505.2 907.174 2451.33 939.335 2389.4 976.537C2319.93 1018.25 2241.31 1065.58 2099.5 1086.73C1896.27 1116.83 1732.88 1068 1589.15 1024.6C1471.52 989.276 1370.11 958.698 1271.76 979.192C1168.43 1000.83 1070.42 1080.4 1022.24 1181.66C982.242 1265.71 980.653 1356.33 1020.53 1435.75C1066.47 1527.08 1168.15 1602.15 1318.57 1651.32C1436.44 1689.55 1587.57 1713.11 1756.53 1719.65C1915.83 1725.76 2089.17 1716.86 2257.92 1693.49C2411.59 1672.34 2556.43 1639.99 2677.44 1599.63C2807.86 1556.8 2908.29 1506.7 2974.35 1450.92Z" fill="url(#paint20_linear_155_10839)"/>
<path opacity="0.4878" d="M2943.58 1441.04L2942.43 1440.89C2818.75 1544.96 2560.32 1632.38 2252.41 1674.73C1908.74 1721.97 1570.09 1706.77 1346.52 1633.94C1181.62 1580.37 1092.49 1499.89 1054.4 1414.72C1018.43 1334.74 1027.91 1250.77 1060.6 1180.94C1106.84 1083.49 1200.57 1006.94 1299.48 986.402C1392.25 966.852 1490.18 996.257 1603.18 1030.26C1742.83 1072.29 1901.61 1120.04 2100.38 1090.56C2239.4 1069.88 2315.87 1023.94 2383.72 983.088C2442.96 947.566 2494.1 916.603 2572.39 913.326C2670.38 909.158 2790.09 949.177 2885.61 1017.94C3024.98 1118.37 3123.25 1289.32 2943.58 1441.04ZM2946.44 1441.54C3030.51 1371.14 3058.29 1289.8 3036.3 1207.93C3032.88 1193.86 3027.2 1179.73 3020.98 1165.89C2995.65 1112.27 2950.17 1060.8 2889.5 1017.14C2793.38 947.933 2671.95 907.57 2572.83 911.83C2492.3 915.292 2440.6 946.301 2380.83 982.352C2313.5 1022.67 2237.59 1068.57 2100.24 1088.86C1903.16 1118.21 1745.52 1070.61 1606.45 1028.78C1492.3 994.623 1394.36 964.976 1298.78 984.757C1198.77 1005.63 1103.95 1082.75 1057.19 1180.74C1018.67 1261.99 1016.84 1349.71 1055.37 1426.56C1099.93 1514.85 1198.05 1587.78 1343.8 1635.14C1457.62 1672.24 1604.72 1694.92 1768 1701.2C1922.2 1707 2089.92 1698.56 2253.07 1675.89C2401.72 1655.4 2542.13 1624.14 2659.29 1585.08C2785.33 1544.06 2882.49 1495.45 2946.44 1441.54Z" fill="url(#paint21_linear_155_10839)"/>
<path opacity="0.4634" d="M2915.68 1431.66L2915.1 1431.46C2795.09 1532.07 2546.02 1616.52 2248.18 1657.56C1915.69 1703.4 1588.37 1688.48 1371.8 1618.24C1212.12 1566.43 1126.04 1488.62 1089.31 1406.26C1054.69 1328.83 1063.26 1247.61 1095.59 1180.25C1140.38 1085.84 1230.97 1012.22 1326.52 992.203C1416.53 973.367 1510.99 1001.84 1619.94 1034.72C1755.53 1075.38 1908.53 1121.66 2101.14 1092.92C2235.69 1072.86 2309.46 1028.36 2375.16 988.898C2432.24 954.528 2481.77 924.669 2557.25 921.623C2651.86 917.491 2767.52 956.383 2860.01 1022.72C2994.57 1119.66 3089.55 1285.03 2915.68 1431.66ZM2918.55 1432.15C2999.95 1363.67 3026.81 1284.84 3005.03 1205.63C3001.66 1192.05 2996.59 1178.6 2989.83 1165.05C2965.23 1113.31 2921.02 1063.68 2862.75 1021.77C2769.64 954.749 2652.84 915.707 2556.55 919.978C2478.83 923.209 2428.75 953.355 2370.59 988.301C2305.43 1027.47 2232.2 1071.68 2099.32 1091.37C1908.93 1119.68 1756.51 1073.59 1622.06 1033.08C1511.95 999.816 1416.93 971.388 1324.7 990.65C1228.04 1011.01 1136.39 1085.44 1091.08 1180.38C1054.01 1258.83 1051.95 1343.65 1089.72 1418.14C1132.9 1503.37 1227.43 1573.92 1368.55 1619.97C1478.88 1655.89 1620.84 1677.78 1779.02 1683.99C1928.13 1689.73 2090.19 1681.26 2248.34 1659.5C2391.95 1639.66 2527.35 1609.3 2641.24 1571.72C2762.81 1531.31 2856.71 1484.19 2918.55 1432.15Z" fill="url(#paint22_linear_155_10839)"/>
<path opacity="0.439" d="M2887.78 1422.28L2887.2 1422.08C2771.42 1519.18 2530.6 1600.77 2242.82 1640.49C1922.06 1684.63 1605.55 1670.53 1396.51 1602.59C1242.62 1552.49 1159.58 1477.34 1123.66 1397.84C1090.39 1323.22 1098.63 1244.71 1129.45 1179.66C1172.81 1088.52 1260.21 1017.36 1352.44 998.1C1439.11 980.025 1530.09 1007.33 1635.55 1039.03C1766.51 1078.37 1914.28 1122.89 2100.22 1095.43C2229.75 1076.27 2301.37 1033.16 2364.93 995.093C2420.4 961.827 2467.77 933.12 2540.99 930.017C2632.22 926.161 2744.36 963.398 2833.28 1027.6C2963.6 1120.99 3055.86 1280.75 2887.78 1422.28ZM2890.65 1422.77C2969.96 1356.41 2995.32 1279.89 2974.32 1203.3C2970.98 1190.19 2965.96 1177.23 2959.82 1164.35C2935.94 1114.51 2893.59 1066.91 2837.13 1026.31C2747.61 961.671 2634.31 924.044 2541.39 928.038C2465.93 931.325 2418.02 960.321 2362.02 994.116C2299.57 1031.85 2228.49 1074.67 2100.08 1093.74C1916.39 1121.01 1769.2 1076.69 1638.82 1037.55C1532.19 1005.45 1440.64 977.953 1351.74 996.455C1258.4 1016.05 1169.93 1087.79 1126.06 1179.69C1089.9 1255.4 1088.16 1337.27 1124.61 1409.44C1166.41 1491.62 1257.35 1559.79 1393.82 1604.27C1500.66 1639.02 1637.47 1660.12 1789.98 1666.06C1933.97 1671.49 2090.42 1663.49 2243.54 1642.38C2382.12 1623.2 2513.08 1593.94 2623.13 1557.64C2740.29 1518.57 2830.93 1473.17 2890.65 1422.77Z" fill="url(#paint23_linear_155_10839)"/>
<path opacity="0.4146" d="M2860.45 1412.85L2859.87 1412.66C2748.32 1506.24 2515.76 1585.2 2238.58 1623.33C1928.99 1665.82 1623.83 1652.24 1422.32 1586.6C1273.67 1538.26 1193.67 1465.78 1159.13 1389.33C1126.64 1317.32 1135.1 1241.46 1164.97 1178.68C1206.91 1090.83 1291.12 1022.12 1380 1003.37C1463.89 985.77 1551.42 1012.38 1653.39 1042.91C1779.72 1080.93 1922.28 1123.93 2101.5 1097.27C2226.57 1078.72 2296.04 1037 2356.89 1000.38C2410.2 968.261 2455.96 940.659 2526.35 937.545C2614.2 933.725 2722.28 969.835 2808.2 1031.85C2933.19 1122.27 3022.15 1276.23 2860.45 1412.85ZM2863.32 1413.35C2939.96 1348.91 2964.39 1274.9 2943.62 1200.96C2940.32 1188.34 2935.33 1175.85 2929.79 1163.42C2906.63 1115.46 2865.57 1069.7 2812.07 1030.8C2725.55 968.35 2616.32 932.091 2526.77 935.808C2454.12 938.864 2407.83 966.996 2353.42 999.444C2293.11 1035.78 2224.18 1077.21 2100.78 1095.39C1923.79 1121.62 1781.25 1078.86 1656.08 1041.23C1553.5 1010.26 1464.85 983.745 1378.72 1001.53C1288.72 1020.37 1202.87 1089.7 1160.98 1178.28C1126.29 1251.19 1124.31 1330.16 1159.44 1400C1199.3 1479.19 1287.22 1544.93 1419.61 1588.04C1522.39 1621.42 1654.62 1641.93 1802.03 1647.56C1940.93 1652.92 2091.74 1645.13 2239.26 1624.73C2373.39 1606.4 2499.35 1578.04 2605.52 1542.79C2717.77 1505.83 2805.14 1461.92 2863.32 1413.35Z" fill="url(#paint24_linear_155_10839)"/>
<path opacity="0.3902" d="M2832.55 1403.47L2831.97 1403.28C2724.67 1493.59 2500.89 1569.4 2233.22 1606.25C1934.81 1647.34 1640.98 1634.05 1447.03 1570.94C1304.17 1524.32 1226.66 1454.56 1193.47 1380.91C1162.33 1311.47 1170.46 1238.55 1198.83 1178.09C1238.78 1093.56 1320.36 1027.25 1405.92 1009.27C1486.48 992.425 1571.08 1017.82 1669 1047.22C1790.68 1083.68 1928.03 1125.16 2101.12 1099.49C2221.71 1081.55 2288.5 1041.51 2347.2 1006.28C2398.34 975.316 2443.06 948.773 2510.64 945.89C2595.12 942.347 2699.7 977.043 2782.03 1036.68C2902.77 1123.56 2987.88 1271.99 2832.55 1403.47ZM2835.41 1403.96C2909.97 1341.64 2932.9 1269.95 2912.9 1198.62C2909.64 1186.48 2905.26 1174.43 2899.2 1162.53C2876.78 1116.7 2837.54 1072.49 2785.88 1035.39C2702.39 975.362 2597.21 940.229 2511.05 943.911C2441.22 946.978 2395.98 974.051 2344.29 1005.3C2286.13 1040.25 2219.89 1079.99 2100.98 1097.8C1930.12 1123.04 1793.37 1081.99 1672.83 1045.69C1573.74 1015.9 1488.56 990.308 1405.78 1007.58C1319.1 1025.65 1236.44 1092.53 1195.98 1177.83C1162.75 1247.95 1160.54 1324.02 1194.89 1391.25C1233.36 1467.38 1317.71 1530.99 1445.44 1572.29C1544.73 1604.5 1671.81 1624.21 1813.56 1629.82C1947.35 1634.87 2092.56 1627.55 2235.04 1607.81C2364.14 1590.13 2485.66 1562.87 2587.98 1528.91C2695.24 1493.09 2779.35 1450.66 2835.41 1403.96Z" fill="url(#paint25_linear_155_10839)"/>
<path opacity="0.3659" d="M2804.65 1394.09L2804.07 1393.9C2700.44 1480.74 2485.47 1553.64 2228.4 1588.89C1941.72 1628.28 1658.67 1615.57 1472.28 1555C1334.65 1510.13 1260.18 1443.04 1228.36 1372.2C1198.56 1305.33 1206.37 1235.36 1233.79 1177.16C1272.3 1095.66 1350.71 1032.05 1432.93 1014.83C1510.17 998.748 1591.86 1023.16 1685.74 1051.44C1802.79 1086.57 1934.93 1126.54 2101.31 1101.91C2217.44 1084.58 2281.54 1046.22 2338.07 1012.14C2387.63 982.523 2430.17 956.888 2495.48 953.949C2577.14 950.395 2677.09 983.769 2756.41 1041.22C2872.36 1124.84 2954.17 1267.47 2804.65 1394.09ZM2807.52 1394.58C2879.41 1334.18 2901.41 1265 2881.63 1196.32C2878.41 1184.67 2874.09 1173.35 2868.63 1161.88C2846.93 1117.94 2809.53 1075.52 2759.7 1039.97C2679.21 982.134 2578.1 948.37 2495.32 952.016C2427.74 954.899 2384.66 980.821 2334.59 1010.97C2278.59 1044.76 2215.03 1082.83 2100.59 1100.02C1936.45 1124.47 1804.89 1084.7 1688.43 1049.76C1593.39 1021.09 1511.11 996.481 1431.09 1013.04C1347.2 1030.64 1268.27 1094.78 1229.24 1176.8C1197.46 1243.88 1195.02 1317.29 1228.05 1382.2C1265.15 1455.28 1345.91 1516.51 1469.01 1556.49C1564.25 1587.57 1686.74 1606.45 1823.38 1611.75C1952.08 1616.73 2091.65 1609.63 2228.54 1590.59C2352.6 1573.57 2469.68 1547.16 2568.17 1514.73C2672.72 1480.35 2753.58 1439.64 2807.52 1394.58Z" fill="url(#paint26_linear_155_10839)"/>
<path opacity="0.3415" d="M2776.75 1384.71L2776.17 1384.51C2676.78 1467.85 2470.05 1537.88 2223.04 1571.82C1947.55 1609.8 1675.85 1597.61 1496.97 1539.11C1364.57 1496 1293.71 1431.53 1262.69 1363.54C1234.25 1299.47 1241.13 1232.01 1267.61 1176.08C1304.7 1097.87 1379.92 1036.7 1458.81 1020.24C1533.26 1004.63 1611.49 1028.12 1701.9 1055.47C1814.32 1089.27 1941.22 1127.48 2100.92 1103.89C2212.59 1087.41 2273.96 1050.25 2328.35 1017.56C2375.74 989.095 2416.65 964.325 2479.18 961.858C2557.47 958.581 2653.35 990.587 2729.65 1045.61C2841.39 1126.18 2920.48 1263.18 2776.75 1384.71ZM2779.62 1385.2C2849.4 1326.68 2869.92 1260.05 2850.36 1194.03C2847.2 1183.1 2842.9 1172.02 2837.48 1161.04C2817.06 1118.93 2780.4 1078.65 2733.52 1044.56C2656.62 989.101 2558.99 956.509 2479.6 960.12C2414.85 963.014 2373.38 987.83 2325.46 1016.83C2271.61 1049.23 2210.76 1085.85 2100.78 1102.2C1943.33 1125.61 1816.44 1087.64 1705.17 1053.98C1613.61 1026.48 1534.8 1002.8 1458.13 1018.84C1377.57 1035.68 1301.83 1097.37 1264.25 1176.35C1233.93 1240.63 1231.25 1311.15 1262.96 1373.73C1298.67 1443.77 1375.85 1502.61 1494.32 1541.27C1586.08 1571.18 1703.42 1589.26 1834.38 1594.3C1957.96 1598.98 2092.46 1592.05 2223.78 1573.95C2343.38 1557.55 2455.46 1532.27 2549.54 1501.18C2650.2 1467.61 2727.79 1428.39 2779.62 1385.2Z" fill="url(#paint27_linear_155_10839)"/>
<path opacity="0.3171" d="M2748.86 1375.33L2748.27 1375.13C2653.11 1454.96 2454.62 1522.12 2218.25 1554.7C1953.92 1591.04 1694.12 1579.32 1522.24 1523.41C1395.65 1482.25 1327.26 1420.25 1298.16 1355.02C1270.5 1293.57 1277.62 1229.01 1303.16 1175.34C1338.82 1100.41 1410.85 1041.7 1486.42 1026C1557.53 1011.15 1632.29 1033.7 1719.2 1059.64C1826.98 1092.12 1948.68 1128.81 2102.22 1105.97C2209.42 1090.1 2268.1 1054.62 2320.35 1023.33C2365.57 996.011 2404.88 972.345 2465.14 969.821C2540.04 966.58 2632.44 997.413 2705.73 1050.25C2810.98 1127.46 2886.76 1258.66 2748.86 1375.33ZM2751.72 1375.82C2818.86 1319.46 2838.43 1255.09 2819.65 1191.69C2816.53 1181.25 2812.27 1170.65 2807.47 1160.34C2787.77 1120.12 2752.96 1081.64 2707.89 1049.1C2634 995.825 2540.46 964.842 2463.86 967.98C2401.92 970.643 2362.07 994.597 2315.76 1022.49C2264.05 1053.5 2205.91 1088.68 2100.39 1104.42C1949.08 1126.84 1827.97 1090.34 1721.34 1058.24C1633.84 1031.87 1557.93 1009.17 1484.59 1024.44C1407.36 1040.53 1334.81 1099.77 1298.65 1175.47C1269.24 1237 1266.88 1304.57 1297.25 1364.59C1331.02 1431.62 1405.17 1488.03 1518.99 1525.13C1606.68 1553.68 1719.45 1571.16 1845.32 1576.13C1963.81 1580.74 2092.68 1574.03 2218.97 1556.59C2333.53 1540.84 2441.17 1516.66 2531.39 1486.62C2627.66 1454.62 2702.58 1417.32 2751.72 1375.82Z" fill="url(#paint28_linear_155_10839)"/>
<path opacity="0.2927" d="M2720.93 1365.71C2629.45 1442.07 2439.76 1506.32 2212.88 1537.63C1960.29 1572.27 1711.27 1561.13 1546.39 1507.8C1425.03 1468.4 1359.68 1409.07 1331.94 1346.65C1305.62 1287.76 1312.4 1225.91 1336.46 1174.79C1370.69 1103.14 1439.53 1046.88 1511.77 1031.94C1580.1 1017.56 1651.39 1039.19 1734.83 1064.19C1837.96 1095.11 1954.45 1130.29 2101.31 1108.72C2203.48 1093.51 2260.04 1059.67 2310.12 1029.52C2353.74 1003.31 2390.88 980.795 2448.32 978.26C2519.85 975.296 2608.15 1004.52 2678.44 1055.17C2780.56 1128.74 2853.06 1254.38 2720.93 1365.71ZM2723.82 1366.44C2788.85 1311.96 2806.94 1250.14 2788.4 1189.64C2785.32 1179.68 2781.66 1169.52 2776.89 1159.7C2757.92 1121.36 2724.38 1084.72 2681.73 1053.93C2610.84 1002.84 2521.37 973.225 2448.16 976.327C2388.46 978.805 2350.79 1001.85 2306.63 1028.35C2257.07 1057.96 2201.08 1091.76 2100.57 1106.59C1955.96 1127.97 1840.07 1093.24 1737.49 1062.27C1653.48 1037.07 1581.04 1015.3 1510.47 1029.86C1436.58 1045.42 1366.64 1102.01 1332.47 1174.39C1304.52 1233.12 1302.49 1297.75 1331.53 1355.44C1363.92 1419.43 1434.51 1473.7 1543.68 1509.24C1627.88 1536.61 1736.06 1553.25 1856.25 1557.96C1969.64 1562.26 2092.89 1556.01 2213.58 1539.27C2323.11 1524.18 2426.33 1501.1 2512.69 1472.35C2605.13 1441.88 2676.78 1406.07 2723.82 1366.44Z" fill="url(#paint29_linear_155_10839)"/>
<path opacity="0.2683" d="M2693.04 1356.32C2605.78 1429.18 2424.33 1490.56 2208.08 1520.51C1966.68 1553.74 1729.01 1543.13 1571.64 1491.86C1456.07 1454.17 1393.23 1397.8 1366.83 1337.95C1341.85 1281.62 1348.31 1222.71 1371.4 1173.62C1404.2 1105.25 1469.86 1051.44 1538.75 1037.02C1603.75 1023.4 1672.13 1044.05 1751.52 1067.92C1850.03 1097.52 1961.87 1131.14 2101.45 1110.41C2199.15 1095.81 2253 1063.41 2300.95 1034.9C2342.41 1009.84 2378.51 988.381 2433.13 986.077C2501.84 983.102 2585.53 1011.25 2652.8 1059.47C2750.15 1130.03 2819.35 1249.85 2693.04 1356.32ZM2695.92 1357.06C2758.31 1304.74 2775.45 1245.19 2757.69 1187.3C2754.65 1177.82 2751.05 1168.39 2746.3 1158.81C2728.05 1122.36 2696.36 1087.51 2656.1 1058.47C2588.24 1009.81 2502.82 981.318 2433 984.386C2376.12 986.874 2339.5 1008.86 2297.5 1034.21C2250.11 1062.67 2196.8 1094.79 2100.77 1109.01C1962.87 1129.59 1852.18 1096.13 1754.25 1066.73C1674.28 1042.66 1604.75 1021.86 1537.52 1035.9C1466.97 1050.71 1400.21 1104.85 1367.47 1173.95C1340.99 1229.88 1338.72 1291.61 1366.44 1346.98C1397.45 1407.91 1464.45 1459.81 1569.53 1493.73C1650.24 1519.93 1753.27 1535.78 1867.79 1540.23C1976.08 1544.46 2093.7 1538.43 2209.37 1522.35C2314.42 1507.87 2412.65 1485.93 2495.16 1458.47C2582.04 1429.18 2650.99 1394.81 2695.92 1357.06Z" fill="url(#paint30_linear_155_10839)"/>
<path opacity="0.2439" d="M2665.14 1346.94C2581.57 1416.57 2408.93 1475.04 2203.29 1503.39C1973.04 1534.98 1746.72 1524.89 1596.91 1476.16C1486.58 1440.23 1426.77 1386.53 1401.74 1329.48C1377.56 1276.01 1383.67 1219.8 1405.82 1172.98C1436.62 1107.69 1499.12 1056.82 1565.22 1042.87C1626.9 1030.01 1692.36 1049.44 1767.7 1072.19C1861.58 1100.47 1968.18 1132.32 2101.63 1112.59C2194.88 1098.84 2246.58 1067.83 2291.81 1040.51C2331.11 1016.85 2365.59 996.254 2417.39 993.939C2482.73 991.241 2562.92 1017.97 2626.59 1063.81C2719.18 1131.36 2785.09 1245.62 2665.14 1346.94ZM2668.02 1347.68C2728.3 1297.23 2743.96 1240.24 2726.42 1185.01C2723.42 1176.01 2719.85 1167.06 2715.73 1158.16C2698.2 1123.6 2668.35 1090.54 2629.92 1063.05C2565.62 1016.53 2484.27 989.412 2417.27 992.49C2363.21 994.748 2328.19 1015.63 2287.8 1039.87C2243.11 1066.9 2191.95 1097.62 2100.39 1111.23C1968.62 1130.82 1863.14 1098.88 1769.86 1071.04C1693.38 1048.14 1627.32 1028.27 1563.42 1041.56C1496.19 1055.6 1432.63 1107.29 1401.31 1173.11C1376.29 1226.25 1373.78 1285.08 1400.17 1337.88C1429.23 1395.81 1493.77 1445.24 1593.66 1477.88C1670.32 1502.96 1768.76 1517.97 1878.19 1522.35C1981.37 1526.27 2093.38 1520.7 2203.44 1505.32C2303.47 1491.5 2397.24 1470.41 2475.93 1444.48C2559.52 1416.44 2625.22 1383.79 2668.02 1347.68Z" fill="url(#paint31_linear_155_10839)"/>
<path opacity="0.2195" d="M2637.24 1337.56C2557.91 1403.68 2394.06 1459.24 2197.92 1486.32C1979.43 1516.45 1763.87 1506.69 1621.62 1460.5C1516.51 1426.34 1460.32 1375.26 1436.08 1321.06C1413.25 1270.15 1419.02 1216.65 1440.24 1172.34C1469.61 1110.33 1528.93 1061.91 1591.7 1048.72C1650.59 1036.33 1712.6 1055.07 1784.45 1076.65C1873.7 1103.6 1975.1 1133.94 2101.83 1115C2190.6 1101.86 2239.6 1072.29 2282.68 1046.37C2320.38 1023.81 2352.69 1004.37 2402.25 1002.24C2464.2 999.575 2540.32 1024.94 2601.01 1068.84C2688.75 1132.4 2751.39 1241.33 2637.24 1337.56ZM2640.12 1338.3C2697.75 1290.02 2712.47 1235.29 2695.15 1182.72C2692.75 1174.16 2689.22 1165.69 2684.58 1157.32C2667.76 1124.64 2639.22 1093.67 2603.17 1067.69C2541.9 1023.59 2464.62 997.838 2400.97 1000.4C2349.17 1002.71 2316.31 1022.44 2278.09 1045.53C2235.55 1071.17 2187.1 1100.45 2099.98 1113.21C1974.92 1131.77 1874.67 1101.58 1786 1074.82C1713.54 1052.8 1650.41 1034.16 1589.28 1046.73C1525.38 1060.01 1465 1109.25 1435.11 1171.79C1410.99 1222.18 1408.81 1278.06 1434.43 1328.49C1462.12 1383.38 1523.07 1430.42 1618.31 1461.5C1691.46 1485.16 1784.77 1499.62 1888.53 1503.74C1986.61 1507.59 2092.97 1502 2198.02 1487.53C2293.02 1474.36 2382.36 1454.36 2457.17 1429.48C2537 1403.7 2599.42 1372.54 2640.12 1338.3Z" fill="url(#paint32_linear_155_10839)"/>
<path opacity="0.1951" d="M2609.34 1328.18C2534.24 1390.79 2378.64 1443.48 2193.11 1468.96C1985.78 1497.44 1781.57 1488.21 1646.85 1444.32C1547.54 1411.87 1493.83 1363.5 1470.95 1312.11C1449.46 1263.77 1454.91 1213.21 1474.62 1171.21C1502.57 1112.48 1558.69 1066.51 1618.14 1054.08C1673.7 1042.46 1732.79 1059.98 1800.61 1080.67C1885.21 1106.06 1981.39 1134.88 2101.45 1117.23C2185.75 1104.7 2232.06 1076.81 2272.99 1052.28C2308.53 1030.87 2339.22 1012.29 2385.97 1010.39C2444.53 1007.76 2517.16 1031.95 2574.26 1073.47C2658.34 1133.69 2717.68 1236.81 2609.34 1328.18ZM2612.79 1328.87C2668.31 1282.47 2681.54 1230.3 2665 1180.33C2662.64 1172.26 2659.16 1164.27 2655.13 1156.58C2639.04 1125.79 2612.34 1096.61 2578.67 1072.14C2520.41 1030.22 2447.19 1005.84 2386.93 1008.36C2337.94 1010.45 2306.71 1029.31 2270.09 1051.3C2229.7 1075.54 2183.93 1103.14 2101.31 1115.53C1982.94 1133.05 1887.9 1104.38 1803.88 1079.19C1734.91 1058.35 1675.25 1040.63 1617.46 1052.68C1556.91 1065.45 1499.14 1112.04 1471.25 1171.49C1448.61 1219.08 1446.2 1272.31 1470.49 1320.18C1496.79 1372.01 1554.17 1416.92 1644.76 1446.44C1713.87 1468.97 1802.58 1482.59 1901.23 1486.4C1994.21 1489.94 2094.95 1484.82 2194.97 1470.99C2284.93 1458.49 2369.84 1439.58 2440.8 1415.99C2514.48 1390.96 2573.63 1361.28 2612.79 1328.87Z" fill="url(#paint33_linear_155_10839)"/>
<path opacity="0.1707" d="M2581.44 1318.8C2510.57 1377.9 2363.77 1427.68 2187.75 1451.89C1991.61 1478.97 1798.74 1470.26 1671.56 1428.67C1577.48 1397.97 1526.81 1352.28 1505.3 1303.69C1484.6 1258.21 1490.25 1210.07 1509.02 1170.33C1535.54 1114.88 1588.48 1071.36 1644.6 1059.69C1697.39 1048.78 1752.45 1065.42 1816.76 1084.7C1896.73 1108.77 1987.71 1136.07 2101.6 1119.16C2181.44 1107.24 2225.06 1081.03 2263.83 1057.65C2297.2 1037.4 2326.28 1019.92 2370.77 1017.97C2426.52 1015.57 2494.52 1038.44 2548.6 1077.53C2627.92 1134.98 2683.98 1232.53 2581.44 1318.8ZM2584.89 1319.49C2637.75 1275.01 2650.05 1225.35 2633.73 1178.04C2631.41 1170.45 2627.98 1163.19 2624.54 1155.69C2609.17 1126.79 2583.75 1099.45 2552.49 1076.72C2497.81 1037.19 2428.08 1013.98 2371.21 1016.47C2325.04 1018.57 2295.42 1036.33 2260.94 1056.92C2222.72 1080.01 2179.07 1105.98 2101.46 1117.47C1989.23 1134 1899.42 1107.09 1820.03 1083.21C1754.55 1063.54 1698.35 1046.76 1643.9 1058.05C1586.68 1070.05 1532.1 1114.19 1505.63 1170.37C1484.43 1214.92 1481.81 1265.49 1504.75 1310.79C1529.67 1359.58 1583.47 1402.1 1669.41 1430.06C1735.03 1451.42 1818.59 1464.25 1911.59 1468.03C1999.47 1471.51 2094.58 1466.61 2189.03 1453.73C2274.54 1442.07 2354.44 1424.07 2421.55 1401.77C2491.95 1378.22 2547.86 1350.27 2584.89 1319.49Z" fill="url(#paint34_linear_155_10839)"/>
<path opacity="0.1463" d="M2553.55 1309.42C2486.93 1365.25 2348.37 1412.16 2182.95 1434.77C1998.54 1460.15 1816.46 1452.02 1696.27 1413.01C1608 1384.27 1559.8 1341.05 1539.64 1295.27C1520.29 1252.35 1525.05 1207.2 1542.88 1169.73C1567.96 1117.32 1617.72 1076.5 1670.52 1065.59C1719.96 1055.2 1772.11 1070.85 1832.96 1089.2C1908.3 1111.95 1994.04 1137.49 2101.24 1121.62C2176.07 1110.6 2217.52 1085.54 2254.14 1063.56C2285.91 1044.4 2313.39 1028.04 2354.5 1026.36C2406.87 1024 2470.8 1045.49 2521.87 1082.4C2596.95 1136.31 2650.27 1228 2553.55 1309.42ZM2556.99 1310.11C2607.76 1267.74 2618.56 1220.4 2603.02 1175.7C2600.74 1168.59 2597.91 1161.77 2593.97 1155.04C2579.32 1128.03 2555.74 1102.48 2526.33 1081.55C2474.65 1044.2 2408.99 1022.36 2355.51 1024.81C2311.58 1026.72 2283.59 1043.62 2251.28 1063.06C2215.2 1084.76 2174.26 1109.29 2101.12 1120.17C1995.61 1135.9 1910.99 1110.27 1836.25 1087.96C1774.82 1069.41 1721.52 1053.61 1669.86 1064.43C1615.96 1075.67 1564.57 1117.36 1539.53 1170.25C1519.8 1212.01 1516.94 1259.68 1538.56 1302.66C1561.54 1348.44 1612.31 1388.54 1693.62 1415.18C1755.19 1435.41 1834.16 1447.4 1922.05 1450.87C2004.82 1454.04 2094.87 1449.55 2183.73 1437.38C2264.2 1426.38 2339.67 1409.47 2402.37 1388.5C2469.43 1365.47 2522.07 1339.01 2556.99 1310.11Z" fill="url(#paint35_linear_155_10839)"/>
<path opacity="0.122" d="M2525.65 1300.04C2463.26 1352.36 2332.95 1396.4 2178.15 1417.65C2004.91 1441.38 1834.17 1433.78 1721.52 1397.07C1638.48 1370.09 1593.89 1329.48 1574.53 1286.56C1556.52 1246.21 1560.96 1204 1577.84 1168.8C1600.93 1119.71 1648.07 1081.3 1697.51 1070.9C1743.63 1061.27 1792.87 1075.95 1849.65 1092.93C1920.36 1114.36 2000.89 1138.38 2101.4 1123.55C2171.75 1113.14 2210.52 1089.76 2245 1069.17C2274.62 1051.41 2300.47 1035.91 2339.32 1034.17C2388.32 1032.09 2448.74 1052.17 2496.23 1086.7C2566.54 1137.59 2616.01 1223.76 2525.65 1300.04ZM2529.09 1300.73C2577.19 1260.28 2587.07 1215.44 2571.74 1173.41C2569.52 1167.02 2566.72 1160.44 2563.38 1154.15C2550.01 1128.98 2527.73 1105.51 2500.68 1085.84C2452.01 1050.68 2390.44 1030.45 2340.3 1032.39C2299.19 1034.07 2272.79 1049.86 2242.65 1068.15C2208.72 1088.45 2170.49 1111.54 2101.82 1121.81C2003 1136.51 1923.61 1112.63 1853.48 1091.4C1795.54 1074.03 1745.71 1059.16 1697.37 1069.21C1646.83 1079.94 1598.61 1118.93 1575 1168.55C1556.73 1207.51 1553.63 1252.28 1574.49 1292.89C1596.09 1335.63 1643.27 1373.34 1720.49 1398.37C1778.55 1417.19 1852.4 1428.63 1934.61 1431.84C2012.29 1434.94 2096.71 1430.67 2179.97 1419.2C2255.41 1408.86 2325.87 1392.85 2385.28 1373.12C2446.9 1352.73 2496.86 1327.94 2529.09 1300.73Z" fill="url(#paint36_linear_155_10839)"/>
<path opacity="0.097561" d="M2497.75 1290.66C2439.03 1339.52 2318.08 1380.6 2172.79 1400.58C2010.73 1422.91 1851.33 1415.58 1746.22 1381.42C1668.42 1356.2 1626.87 1318.26 1608.9 1278.39C1592.23 1240.6 1596.32 1201.1 1611.7 1168.21C1633.37 1122.4 1677.32 1086.44 1723.43 1076.8C1766.76 1067.65 1812.56 1081.64 1865.29 1097.49C1931.35 1117.35 2006.67 1139.86 2101.04 1126.02C2166.92 1116.22 2203 1094.52 2235.31 1075.08C2262.76 1058.47 2287.01 1044.07 2323.62 1042.52C2369.23 1040.47 2425.6 1059.43 2470.65 1091.72C2536.13 1138.88 2582.3 1219.24 2497.75 1290.66ZM2501.19 1291.35C2547.21 1253.02 2555.58 1210.5 2540.47 1171.12C2538.29 1165.22 2535.53 1159.12 2532.23 1153.31C2519.57 1130.02 2498.58 1108.4 2473.94 1090.48C2428.29 1057.75 2370.77 1038.64 2323.46 1040.59C2285.17 1042.28 2260.38 1056.96 2231.84 1074.15C2200.05 1093.06 2164.53 1114.71 2100.32 1124.13C2008.19 1137.79 1934.01 1115.43 1867.97 1095.81C1814.08 1079.56 1767.16 1065.67 1721.59 1075.01C1673.81 1085.02 1628.78 1121.56 1607.15 1167.86C1589.79 1204.07 1587.01 1245.89 1606.53 1283.93C1626.75 1323.62 1670.36 1359.2 1742.94 1382.66C1797.51 1400.31 1866.77 1410.91 1943.3 1413.86C2015.87 1416.65 2094.66 1412.6 2172.91 1402.03C2243.88 1392.3 2309.34 1377.43 2364.91 1358.99C2424.36 1339.75 2471.07 1316.69 2501.19 1291.35Z" fill="url(#paint37_linear_155_10839)"/>
<path opacity="0.0731707" d="M2469.85 1281.28C2415.39 1326.86 2302.68 1365.08 2167.99 1383.46C2017.67 1404.09 1869.06 1397.58 1771.5 1365.72C1699.49 1342.21 1660.42 1306.99 1643.81 1269.92C1627.94 1234.98 1632.25 1198.14 1646.69 1167.52C1666.93 1124.99 1707.69 1091.48 1750.47 1082.6C1790.47 1074.21 1833.34 1086.98 1882.61 1101.9C1944.04 1120.44 2014.15 1141.43 2101.8 1128.38C2163.21 1119.2 2197.14 1098.89 2226.77 1081.13C2252.62 1065.63 2274.68 1052.14 2308.48 1050.82C2350.72 1049.05 2403.03 1066.63 2445.05 1096.5C2505.72 1140.16 2548.6 1214.96 2469.85 1281.28ZM2473.3 1281.96C2516.65 1245.56 2524.09 1205.54 2509.79 1169.02C2507.64 1163.6 2504.94 1158.23 2502.24 1152.85C2490.31 1131.46 2471.16 1111.63 2448.33 1095.26C2406.26 1064.67 2352.24 1046.97 2308.32 1048.88C2272.28 1050.39 2249.67 1064.17 2223.3 1080.2C2194.24 1097.92 2160.85 1117.93 2101.1 1126.74C2015.11 1139.41 1946.16 1118.81 1885.31 1100.46C1834.91 1085.39 1791.46 1072.42 1749.23 1081.25C1704.78 1090.5 1662.92 1124.35 1642.74 1167.6C1626.84 1201.02 1624.38 1239.9 1642.02 1275.66C1660.32 1312.59 1700.89 1345.5 1768.81 1367.4C1819.34 1383.92 1884 1393.68 1955.45 1396.56C2022.92 1399.28 2096.08 1395.45 2169.29 1385.54C2235.23 1376.47 2296.27 1362.69 2347.98 1345.54C2401.84 1327 2445.28 1305.43 2473.3 1281.96Z" fill="url(#paint38_linear_155_10839)"/>
<path opacity="0.0487805" d="M2441.95 1271.89C2391.72 1313.97 2287.25 1349.32 2162.63 1366.38C2023.49 1385.61 1886.77 1379.34 1796.18 1349.82C1729.4 1328.07 1693.38 1295.52 1678.13 1261.26C1663.6 1228.89 1667.57 1194.75 1680.52 1166.68C1699.32 1127.19 1736.93 1096.61 1776.36 1088.26C1813.6 1080.57 1853 1092.41 1898.2 1105.97C1955 1123.19 2019.89 1142.66 2100.83 1130.41C2157.79 1122.07 2189.02 1103.21 2216.47 1086.6C2240.16 1072.25 2260.62 1059.86 2292.15 1058.48C2331.56 1056.7 2379.81 1072.92 2418.26 1100.65C2474.74 1141.49 2514.9 1210.68 2441.95 1271.89ZM2445.4 1272.58C2486.1 1238.34 2492.6 1200.59 2478.51 1166.72C2476.41 1161.79 2474.31 1156.85 2471.64 1151.96C2460.43 1132.45 2442.56 1114.46 2422.71 1099.8C2383.66 1071.63 2333.69 1055.07 2293.15 1056.94C2259.94 1058.46 2238.94 1071.13 2214.15 1085.82C2187.23 1102.14 2156.55 1120.72 2101.27 1128.91C2022 1140.78 1958.25 1121.46 1902.03 1104.44C1855.67 1090.49 1815.1 1078.26 1776.22 1086.57C1735.1 1095.06 1696.43 1126.45 1677.7 1166.67C1663.26 1197.29 1660.57 1233.27 1677.44 1266.67C1694.36 1300.54 1731.34 1331.07 1794.64 1351.65C1841.68 1367 1901.19 1375.97 1966.96 1378.58C2029.32 1380.99 2096.87 1377.63 2164.49 1368.42C2225.4 1360 2282 1347.32 2329.86 1331.46C2379.31 1314.26 2419.5 1294.42 2445.4 1272.58Z" fill="url(#paint39_linear_155_10839)"/>
<path opacity="0.0243902" d="M2414.05 1262.52C2368.06 1301.08 2272.39 1333.52 2157.83 1349.27C2029.86 1366.85 1904.49 1361.11 1821.46 1334.12C1760.47 1314.09 1726.93 1284.25 1713.04 1252.8C1699.85 1222.99 1702.94 1191.84 1715.51 1166C1732.88 1129.79 1767.3 1101.66 1803.41 1094.07C1837.29 1086.9 1873.23 1097.81 1915.52 1110.39C1967.69 1126.28 2027.35 1144 2102.18 1132.98C2154.66 1125.26 2183.18 1107.83 2208.49 1092.61C2230.58 1079.36 2249.43 1068.08 2277.59 1066.98C2313.64 1065.48 2357.81 1080.33 2393.24 1105.63C2444.33 1142.78 2481.19 1206.16 2414.05 1262.52ZM2417.5 1263.21C2456.09 1230.84 2460.55 1195.69 2447.24 1164.44C2445.18 1159.98 2443.12 1155.53 2440.51 1151.37C2430.02 1133.74 2414.02 1117.79 2395.98 1104.68C2359.94 1078.7 2314.62 1063.69 2276.87 1065.1C2246.46 1066.38 2226.53 1078.24 2204.47 1091.73C2179.7 1106.66 2151.14 1123.6 2100.9 1131.14C2028.32 1141.97 1969.79 1124.41 1917.64 1108.75C1874.77 1095.98 1837.67 1084.68 1801.56 1092.27C1763.79 1100.24 1728.29 1128.95 1710.98 1165.89C1698.01 1193.71 1695.08 1226.79 1710.61 1257.62C1726.15 1288.45 1759.54 1316.59 1818.21 1335.85C1861.18 1349.83 1916.12 1358.2 1976.78 1360.51C2034.03 1362.61 2095.96 1359.71 2158.55 1351.15C2214.99 1343.35 2266.58 1331.57 2310.59 1317C2356.79 1301.52 2393.71 1283.16 2417.5 1263.21Z" fill="url(#paint40_linear_155_10839)"/>
<defs>
<linearGradient id="paint0_linear_155_10839" x1="1694.79" y1="724.27" x2="1899.64" y2="2104.77" gradientUnits="userSpaceOnUse">
<stop offset="0.0111732" stop-color="#A7E304"/>
<stop offset="0.338" stop-color="#6EF07B" stop-opacity="0"/>
<stop offset="0.6536" stop-color="#00FFC2"/>
<stop offset="1" stop-color="#00FFC2" stop-opacity="0"/>
</linearGradient>
<linearGradient id="paint1_linear_155_10839" x1="3661.7" y1="1274.46" x2="329.392" y2="1548.55" gradientUnits="userSpaceOnUse">
<stop offset="0.0111732" stop-color="#A7E304"/>
<stop offset="0.338" stop-color="#6EF07B" stop-opacity="0"/>
<stop offset="0.6536" stop-color="#00FFC2"/>
<stop offset="1" stop-color="#00FFC2" stop-opacity="0"/>
</linearGradient>
<linearGradient id="paint2_linear_155_10839" x1="3630.69" y1="1272.12" x2="364.593" y2="1540.76" gradientUnits="userSpaceOnUse">
<stop offset="0.0111732" stop-color="#A7E304"/>
<stop offset="0.338" stop-color="#6EF07B" stop-opacity="0"/>
<stop offset="0.6536" stop-color="#00FFC2"/>
<stop offset="1" stop-color="#00FFC2" stop-opacity="0"/>
</linearGradient>
<linearGradient id="paint3_linear_155_10839" x1="3599.68" y1="1269.78" x2="399.801" y2="1532.97" gradientUnits="userSpaceOnUse">
<stop offset="0.0111732" stop-color="#A7E304"/>
<stop offset="0.338" stop-color="#6EF07B" stop-opacity="0"/>
<stop offset="0.6536" stop-color="#00FFC2"/>
<stop offset="1" stop-color="#00FFC2" stop-opacity="0"/>
</linearGradient>
<linearGradient id="paint4_linear_155_10839" x1="3568.67" y1="1267.43" x2="435.004" y2="1525.18" gradientUnits="userSpaceOnUse">
<stop offset="0.0111732" stop-color="#A7E304"/>
<stop offset="0.338" stop-color="#6EF07B" stop-opacity="0"/>
<stop offset="0.6536" stop-color="#00FFC2"/>
<stop offset="1" stop-color="#00FFC2" stop-opacity="0"/>
</linearGradient>
<linearGradient id="paint5_linear_155_10839" x1="3537.67" y1="1265.09" x2="470.208" y2="1517.39" gradientUnits="userSpaceOnUse">
<stop offset="0.0111732" stop-color="#A7E304"/>
<stop offset="0.338" stop-color="#6EF07B" stop-opacity="0"/>
<stop offset="0.6536" stop-color="#00FFC2"/>
<stop offset="1" stop-color="#00FFC2" stop-opacity="0"/>
</linearGradient>
<linearGradient id="paint6_linear_155_10839" x1="3506.66" y1="1262.75" x2="505.411" y2="1509.6" gradientUnits="userSpaceOnUse">
<stop offset="0.0111732" stop-color="#A7E304"/>
<stop offset="0.338" stop-color="#6EF07B" stop-opacity="0"/>
<stop offset="0.6536" stop-color="#00FFC2"/>
<stop offset="1" stop-color="#00FFC2" stop-opacity="0"/>
</linearGradient>
<linearGradient id="paint7_linear_155_10839" x1="3475.65" y1="1260.41" x2="540.613" y2="1501.82" gradientUnits="userSpaceOnUse">
<stop offset="0.0111732" stop-color="#A7E304"/>
<stop offset="0.338" stop-color="#6EF07B" stop-opacity="0"/>
<stop offset="0.6536" stop-color="#00FFC2"/>
<stop offset="1" stop-color="#00FFC2" stop-opacity="0"/>
</linearGradient>
<linearGradient id="paint8_linear_155_10839" x1="3444.64" y1="1258.07" x2="575.818" y2="1494.03" gradientUnits="userSpaceOnUse">
<stop offset="0.0111732" stop-color="#A7E304"/>
<stop offset="0.338" stop-color="#6EF07B" stop-opacity="0"/>
<stop offset="0.6536" stop-color="#00FFC2"/>
<stop offset="1" stop-color="#00FFC2" stop-opacity="0"/>
</linearGradient>
<linearGradient id="paint9_linear_155_10839" x1="3413.63" y1="1255.72" x2="611.021" y2="1486.24" gradientUnits="userSpaceOnUse">
<stop offset="0.0111732" stop-color="#A7E304"/>
<stop offset="0.338" stop-color="#6EF07B" stop-opacity="0"/>
<stop offset="0.6536" stop-color="#00FFC2"/>
<stop offset="1" stop-color="#00FFC2" stop-opacity="0"/>
</linearGradient>
<linearGradient id="paint10_linear_155_10839" x1="3382.63" y1="1253.38" x2="646.225" y2="1478.45" gradientUnits="userSpaceOnUse">
<stop offset="0.0111732" stop-color="#A7E304"/>
<stop offset="0.338" stop-color="#6EF07B" stop-opacity="0"/>
<stop offset="0.6536" stop-color="#00FFC2"/>
<stop offset="1" stop-color="#00FFC2" stop-opacity="0"/>
</linearGradient>
<linearGradient id="paint11_linear_155_10839" x1="3351.62" y1="1251.04" x2="681.425" y2="1470.66" gradientUnits="userSpaceOnUse">
<stop offset="0.0111732" stop-color="#A7E304"/>
<stop offset="0.338" stop-color="#6EF07B" stop-opacity="0"/>
<stop offset="0.6536" stop-color="#00FFC2"/>
<stop offset="1" stop-color="#00FFC2" stop-opacity="0"/>
</linearGradient>
<linearGradient id="paint12_linear_155_10839" x1="3320.62" y1="1248.69" x2="716.63" y2="1462.87" gradientUnits="userSpaceOnUse">
<stop offset="0.0111732" stop-color="#A7E304"/>
<stop offset="0.338" stop-color="#6EF07B" stop-opacity="0"/>
<stop offset="0.6536" stop-color="#00FFC2"/>
<stop offset="1" stop-color="#00FFC2" stop-opacity="0"/>
</linearGradient>
<linearGradient id="paint13_linear_155_10839" x1="3289.61" y1="1246.35" x2="751.834" y2="1455.09" gradientUnits="userSpaceOnUse">
<stop offset="0.0111732" stop-color="#A7E304"/>
<stop offset="0.338" stop-color="#6EF07B" stop-opacity="0"/>
<stop offset="0.6536" stop-color="#00FFC2"/>
<stop offset="1" stop-color="#00FFC2" stop-opacity="0"/>
</linearGradient>
<linearGradient id="paint14_linear_155_10839" x1="3258.61" y1="1244.01" x2="787.035" y2="1447.3" gradientUnits="userSpaceOnUse">
<stop offset="0.0111732" stop-color="#A7E304"/>
<stop offset="0.338" stop-color="#6EF07B" stop-opacity="0"/>
<stop offset="0.6536" stop-color="#00FFC2"/>
<stop offset="1" stop-color="#00FFC2" stop-opacity="0"/>
</linearGradient>
<linearGradient id="paint15_linear_155_10839" x1="3227.61" y1="1241.67" x2="822.24" y2="1439.51" gradientUnits="userSpaceOnUse">
<stop offset="0.0111732" stop-color="#A7E304"/>
<stop offset="0.338" stop-color="#6EF07B" stop-opacity="0"/>
<stop offset="0.6536" stop-color="#00FFC2"/>
<stop offset="1" stop-color="#00FFC2" stop-opacity="0"/>
</linearGradient>
<linearGradient id="paint16_linear_155_10839" x1="3196.61" y1="1239.33" x2="857.441" y2="1431.72" gradientUnits="userSpaceOnUse">
<stop offset="0.0111732" stop-color="#A7E304"/>
<stop offset="0.338" stop-color="#6EF07B" stop-opacity="0"/>
<stop offset="0.6536" stop-color="#00FFC2"/>
<stop offset="1" stop-color="#00FFC2" stop-opacity="0"/>
</linearGradient>
<linearGradient id="paint17_linear_155_10839" x1="3165.61" y1="1236.98" x2="892.649" y2="1423.93" gradientUnits="userSpaceOnUse">
<stop offset="0.0111732" stop-color="#A7E304"/>
<stop offset="0.338" stop-color="#6EF07B" stop-opacity="0"/>
<stop offset="0.6536" stop-color="#00FFC2"/>
<stop offset="1" stop-color="#00FFC2" stop-opacity="0"/>
</linearGradient>
<linearGradient id="paint18_linear_155_10839" x1="3134.61" y1="1234.64" x2="927.85" y2="1416.15" gradientUnits="userSpaceOnUse">
<stop offset="0.0111732" stop-color="#A7E304"/>
<stop offset="0.338" stop-color="#6EF07B" stop-opacity="0"/>
<stop offset="0.6536" stop-color="#00FFC2"/>
<stop offset="1" stop-color="#00FFC2" stop-opacity="0"/>
</linearGradient>
<linearGradient id="paint19_linear_155_10839" x1="3103.61" y1="1232.3" x2="963.051" y2="1408.36" gradientUnits="userSpaceOnUse">
<stop offset="0.0111732" stop-color="#A7E304"/>
<stop offset="0.338" stop-color="#6EF07B" stop-opacity="0"/>
<stop offset="0.6536" stop-color="#00FFC2"/>
<stop offset="1" stop-color="#00FFC2" stop-opacity="0"/>
</linearGradient>
<linearGradient id="paint20_linear_155_10839" x1="3072.62" y1="1229.95" x2="998.257" y2="1400.57" gradientUnits="userSpaceOnUse">
<stop offset="0.0111732" stop-color="#A7E304"/>
<stop offset="0.338" stop-color="#6EF07B" stop-opacity="0"/>
<stop offset="0.6536" stop-color="#00FFC2"/>
<stop offset="1" stop-color="#00FFC2" stop-opacity="0"/>
</linearGradient>
<linearGradient id="paint21_linear_155_10839" x1="3041.62" y1="1227.61" x2="1033.46" y2="1392.78" gradientUnits="userSpaceOnUse">
<stop offset="0.0111732" stop-color="#A7E304"/>
<stop offset="0.338" stop-color="#6EF07B" stop-opacity="0"/>
<stop offset="0.6536" stop-color="#00FFC2"/>
<stop offset="1" stop-color="#00FFC2" stop-opacity="0"/>
</linearGradient>
<linearGradient id="paint22_linear_155_10839" x1="3010.63" y1="1225.26" x2="1068.66" y2="1384.99" gradientUnits="userSpaceOnUse">
<stop offset="0.0111732" stop-color="#A7E304"/>
<stop offset="0.338" stop-color="#6EF07B" stop-opacity="0"/>
<stop offset="0.6536" stop-color="#00FFC2"/>
<stop offset="1" stop-color="#00FFC2" stop-opacity="0"/>
</linearGradient>
<linearGradient id="paint23_linear_155_10839" x1="2979.64" y1="1222.92" x2="1103.86" y2="1377.2" gradientUnits="userSpaceOnUse">
<stop offset="0.0111732" stop-color="#A7E304"/>
<stop offset="0.338" stop-color="#6EF07B" stop-opacity="0"/>
<stop offset="0.6536" stop-color="#00FFC2"/>
<stop offset="1" stop-color="#00FFC2" stop-opacity="0"/>
</linearGradient>
<linearGradient id="paint24_linear_155_10839" x1="2948.66" y1="1220.58" x2="1139.07" y2="1369.42" gradientUnits="userSpaceOnUse">
<stop offset="0.0111732" stop-color="#A7E304"/>
<stop offset="0.338" stop-color="#6EF07B" stop-opacity="0"/>
<stop offset="0.6536" stop-color="#00FFC2"/>
<stop offset="1" stop-color="#00FFC2" stop-opacity="0"/>
</linearGradient>
<linearGradient id="paint25_linear_155_10839" x1="2917.67" y1="1218.23" x2="1174.27" y2="1361.63" gradientUnits="userSpaceOnUse">
<stop offset="0.0111732" stop-color="#A7E304"/>
<stop offset="0.338" stop-color="#6EF07B" stop-opacity="0"/>
<stop offset="0.6536" stop-color="#00FFC2"/>
<stop offset="1" stop-color="#00FFC2" stop-opacity="0"/>
</linearGradient>
<linearGradient id="paint26_linear_155_10839" x1="2886.69" y1="1215.89" x2="1209.48" y2="1353.84" gradientUnits="userSpaceOnUse">
<stop offset="0.0111732" stop-color="#A7E304"/>
<stop offset="0.338" stop-color="#6EF07B" stop-opacity="0"/>
<stop offset="0.6536" stop-color="#00FFC2"/>
<stop offset="1" stop-color="#00FFC2" stop-opacity="0"/>
</linearGradient>
<linearGradient id="paint27_linear_155_10839" x1="2855.71" y1="1213.54" x2="1244.68" y2="1346.05" gradientUnits="userSpaceOnUse">
<stop offset="0.0111732" stop-color="#A7E304"/>
<stop offset="0.338" stop-color="#6EF07B" stop-opacity="0"/>
<stop offset="0.6536" stop-color="#00FFC2"/>
<stop offset="1" stop-color="#00FFC2" stop-opacity="0"/>
</linearGradient>
<linearGradient id="paint28_linear_155_10839" x1="2824.74" y1="1211.2" x2="1279.88" y2="1338.26" gradientUnits="userSpaceOnUse">
<stop offset="0.0111732" stop-color="#A7E304"/>
<stop offset="0.338" stop-color="#6EF07B" stop-opacity="0"/>
<stop offset="0.6536" stop-color="#00FFC2"/>
<stop offset="1" stop-color="#00FFC2" stop-opacity="0"/>
</linearGradient>
<linearGradient id="paint29_linear_155_10839" x1="2793.76" y1="1208.85" x2="1315.08" y2="1330.47" gradientUnits="userSpaceOnUse">
<stop offset="0.0111732" stop-color="#A7E304"/>
<stop offset="0.338" stop-color="#6EF07B" stop-opacity="0"/>
<stop offset="0.6536" stop-color="#00FFC2"/>
<stop offset="1" stop-color="#00FFC2" stop-opacity="0"/>
</linearGradient>
<linearGradient id="paint30_linear_155_10839" x1="2762.8" y1="1206.51" x2="1350.29" y2="1322.69" gradientUnits="userSpaceOnUse">
<stop offset="0.0111732" stop-color="#A7E304"/>
<stop offset="0.338" stop-color="#6EF07B" stop-opacity="0"/>
<stop offset="0.6536" stop-color="#00FFC2"/>
<stop offset="1" stop-color="#00FFC2" stop-opacity="0"/>
</linearGradient>
<linearGradient id="paint31_linear_155_10839" x1="2731.83" y1="1204.16" x2="1385.49" y2="1314.9" gradientUnits="userSpaceOnUse">
<stop offset="0.0111732" stop-color="#A7E304"/>
<stop offset="0.338" stop-color="#6EF07B" stop-opacity="0"/>
<stop offset="0.6536" stop-color="#00FFC2"/>
<stop offset="1" stop-color="#00FFC2" stop-opacity="0"/>
</linearGradient>
<linearGradient id="paint32_linear_155_10839" x1="2700.88" y1="1201.81" x2="1420.69" y2="1307.11" gradientUnits="userSpaceOnUse">
<stop offset="0.0111732" stop-color="#A7E304"/>
<stop offset="0.338" stop-color="#6EF07B" stop-opacity="0"/>
<stop offset="0.6536" stop-color="#00FFC2"/>
<stop offset="1" stop-color="#00FFC2" stop-opacity="0"/>
</linearGradient>
<linearGradient id="paint33_linear_155_10839" x1="2669.93" y1="1199.47" x2="1455.9" y2="1299.32" gradientUnits="userSpaceOnUse">
<stop offset="0.0111732" stop-color="#A7E304"/>
<stop offset="0.338" stop-color="#6EF07B" stop-opacity="0"/>
<stop offset="0.6536" stop-color="#00FFC2"/>
<stop offset="1" stop-color="#00FFC2" stop-opacity="0"/>
</linearGradient>
<linearGradient id="paint34_linear_155_10839" x1="2638.99" y1="1197.12" x2="1491.1" y2="1291.54" gradientUnits="userSpaceOnUse">
<stop offset="0.0111732" stop-color="#A7E304"/>
<stop offset="0.338" stop-color="#6EF07B" stop-opacity="0"/>
<stop offset="0.6536" stop-color="#00FFC2"/>
<stop offset="1" stop-color="#00FFC2" stop-opacity="0"/>
</linearGradient>
<linearGradient id="paint35_linear_155_10839" x1="2608.05" y1="1194.77" x2="1526.3" y2="1283.75" gradientUnits="userSpaceOnUse">
<stop offset="0.0111732" stop-color="#A7E304"/>
<stop offset="0.338" stop-color="#6EF07B" stop-opacity="0"/>
<stop offset="0.6536" stop-color="#00FFC2"/>
<stop offset="1" stop-color="#00FFC2" stop-opacity="0"/>
</linearGradient>
<linearGradient id="paint36_linear_155_10839" x1="2577.13" y1="1192.42" x2="1561.5" y2="1275.96" gradientUnits="userSpaceOnUse">
<stop offset="0.0111732" stop-color="#A7E304"/>
<stop offset="0.338" stop-color="#6EF07B" stop-opacity="0"/>
<stop offset="0.6536" stop-color="#00FFC2"/>
<stop offset="1" stop-color="#00FFC2" stop-opacity="0"/>
</linearGradient>
<linearGradient id="paint37_linear_155_10839" x1="2546.22" y1="1190.07" x2="1596.71" y2="1268.17" gradientUnits="userSpaceOnUse">
<stop offset="0.0111732" stop-color="#A7E304"/>
<stop offset="0.338" stop-color="#6EF07B" stop-opacity="0"/>
<stop offset="0.6536" stop-color="#00FFC2"/>
<stop offset="1" stop-color="#00FFC2" stop-opacity="0"/>
</linearGradient>
<linearGradient id="paint38_linear_155_10839" x1="2515.32" y1="1187.72" x2="1631.91" y2="1260.38" gradientUnits="userSpaceOnUse">
<stop offset="0.0111732" stop-color="#A7E304"/>
<stop offset="0.338" stop-color="#6EF07B" stop-opacity="0"/>
<stop offset="0.6536" stop-color="#00FFC2"/>
<stop offset="1" stop-color="#00FFC2" stop-opacity="0"/>
</linearGradient>
<linearGradient id="paint39_linear_155_10839" x1="2484.43" y1="1185.37" x2="1667.11" y2="1252.59" gradientUnits="userSpaceOnUse">
<stop offset="0.0111732" stop-color="#A7E304"/>
<stop offset="0.338" stop-color="#6EF07B" stop-opacity="0"/>
<stop offset="0.6536" stop-color="#00FFC2"/>
<stop offset="1" stop-color="#00FFC2" stop-opacity="0"/>
</linearGradient>
<linearGradient id="paint40_linear_155_10839" x1="2453.58" y1="1183.02" x2="1702.31" y2="1244.81" gradientUnits="userSpaceOnUse">
<stop offset="0.0111732" stop-color="#A7E304"/>
<stop offset="0.338" stop-color="#6EF07B" stop-opacity="0"/>
<stop offset="0.6536" stop-color="#00FFC2"/>
<stop offset="1" stop-color="#00FFC2" stop-opacity="0"/>
</linearGradient>
</defs>
</svg>
