<?xml version="1.0" encoding="utf-8"?>
<!-- Generator: Adobe Illustrator 24.0.0, SVG Export Plug-In . SVG Version: 6.00 Build 0)  -->
<svg version="1.1" id="layer__1" xmlns="http://www.w3.org/2000/svg" xmlns:xlink="http://www.w3.org/1999/xlink" x="0px" y="0px"
	 viewBox="0 0 960 560" style="enable-background:new 0 0 960 560;" xml:space="preserve">
<style type="text/css">
	.st0{opacity:0.32;fill:url(#SVGID_1_);}
	.st1{opacity:0.3256;fill:url(#SVGID_2_);}
	.st2{opacity:0.3312;fill:url(#SVGID_3_);}
	.st3{opacity:0.3369;fill:url(#SVGID_4_);}
	.st4{opacity:0.3425;fill:url(#SVGID_5_);}
	.st5{opacity:0.3481;fill:url(#SVGID_6_);}
	.st6{opacity:0.3537;fill:url(#SVGID_7_);}
	.st7{opacity:0.3593;fill:url(#SVGID_8_);}
	.st8{opacity:0.365;fill:url(#SVGID_9_);}
	.st9{opacity:0.3706;fill:url(#SVGID_10_);}
	.st10{opacity:0.3762;fill:url(#SVGID_11_);}
	.st11{opacity:0.3818;fill:url(#SVGID_12_);}
	.st12{opacity:0.3874;fill:url(#SVGID_13_);}
	.st13{opacity:0.3931;fill:url(#SVGID_14_);}
	.st14{opacity:0.3987;fill:url(#SVGID_15_);}
	.st15{opacity:0.4043;fill:url(#SVGID_16_);}
	.st16{opacity:0.4099;fill:url(#SVGID_17_);}
	.st17{opacity:0.4155;fill:url(#SVGID_18_);}
	.st18{opacity:0.4212;fill:url(#SVGID_19_);}
	.st19{opacity:0.4268;fill:url(#SVGID_20_);}
	.st20{opacity:0.4324;fill:url(#SVGID_21_);}
	.st21{opacity:0.438;fill:url(#SVGID_22_);}
	.st22{opacity:0.4436;fill:url(#SVGID_23_);}
	.st23{opacity:0.4493;fill:url(#SVGID_24_);}
	.st24{opacity:0.4549;fill:url(#SVGID_25_);}
	.st25{opacity:0.4605;fill:url(#SVGID_26_);}
	.st26{opacity:0.4661;fill:url(#SVGID_27_);}
	.st27{opacity:0.4717;fill:url(#SVGID_28_);}
	.st28{opacity:0.4774;fill:url(#SVGID_29_);}
	.st29{opacity:0.483;fill:url(#SVGID_30_);}
	.st30{opacity:0.4886;fill:url(#SVGID_31_);}
	.st31{opacity:0.4942;fill:url(#SVGID_32_);}
	.st32{opacity:0.4998;fill:url(#SVGID_33_);}
	.st33{opacity:0.5055;fill:url(#SVGID_34_);}
	.st34{opacity:0.5111;fill:url(#SVGID_35_);}
	.st35{opacity:0.5167;fill:url(#SVGID_36_);}
	.st36{opacity:0.5223;fill:url(#SVGID_37_);}
	.st37{opacity:0.5279;fill:url(#SVGID_38_);}
	.st38{opacity:0.5336;fill:url(#SVGID_39_);}
	.st39{opacity:0.5392;fill:url(#SVGID_40_);}
	.st40{opacity:0.5448;fill:url(#SVGID_41_);}
	.st41{opacity:0.5504;fill:url(#SVGID_42_);}
	.st42{opacity:0.556;fill:url(#SVGID_43_);}
	.st43{opacity:0.5617;fill:url(#SVGID_44_);}
	.st44{opacity:0.5673;fill:url(#SVGID_45_);}
	.st45{opacity:0.5729;fill:url(#SVGID_46_);}
	.st46{opacity:0.5785;fill:url(#SVGID_47_);}
	.st47{opacity:0.5841;fill:url(#SVGID_48_);}
	.st48{opacity:0.5898;fill:url(#SVGID_49_);}
	.st49{opacity:0.5954;fill:url(#SVGID_50_);}
	.st50{opacity:0.601;fill:url(#SVGID_51_);}
	.st51{opacity:0.6066;fill:url(#SVGID_52_);}
	.st52{opacity:0.6122;fill:url(#SVGID_53_);}
	.st53{opacity:0.6179;fill:url(#SVGID_54_);}
	.st54{opacity:0.6235;fill:url(#SVGID_55_);}
	.st55{opacity:0.6291;fill:url(#SVGID_56_);}
	.st56{opacity:0.6347;fill:url(#SVGID_57_);}
	.st57{opacity:0.6403;fill:url(#SVGID_58_);}
	.st58{opacity:0.646;fill:url(#SVGID_59_);}
	.st59{opacity:0.6516;fill:url(#SVGID_60_);}
	.st60{opacity:0.6572;fill:url(#SVGID_61_);}
	.st61{opacity:0.6628;fill:url(#SVGID_62_);}
	.st62{opacity:0.6684;fill:url(#SVGID_63_);}
	.st63{opacity:0.674;fill:url(#SVGID_64_);}
	.st64{opacity:0.6797;fill:url(#SVGID_65_);}
	.st65{opacity:0.6853;fill:url(#SVGID_66_);}
	.st66{opacity:0.6909;fill:url(#SVGID_67_);}
	.st67{opacity:0.6965;fill:url(#SVGID_68_);}
	.st68{opacity:0.7021;fill:url(#SVGID_69_);}
	.st69{opacity:0.7078;fill:url(#SVGID_70_);}
	.st70{opacity:0.7134;fill:url(#SVGID_71_);}
	.st71{opacity:0.719;fill:url(#SVGID_72_);}
	.st72{opacity:0.7246;fill:url(#SVGID_73_);}
	.st73{opacity:0.7302;fill:url(#SVGID_74_);}
	.st74{opacity:0.7359;fill:url(#SVGID_75_);}
	.st75{opacity:0.7415;fill:url(#SVGID_76_);}
	.st76{opacity:0.7471;fill:url(#SVGID_77_);}
	.st77{opacity:0.7527;fill:url(#SVGID_78_);}
	.st78{opacity:0.7583;fill:url(#SVGID_79_);}
	.st79{opacity:0.764;fill:url(#SVGID_80_);}
	.st80{opacity:0.7696;fill:url(#SVGID_81_);}
	.st81{opacity:0.7752;fill:url(#SVGID_82_);}
	.st82{opacity:0.7808;fill:url(#SVGID_83_);}
	.st83{opacity:0.7864;fill:url(#SVGID_84_);}
	.st84{opacity:0.7921;fill:url(#SVGID_85_);}
	.st85{opacity:0.7977;fill:url(#SVGID_86_);}
	.st86{opacity:0.8033;fill:url(#SVGID_87_);}
	.st87{opacity:0.8089;fill:url(#SVGID_88_);}
	.st88{opacity:0.8145;fill:url(#SVGID_89_);}
	.st89{opacity:0.8202;fill:url(#SVGID_90_);}
	.st90{opacity:0.8258;fill:url(#SVGID_91_);}
	.st91{opacity:0.8314;fill:url(#SVGID_92_);}
	.st92{opacity:0.837;fill:url(#SVGID_93_);}
	.st93{opacity:0.8426;fill:url(#SVGID_94_);}
	.st94{opacity:0.8483;fill:url(#SVGID_95_);}
	.st95{opacity:0.8539;fill:url(#SVGID_96_);}
	.st96{opacity:0.8595;fill:url(#SVGID_97_);}
	.st97{opacity:0.8651;fill:url(#SVGID_98_);}
	.st98{opacity:0.8707;fill:url(#SVGID_99_);}
	.st99{opacity:0.8764;fill:url(#SVGID_100_);}
	.st100{opacity:0.882;fill:url(#SVGID_101_);}
	.st101{opacity:0.8876;fill:url(#SVGID_102_);}
	.st102{opacity:0.8932;fill:url(#SVGID_103_);}
	.st103{opacity:0.8988;fill:url(#SVGID_104_);}
	.st104{opacity:0.9045;fill:url(#SVGID_105_);}
	.st105{opacity:0.9101;fill:url(#SVGID_106_);}
	.st106{opacity:0.9157;fill:url(#SVGID_107_);}
	.st107{opacity:0.9213;fill:url(#SVGID_108_);}
	.st108{opacity:0.9269;fill:url(#SVGID_109_);}
	.st109{opacity:0.9326;fill:url(#SVGID_110_);}
	.st110{opacity:0.9382;fill:url(#SVGID_111_);}
	.st111{opacity:0.9438;fill:url(#SVGID_112_);}
	.st112{opacity:0.9494;fill:url(#SVGID_113_);}
	.st113{opacity:0.955;fill:url(#SVGID_114_);}
	.st114{opacity:0.9607;fill:url(#SVGID_115_);}
	.st115{opacity:0.9663;fill:url(#SVGID_116_);}
	.st116{opacity:0.9719;fill:url(#SVGID_117_);}
	.st117{opacity:0.9775;fill:url(#SVGID_118_);}
	.st118{opacity:0.9831;fill:url(#SVGID_119_);}
	.st119{opacity:0.9888;fill:url(#SVGID_120_);}
	.st120{opacity:0.9944;fill:url(#SVGID_121_);}
	.st121{fill:url(#SVGID_122_);}
</style>
<g>
	
		<linearGradient id="SVGID_1_" gradientUnits="userSpaceOnUse" x1="-823.9411" y1="1340.2318" x2="-823.9411" y2="1313.2729" gradientTransform="matrix(0.586 -0.8103 0.8103 0.586 -459.8055 -1314.4203)">
		<stop  offset="0" style="stop-color:#00FFC0"/>
		<stop  offset="0.9888" style="stop-color:#A9FF14"/>
	</linearGradient>
	<path class="st0" d="M143.4,138.6c-1.7,2.4-5.2,3-7.6,1.2c-2.2-1.6-4.4-3.2-6.6-4.8c-2.2-1.6-4.3-3.1-6.5-4.7
		c-2.4-1.7-3-5.2-1.2-7.6s5.2-3,7.6-1.2c2.1,1.5,4.2,3,6.2,4.5c2.3,1.6,4.6,3.3,6.8,4.9C144.5,132.8,145.1,136.2,143.4,138.6z"/>
	
		<linearGradient id="SVGID_2_" gradientUnits="userSpaceOnUse" x1="-809.2684" y1="1345.2263" x2="-809.2684" y2="1318.1788" gradientTransform="matrix(0.5879 -0.7988 0.7988 0.5879 -455.5474 -1298.5613)">
		<stop  offset="0" style="stop-color:#00FFC0"/>
		<stop  offset="0.9888" style="stop-color:#A9FF14"/>
	</linearGradient>
	<path class="st1" d="M129.1,121.6c2.1,1.5,4.2,3,6.3,4.5c2.3,1.6,4.5,3.3,6.8,5c2.4,1.7,2.9,5.1,1.2,7.5c-1.7,2.4-5.1,3-7.5,1.3
		c-2.2-1.6-4.4-3.1-6.6-4.7c-2.2-1.6-4.3-3.1-6.5-4.7c-2.4-1.7-2.9-5.1-1.2-7.6C123.3,120.4,126.7,119.9,129.1,121.6z"/>
	
		<linearGradient id="SVGID_3_" gradientUnits="userSpaceOnUse" x1="-794.2687" y1="1350.0511" x2="-794.2687" y2="1322.9165" gradientTransform="matrix(0.5897 -0.7872 0.7872 0.5897 -451.2893 -1282.7024)">
		<stop  offset="0" style="stop-color:#00FFC0"/>
		<stop  offset="0.9888" style="stop-color:#A9FF14"/>
	</linearGradient>
	<path class="st2" d="M129.1,121.6c2.1,1.4,4.2,2.9,6.3,4.4c2.3,1.6,4.5,3.3,6.7,5c2.3,1.7,2.9,5.1,1.1,7.5c-1.7,2.4-5.1,3-7.5,1.3
		c-2.2-1.5-4.4-3.1-6.6-4.7c-2.2-1.6-4.3-3.2-6.4-4.7c-2.3-1.7-2.9-5.1-1.1-7.5C123.4,120.5,126.7,119.9,129.1,121.6z"/>
	
		<linearGradient id="SVGID_4_" gradientUnits="userSpaceOnUse" x1="-778.9384" y1="1354.6935" x2="-778.9384" y2="1327.4734" gradientTransform="matrix(0.5916 -0.7757 0.7757 0.5916 -447.0313 -1266.8434)">
		<stop  offset="0" style="stop-color:#00FFC0"/>
		<stop  offset="0.9888" style="stop-color:#A9FF14"/>
	</linearGradient>
	<path class="st3" d="M129.2,121.6c2.1,1.4,4.2,2.9,6.3,4.4c2.3,1.6,4.5,3.3,6.7,5c2.3,1.7,2.8,5.1,1.1,7.5c-1.7,2.4-5.1,3-7.5,1.4
		c-2.2-1.5-4.4-3-6.6-4.6c-2.2-1.6-4.3-3.2-6.4-4.8c-2.3-1.8-2.8-5.1-1.1-7.5C123.4,120.5,126.8,119.9,129.2,121.6z"/>
	
		<linearGradient id="SVGID_5_" gradientUnits="userSpaceOnUse" x1="-763.274" y1="1359.1399" x2="-763.274" y2="1331.8363" gradientTransform="matrix(0.5934 -0.7641 0.7641 0.5934 -442.7732 -1250.9845)">
		<stop  offset="0" style="stop-color:#00FFC0"/>
		<stop  offset="0.9888" style="stop-color:#A9FF14"/>
	</linearGradient>
	<path class="st4" d="M129.2,121.6c2.1,1.4,4.2,2.8,6.3,4.3c2.3,1.6,4.5,3.4,6.6,5c2.3,1.8,2.8,5.1,1,7.5c-1.7,2.4-5.1,3-7.5,1.4
		c-2.2-1.5-4.4-3-6.6-4.6c-2.2-1.6-4.3-3.2-6.3-4.8c-2.3-1.8-2.8-5.1-1-7.5C123.5,120.6,126.8,120,129.2,121.6z"/>
	
		<linearGradient id="SVGID_6_" gradientUnits="userSpaceOnUse" x1="-747.2725" y1="1363.3767" x2="-747.2725" y2="1335.9916" gradientTransform="matrix(0.5953 -0.7526 0.7526 0.5953 -438.5152 -1235.1255)">
		<stop  offset="0" style="stop-color:#00FFC0"/>
		<stop  offset="0.9888" style="stop-color:#A9FF14"/>
	</linearGradient>
	<path class="st5" d="M129.2,121.6c2.1,1.3,4.2,2.8,6.3,4.3c2.3,1.7,4.5,3.4,6.6,5c2.2,1.8,2.7,5.1,1,7.5c-1.7,2.4-5.1,3-7.5,1.4
		c-2.2-1.4-4.4-2.9-6.6-4.5c-2.2-1.6-4.3-3.2-6.3-4.8c-2.2-1.8-2.7-5.1-1-7.5C123.5,120.6,126.9,120,129.2,121.6z"/>
	
		<linearGradient id="SVGID_7_" gradientUnits="userSpaceOnUse" x1="-730.9315" y1="1367.3893" x2="-730.9315" y2="1339.9249" gradientTransform="matrix(0.5971 -0.7411 0.7411 0.5971 -434.2571 -1219.2666)">
		<stop  offset="0" style="stop-color:#00FFC0"/>
		<stop  offset="0.9888" style="stop-color:#A9FF14"/>
	</linearGradient>
	<path class="st6" d="M129.3,121.6c2.1,1.3,4.2,2.7,6.3,4.2c2.3,1.7,4.5,3.4,6.6,5.1c2.2,1.8,2.7,5.1,0.9,7.5
		c-1.7,2.4-5.1,3-7.4,1.5c-2.2-1.4-4.4-2.9-6.6-4.5c-2.2-1.6-4.3-3.2-6.2-4.8c-2.2-1.8-2.7-5.1-0.9-7.5
		C123.6,120.6,126.9,120,129.3,121.6z"/>
	
		<linearGradient id="SVGID_8_" gradientUnits="userSpaceOnUse" x1="-714.2487" y1="1371.1628" x2="-714.2487" y2="1343.6213" gradientTransform="matrix(0.599 -0.7295 0.7295 0.599 -429.9991 -1203.4076)">
		<stop  offset="0" style="stop-color:#00FFC0"/>
		<stop  offset="0.9888" style="stop-color:#A9FF14"/>
	</linearGradient>
	<path class="st7" d="M129.3,121.6c2.1,1.3,4.2,2.7,6.3,4.2c2.3,1.7,4.5,3.4,6.5,5.1c2.2,1.8,2.6,5.1,0.9,7.5c-1.7,2.4-5,3-7.4,1.5
		c-2.2-1.4-4.4-2.8-6.6-4.4c-2.2-1.6-4.2-3.2-6.2-4.9c-2.2-1.8-2.6-5.1-0.9-7.5C123.6,120.7,126.9,120,129.3,121.6z"/>
	
		<linearGradient id="SVGID_9_" gradientUnits="userSpaceOnUse" x1="-697.2224" y1="1374.6816" x2="-697.2224" y2="1347.0653" gradientTransform="matrix(0.6008 -0.718 0.718 0.6008 -425.741 -1187.5487)">
		<stop  offset="0" style="stop-color:#00FFC0"/>
		<stop  offset="0.9888" style="stop-color:#A9FF14"/>
	</linearGradient>
	<path class="st8" d="M129.3,121.6c2.1,1.2,4.2,2.6,6.3,4.1c2.3,1.7,4.4,3.4,6.5,5.1c2.1,1.8,2.6,5.1,0.8,7.5
		c-1.7,2.4-5,3.1-7.4,1.6c-2.2-1.3-4.4-2.8-6.6-4.4c-2.2-1.6-4.2-3.3-6.1-4.9c-2.1-1.8-2.6-5.1-0.8-7.5
		C123.7,120.7,127,120.1,129.3,121.6z"/>
	
		<linearGradient id="SVGID_10_" gradientUnits="userSpaceOnUse" x1="-679.8515" y1="1377.9296" x2="-679.8515" y2="1350.2411" gradientTransform="matrix(0.6027 -0.7064 0.7064 0.6027 -421.4829 -1171.6897)">
		<stop  offset="0" style="stop-color:#00FFC0"/>
		<stop  offset="0.9888" style="stop-color:#A9FF14"/>
	</linearGradient>
	<path class="st9" d="M129.3,121.6c2.1,1.2,4.2,2.6,6.3,4.1c2.3,1.7,4.4,3.4,6.4,5.1c2.1,1.8,2.5,5.1,0.8,7.5
		c-1.7,2.4-5,3.1-7.4,1.6c-2.2-1.3-4.4-2.7-6.6-4.3c-2.2-1.6-4.2-3.3-6.1-4.9c-2.1-1.8-2.5-5.1-0.8-7.5
		C123.7,120.8,127,120.1,129.3,121.6z"/>
	
		<linearGradient id="SVGID_11_" gradientUnits="userSpaceOnUse" x1="-662.1356" y1="1380.8899" x2="-662.1356" y2="1353.132" gradientTransform="matrix(0.6045 -0.6949 0.6949 0.6045 -417.2249 -1155.8308)">
		<stop  offset="0" style="stop-color:#00FFC0"/>
		<stop  offset="0.9888" style="stop-color:#A9FF14"/>
	</linearGradient>
	<path class="st10" d="M129.4,121.5c2.1,1.2,4.2,2.5,6.3,4c2.3,1.7,4.4,3.4,6.4,5.2c2.1,1.8,2.5,5.1,0.7,7.5c-1.7,2.4-5,3.1-7.3,1.7
		c-2.2-1.3-4.4-2.7-6.7-4.3c-2.2-1.6-4.2-3.3-6.1-4.9c-2.1-1.8-2.4-5.1-0.7-7.5C123.8,120.8,127,120.1,129.4,121.5z"/>
	
		<linearGradient id="SVGID_12_" gradientUnits="userSpaceOnUse" x1="-644.0746" y1="1383.5454" x2="-644.0746" y2="1355.7207" gradientTransform="matrix(0.6064 -0.6834 0.6834 0.6064 -412.9669 -1139.9718)">
		<stop  offset="0" style="stop-color:#00FFC0"/>
		<stop  offset="0.9888" style="stop-color:#A9FF14"/>
	</linearGradient>
	<path class="st11" d="M129.4,121.5c2,1.1,4.3,2.5,6.4,4c2.3,1.7,4.4,3.5,6.3,5.2c2.1,1.8,2.4,5.1,0.7,7.4c-1.7,2.4-5,3.1-7.3,1.7
		c-2.2-1.2-4.5-2.6-6.7-4.2c-2.2-1.6-4.2-3.3-6-5c-2-1.8-2.4-5.1-0.7-7.5C123.8,120.9,127.1,120.2,129.4,121.5z"/>
	
		<linearGradient id="SVGID_13_" gradientUnits="userSpaceOnUse" x1="-625.6696" y1="1385.8782" x2="-625.6696" y2="1357.9899" gradientTransform="matrix(0.6083 -0.6718 0.6718 0.6083 -408.7088 -1124.1129)">
		<stop  offset="0" style="stop-color:#00FFC0"/>
		<stop  offset="0.9888" style="stop-color:#A9FF14"/>
	</linearGradient>
	<path class="st12" d="M129.4,121.5c2,1.1,4.3,2.4,6.4,3.9c2.3,1.7,4.4,3.5,6.3,5.2c2,1.8,2.4,5.1,0.6,7.4c-1.7,2.4-5,3.1-7.3,1.8
		c-2.1-1.2-4.5-2.6-6.7-4.2c-2.2-1.6-4.2-3.3-6-5c-2-1.8-2.3-5.1-0.6-7.5C123.9,120.9,127.1,120.2,129.4,121.5z"/>
	
		<linearGradient id="SVGID_14_" gradientUnits="userSpaceOnUse" x1="-606.9218" y1="1387.87" x2="-606.9218" y2="1359.9209" gradientTransform="matrix(0.6101 -0.6603 0.6603 0.6101 -404.4507 -1108.2539)">
		<stop  offset="0" style="stop-color:#00FFC0"/>
		<stop  offset="0.9888" style="stop-color:#A9FF14"/>
	</linearGradient>
	<path class="st13" d="M129.5,121.5c2,1.1,4.3,2.4,6.4,3.9c2.3,1.7,4.4,3.5,6.2,5.2c2,1.8,2.3,5,0.6,7.4c-1.7,2.4-5,3.1-7.3,1.8
		c-2.1-1.2-4.5-2.5-6.7-4.1c-2.2-1.6-4.2-3.3-5.9-5c-2-1.8-2.3-5.1-0.6-7.5C123.9,120.9,127.2,120.2,129.5,121.5z"/>
	
		<linearGradient id="SVGID_15_" gradientUnits="userSpaceOnUse" x1="-587.8339" y1="1389.5018" x2="-587.8339" y2="1361.4954" gradientTransform="matrix(0.612 -0.6487 0.6487 0.612 -400.1927 -1092.395)">
		<stop  offset="0" style="stop-color:#00FFC0"/>
		<stop  offset="0.9888" style="stop-color:#A9FF14"/>
	</linearGradient>
	<path class="st14" d="M129.5,121.5c2,1.1,4.3,2.3,6.4,3.9c2.3,1.7,4.4,3.5,6.2,5.2c2,1.8,2.3,5,0.6,7.4c-1.7,2.4-4.9,3.1-7.3,1.9
		c-2.1-1.1-4.5-2.5-6.7-4.1c-2.2-1.6-4.2-3.4-5.9-5c-1.9-1.8-2.2-5.1-0.5-7.4C124,121,127.2,120.2,129.5,121.5z"/>
	
		<linearGradient id="SVGID_16_" gradientUnits="userSpaceOnUse" x1="-568.409" y1="1390.7544" x2="-568.409" y2="1362.6938" gradientTransform="matrix(0.6138 -0.6372 0.6372 0.6138 -395.9346 -1076.536)">
		<stop  offset="0" style="stop-color:#00FFC0"/>
		<stop  offset="0.9888" style="stop-color:#A9FF14"/>
	</linearGradient>
	<path class="st15" d="M129.5,121.5c2,1,4.3,2.3,6.4,3.8c2.3,1.7,4.4,3.5,6.1,5.3c1.9,1.8,2.2,5,0.5,7.4c-1.7,2.4-4.9,3.2-7.2,1.9
		c-2.1-1.1-4.5-2.4-6.7-4c-2.2-1.6-4.2-3.4-5.8-5.1c-1.9-1.8-2.2-5.1-0.5-7.4C124,121,127.2,120.3,129.5,121.5z"/>
	
		<linearGradient id="SVGID_17_" gradientUnits="userSpaceOnUse" x1="-548.6513" y1="1391.6078" x2="-548.6513" y2="1363.4967" gradientTransform="matrix(0.6157 -0.6257 0.6257 0.6157 -391.6766 -1060.6771)">
		<stop  offset="0" style="stop-color:#00FFC0"/>
		<stop  offset="0.9888" style="stop-color:#A9FF14"/>
	</linearGradient>
	<path class="st16" d="M129.6,121.5c2,1,4.3,2.2,6.4,3.8c2.3,1.7,4.3,3.5,6.1,5.3c1.9,1.8,2.2,5,0.5,7.4c-1.7,2.4-4.9,3.2-7.2,2
		c-2.1-1.1-4.5-2.4-6.7-4c-2.2-1.6-4.1-3.4-5.8-5.1c-1.9-1.8-2.1-5.1-0.4-7.4C124.1,121.1,127.3,120.3,129.6,121.5z"/>
	
		<linearGradient id="SVGID_18_" gradientUnits="userSpaceOnUse" x1="-528.5659" y1="1392.0417" x2="-528.5659" y2="1363.8838" gradientTransform="matrix(0.6175 -0.6141 0.6141 0.6175 -387.4185 -1044.8181)">
		<stop  offset="0" style="stop-color:#00FFC0"/>
		<stop  offset="0.9888" style="stop-color:#A9FF14"/>
	</linearGradient>
	<path class="st17" d="M129.6,121.5c2,1,4.3,2.2,6.4,3.7c2.3,1.7,4.3,3.6,6,5.3c1.9,1.8,2.1,5,0.4,7.4c-1.7,2.4-4.9,3.2-7.2,2
		c-2.1-1-4.5-2.3-6.7-3.9c-2.2-1.6-4.1-3.4-5.8-5.1c-1.8-1.8-2.1-5-0.4-7.4C124.2,121.1,127.3,120.3,129.6,121.5z"/>
	
		<linearGradient id="SVGID_19_" gradientUnits="userSpaceOnUse" x1="-508.1591" y1="1392.0356" x2="-508.1591" y2="1363.8345" gradientTransform="matrix(0.6194 -0.6026 0.6026 0.6194 -383.1605 -1028.9592)">
		<stop  offset="0" style="stop-color:#00FFC0"/>
		<stop  offset="0.9888" style="stop-color:#A9FF14"/>
	</linearGradient>
	<path class="st18" d="M129.6,121.5c2,0.9,4.3,2.1,6.4,3.7c2.3,1.7,4.3,3.6,6,5.3c1.8,1.8,2.1,5,0.4,7.4c-1.7,2.4-4.9,3.2-7.2,2
		c-2.1-1-4.5-2.3-6.7-3.9c-2.2-1.6-4.1-3.4-5.7-5.1c-1.8-1.8-2-5-0.3-7.4C124.2,121.1,127.3,120.3,129.6,121.5z"/>
	
		<linearGradient id="SVGID_20_" gradientUnits="userSpaceOnUse" x1="-487.4383" y1="1391.5682" x2="-487.4383" y2="1363.328" gradientTransform="matrix(0.6212 -0.5911 0.5911 0.6212 -378.9024 -1013.1003)">
		<stop  offset="0" style="stop-color:#00FFC0"/>
		<stop  offset="0.9888" style="stop-color:#A9FF14"/>
	</linearGradient>
	<path class="st19" d="M129.7,121.5c2,0.9,4.3,2.1,6.4,3.6c2.3,1.7,4.3,3.6,5.9,5.4c1.8,1.8,2,5,0.3,7.4c-1.7,2.4-4.9,3.2-7.1,2.1
		c-2.1-1-4.5-2.2-6.7-3.8c-2.2-1.6-4.1-3.4-5.7-5.1c-1.8-1.8-2-5-0.3-7.4C124.3,121.2,127.4,120.4,129.7,121.5z"/>
	
		<linearGradient id="SVGID_21_" gradientUnits="userSpaceOnUse" x1="-466.4119" y1="1390.6184" x2="-466.4119" y2="1362.3429" gradientTransform="matrix(0.6231 -0.5795 0.5795 0.6231 -374.6444 -997.2413)">
		<stop  offset="0" style="stop-color:#00FFC0"/>
		<stop  offset="0.9888" style="stop-color:#A9FF14"/>
	</linearGradient>
	<path class="st20" d="M129.7,121.5c2,0.9,4.3,2,6.5,3.6c2.3,1.7,4.3,3.6,5.9,5.4c1.8,1.8,2,5,0.3,7.3c-1.7,2.4-4.8,3.2-7.1,2.1
		c-2.1-0.9-4.5-2.2-6.7-3.8c-2.2-1.6-4.1-3.5-5.6-5.2c-1.7-1.8-1.9-5-0.2-7.4C124.3,121.2,127.4,120.4,129.7,121.5z"/>
	
		<linearGradient id="SVGID_22_" gradientUnits="userSpaceOnUse" x1="-445.0897" y1="1389.1646" x2="-445.0897" y2="1360.858" gradientTransform="matrix(0.6249 -0.568 0.568 0.6249 -370.3863 -981.3824)">
		<stop  offset="0" style="stop-color:#00FFC0"/>
		<stop  offset="0.9888" style="stop-color:#A9FF14"/>
	</linearGradient>
	<path class="st21" d="M129.7,121.5c2,0.8,4.3,2,6.5,3.5c2.3,1.7,4.3,3.6,5.9,5.4c1.7,1.8,1.9,5,0.2,7.3c-1.7,2.4-4.8,3.2-7.1,2.2
		c-2.1-0.9-4.5-2.1-6.7-3.7c-2.2-1.6-4.1-3.5-5.6-5.2c-1.7-1.8-1.9-5-0.2-7.4C124.4,121.3,127.5,120.4,129.7,121.5z"/>
	
		<linearGradient id="SVGID_23_" gradientUnits="userSpaceOnUse" x1="-423.4827" y1="1387.1848" x2="-423.4827" y2="1358.8514" gradientTransform="matrix(0.6268 -0.5564 0.5564 0.6268 -366.1283 -965.5234)">
		<stop  offset="0" style="stop-color:#00FFC0"/>
		<stop  offset="0.9888" style="stop-color:#A9FF14"/>
	</linearGradient>
	<path class="st22" d="M129.7,121.5c2,0.8,4.3,1.9,6.5,3.5c2.3,1.7,4.3,3.6,5.8,5.4c1.7,1.8,1.9,5,0.2,7.3c-1.7,2.4-4.8,3.2-7.1,2.2
		c-2.1-0.9-4.5-2.1-6.8-3.7c-2.2-1.6-4.1-3.5-5.5-5.2c-1.7-1.8-1.8-5-0.1-7.4C124.4,121.3,127.5,120.5,129.7,121.5z"/>
	
		<linearGradient id="SVGID_24_" gradientUnits="userSpaceOnUse" x1="-401.6035" y1="1384.6573" x2="-401.6035" y2="1356.3015" gradientTransform="matrix(0.6286 -0.5449 0.5449 0.6286 -361.8702 -949.6645)">
		<stop  offset="0" style="stop-color:#00FFC0"/>
		<stop  offset="0.9888" style="stop-color:#A9FF14"/>
	</linearGradient>
	<path class="st23" d="M129.8,121.5c2,0.8,4.3,1.9,6.5,3.4c2.3,1.7,4.2,3.6,5.8,5.4c1.7,1.8,1.8,5,0.1,7.3c-1.7,2.4-4.8,3.3-7.1,2.3
		c-2.1-0.8-4.5-2-6.8-3.6c-2.2-1.6-4.1-3.5-5.5-5.2c-1.6-1.8-1.8-5-0.1-7.4C124.5,121.3,127.5,120.5,129.8,121.5z"/>
	
		<linearGradient id="SVGID_25_" gradientUnits="userSpaceOnUse" x1="-379.4659" y1="1381.5602" x2="-379.4659" y2="1353.1864" gradientTransform="matrix(0.6305 -0.5334 0.5334 0.6305 -357.6122 -933.8055)">
		<stop  offset="0" style="stop-color:#00FFC0"/>
		<stop  offset="0.9888" style="stop-color:#A9FF14"/>
	</linearGradient>
	<path class="st24" d="M129.8,121.5c2,0.7,4.4,1.8,6.5,3.4c2.3,1.7,4.2,3.7,5.7,5.5c1.6,1.8,1.8,5,0.1,7.3c-1.7,2.4-4.8,3.3-7,2.3
		c-2.1-0.8-4.5-2-6.8-3.6c-2.2-1.6-4.1-3.5-5.4-5.3c-1.6-1.8-1.7-5,0-7.4C124.5,121.4,127.6,120.5,129.8,121.5z"/>
	
		<linearGradient id="SVGID_26_" gradientUnits="userSpaceOnUse" x1="-357.0852" y1="1377.8716" x2="-357.0852" y2="1349.4843" gradientTransform="matrix(0.6324 -0.5218 0.5218 0.6324 -353.3541 -917.9466)">
		<stop  offset="0" style="stop-color:#00FFC0"/>
		<stop  offset="0.9888" style="stop-color:#A9FF14"/>
	</linearGradient>
	<path class="st25" d="M129.8,121.5c2,0.7,4.4,1.8,6.5,3.3c2.3,1.7,4.2,3.7,5.7,5.5c1.6,1.8,1.7,4.9,0,7.3c-1.7,2.4-4.8,3.3-7,2.4
		c-2.1-0.8-4.5-1.9-6.8-3.5c-2.2-1.6-4-3.5-5.4-5.3c-1.6-1.8-1.7-5,0-7.4C124.6,121.4,127.6,120.5,129.8,121.5z"/>
	
		<linearGradient id="SVGID_27_" gradientUnits="userSpaceOnUse" x1="-334.4783" y1="1373.5698" x2="-334.4783" y2="1345.1736" gradientTransform="matrix(0.6342 -0.5103 0.5103 0.6342 -349.096 -902.0876)">
		<stop  offset="0" style="stop-color:#00FFC0"/>
		<stop  offset="0.9888" style="stop-color:#A9FF14"/>
	</linearGradient>
	<path class="st26" d="M129.9,121.5c2,0.7,4.4,1.7,6.5,3.3c2.3,1.7,4.2,3.7,5.6,5.5c1.6,1.8,1.7,4.9,0,7.3c-1.7,2.4-4.8,3.3-7,2.4
		c-2.1-0.7-4.5-1.9-6.8-3.5c-2.2-1.6-4-3.6-5.4-5.3c-1.5-1.8-1.6-5,0.1-7.3C124.6,121.5,127.6,120.6,129.9,121.5z"/>
	
		<linearGradient id="SVGID_28_" gradientUnits="userSpaceOnUse" x1="-311.6636" y1="1368.6334" x2="-311.6636" y2="1340.2328" gradientTransform="matrix(0.6361 -0.4987 0.4987 0.6361 -344.838 -886.2287)">
		<stop  offset="0" style="stop-color:#00FFC0"/>
		<stop  offset="0.9888" style="stop-color:#A9FF14"/>
	</linearGradient>
	<path class="st27" d="M129.9,121.5c2,0.6,4.4,1.7,6.5,3.2c2.3,1.7,4.2,3.7,5.6,5.5c1.5,1.8,1.6,4.9-0.1,7.3c-1.7,2.4-4.7,3.3-7,2.5
		c-2.1-0.7-4.6-1.8-6.8-3.4c-2.2-1.6-4-3.6-5.3-5.3c-1.5-1.8-1.6-5,0.1-7.3C124.7,121.5,127.7,120.6,129.9,121.5z"/>
	
		<linearGradient id="SVGID_29_" gradientUnits="userSpaceOnUse" x1="-288.6612" y1="1363.0414" x2="-288.6612" y2="1334.6411" gradientTransform="matrix(0.6379 -0.4872 0.4872 0.6379 -340.5799 -870.3698)">
		<stop  offset="0" style="stop-color:#00FFC0"/>
		<stop  offset="0.9888" style="stop-color:#A9FF14"/>
	</linearGradient>
	<path class="st28" d="M129.9,121.5c2,0.6,4.4,1.6,6.5,3.2c2.3,1.7,4.2,3.7,5.5,5.5c1.5,1.8,1.6,4.9-0.1,7.3c-1.7,2.4-4.7,3.3-7,2.5
		c-2.1-0.7-4.6-1.8-6.8-3.4c-2.2-1.6-4-3.6-5.3-5.4c-1.5-1.8-1.5-5,0.2-7.3C124.7,121.5,127.7,120.6,129.9,121.5z"/>
	
		<linearGradient id="SVGID_30_" gradientUnits="userSpaceOnUse" x1="-265.4926" y1="1356.7731" x2="-265.4926" y2="1328.3777" gradientTransform="matrix(0.6398 -0.4757 0.4757 0.6398 -336.3219 -854.5108)">
		<stop  offset="0" style="stop-color:#00FFC0"/>
		<stop  offset="0.9888" style="stop-color:#A9FF14"/>
	</linearGradient>
	<path class="st29" d="M130,121.5c2,0.6,4.4,1.6,6.6,3.1c2.3,1.7,4.2,3.7,5.5,5.6c1.5,1.8,1.5,4.9-0.2,7.2c-1.7,2.4-4.7,3.3-6.9,2.6
		c-2.1-0.6-4.6-1.7-6.8-3.3c-2.2-1.6-4-3.6-5.2-5.4c-1.5-1.8-1.5-5,0.2-7.3C124.8,121.6,127.8,120.6,130,121.5z"/>
	
		<linearGradient id="SVGID_31_" gradientUnits="userSpaceOnUse" x1="-242.1812" y1="1349.8083" x2="-242.1812" y2="1321.4226" gradientTransform="matrix(0.6416 -0.4641 0.4641 0.6416 -332.0638 -838.6519)">
		<stop  offset="0" style="stop-color:#00FFC0"/>
		<stop  offset="0.9888" style="stop-color:#A9FF14"/>
	</linearGradient>
	<path class="st30" d="M130,121.4c2,0.5,4.4,1.5,6.6,3.1c2.3,1.7,4.2,3.8,5.4,5.6c1.4,1.8,1.5,4.9-0.2,7.2c-1.7,2.4-4.7,3.4-6.9,2.6
		c-2.1-0.6-4.6-1.7-6.8-3.3c-2.2-1.6-4-3.6-5.2-5.4c-1.4-1.9-1.4-5,0.3-7.3C124.8,121.6,127.8,120.7,130,121.4z"/>
	
		<linearGradient id="SVGID_32_" gradientUnits="userSpaceOnUse" x1="-218.7521" y1="1342.1283" x2="-218.7521" y2="1313.7567" gradientTransform="matrix(0.6435 -0.4526 0.4526 0.6435 -327.8058 -822.7929)">
		<stop  offset="0" style="stop-color:#00FFC0"/>
		<stop  offset="0.9888" style="stop-color:#A9FF14"/>
	</linearGradient>
	<path class="st31" d="M130,121.4c2,0.5,4.4,1.5,6.6,3c2.3,1.7,4.1,3.8,5.4,5.6c1.4,1.8,1.4,4.9-0.3,7.2c-1.7,2.4-4.7,3.4-6.9,2.7
		c-2.1-0.6-4.6-1.6-6.8-3.2c-2.2-1.6-4-3.6-5.1-5.4c-1.4-1.9-1.4-5,0.3-7.3C124.9,121.7,127.8,120.7,130,121.4z"/>
	
		<linearGradient id="SVGID_33_" gradientUnits="userSpaceOnUse" x1="-195.2319" y1="1333.7141" x2="-195.2319" y2="1305.3615" gradientTransform="matrix(0.6453 -0.441 0.441 0.6453 -323.5477 -806.934)">
		<stop  offset="0" style="stop-color:#00FFC0"/>
		<stop  offset="0.9888" style="stop-color:#A9FF14"/>
	</linearGradient>
	<path class="st32" d="M130.1,121.4c2,0.5,4.4,1.4,6.6,3c2.3,1.7,4.1,3.8,5.3,5.6c1.4,1.8,1.4,4.9-0.3,7.2c-1.7,2.4-4.7,3.4-6.9,2.7
		c-2.1-0.5-4.6-1.6-6.8-3.2c-2.2-1.6-4-3.7-5.1-5.5c-1.4-1.9-1.3-5,0.4-7.3C124.9,121.7,127.9,120.7,130.1,121.4z"/>
	
		<linearGradient id="SVGID_34_" gradientUnits="userSpaceOnUse" x1="-171.649" y1="1324.5488" x2="-171.649" y2="1296.2194" gradientTransform="matrix(0.6472 -0.4295 0.4295 0.6472 -319.2897 -791.075)">
		<stop  offset="0" style="stop-color:#00FFC0"/>
		<stop  offset="0.9888" style="stop-color:#A9FF14"/>
	</linearGradient>
	<path class="st33" d="M130.1,121.4c2,0.4,4.4,1.4,6.6,3c2.3,1.7,4.1,3.8,5.3,5.7c1.3,1.8,1.3,4.9-0.3,7.2c-1.7,2.4-4.6,3.4-6.8,2.7
		c-2.1-0.5-4.6-1.5-6.8-3.1c-2.2-1.6-4-3.7-5.1-5.5c-1.3-1.9-1.3-4.9,0.4-7.3C125,121.7,127.9,120.8,130.1,121.4z"/>
	
		<linearGradient id="SVGID_35_" gradientUnits="userSpaceOnUse" x1="-148.0334" y1="1314.616" x2="-148.0334" y2="1286.3142" gradientTransform="matrix(0.649 -0.418 0.418 0.649 -315.0316 -775.2161)">
		<stop  offset="0" style="stop-color:#00FFC0"/>
		<stop  offset="0.9888" style="stop-color:#A9FF14"/>
	</linearGradient>
	<path class="st34" d="M130.1,121.4c2,0.4,4.4,1.3,6.6,2.9c2.3,1.7,4.1,3.8,5.3,5.7c1.3,1.8,1.3,4.9-0.4,7.2
		c-1.7,2.4-4.6,3.4-6.8,2.8c-2.1-0.5-4.6-1.4-6.9-3.1c-2.2-1.6-3.9-3.7-5-5.5c-1.3-1.9-1.2-4.9,0.5-7.3
		C125,121.8,127.9,120.8,130.1,121.4z"/>
	
		<linearGradient id="SVGID_36_" gradientUnits="userSpaceOnUse" x1="-124.4169" y1="1303.9008" x2="-124.4169" y2="1275.631" gradientTransform="matrix(0.6509 -0.4064 0.4064 0.6509 -310.7736 -759.3571)">
		<stop  offset="0" style="stop-color:#00FFC0"/>
		<stop  offset="0.9888" style="stop-color:#A9FF14"/>
	</linearGradient>
	<path class="st35" d="M130.1,121.4c2,0.4,4.4,1.3,6.6,2.9c2.3,1.7,4.1,3.8,5.2,5.7c1.3,1.8,1.2,4.9-0.4,7.2
		c-1.7,2.4-4.6,3.4-6.8,2.8c-2.1-0.4-4.6-1.4-6.9-3c-2.2-1.6-3.9-3.7-5-5.5c-1.3-1.9-1.2-4.9,0.5-7.3
		C125.1,121.8,128,120.8,130.1,121.4z"/>
	
		<linearGradient id="SVGID_37_" gradientUnits="userSpaceOnUse" x1="-100.8325" y1="1292.3899" x2="-100.8325" y2="1264.156" gradientTransform="matrix(0.6527 -0.3949 0.3949 0.6527 -306.5155 -743.4982)">
		<stop  offset="0" style="stop-color:#00FFC0"/>
		<stop  offset="0.9888" style="stop-color:#A9FF14"/>
	</linearGradient>
	<path class="st36" d="M130.2,121.4c2,0.3,4.5,1.2,6.6,2.8c2.3,1.7,4.1,3.8,5.2,5.7c1.2,1.8,1.2,4.9-0.5,7.2
		c-1.7,2.4-4.6,3.4-6.8,2.9c-2.1-0.4-4.6-1.3-6.9-3c-2.2-1.6-3.9-3.7-4.9-5.5c-1.2-1.9-1.1-4.9,0.6-7.3
		C125.2,121.9,128,120.8,130.2,121.4z"/>
	
		<linearGradient id="SVGID_38_" gradientUnits="userSpaceOnUse" x1="-77.3151" y1="1280.0713" x2="-77.3151" y2="1251.8774" gradientTransform="matrix(0.6546 -0.3833 0.3833 0.6546 -302.2574 -727.6392)">
		<stop  offset="0" style="stop-color:#00FFC0"/>
		<stop  offset="0.9888" style="stop-color:#A9FF14"/>
	</linearGradient>
	<path class="st37" d="M130.2,121.4c2,0.3,4.5,1.2,6.6,2.8c2.3,1.7,4.1,3.9,5.1,5.7c1.2,1.8,1.1,4.8-0.5,7.2
		c-1.7,2.4-4.6,3.4-6.8,2.9c-2.1-0.4-4.6-1.3-6.9-2.9c-2.2-1.6-3.9-3.7-4.9-5.6c-1.2-1.9-1.1-4.9,0.6-7.3
		C125.2,121.9,128.1,120.9,130.2,121.4z"/>
	
		<linearGradient id="SVGID_39_" gradientUnits="userSpaceOnUse" x1="-53.9009" y1="1266.9352" x2="-53.9009" y2="1238.7849" gradientTransform="matrix(0.6564 -0.3718 0.3718 0.6564 -297.9994 -711.7803)">
		<stop  offset="0" style="stop-color:#00FFC0"/>
		<stop  offset="0.9888" style="stop-color:#A9FF14"/>
	</linearGradient>
	<path class="st38" d="M130.2,121.4c2,0.3,4.5,1.1,6.7,2.7c2.3,1.7,4.1,3.9,5.1,5.8c1.2,1.8,1.1,4.8-0.6,7.1c-1.7,2.4-4.6,3.5-6.7,3
		c-2.1-0.3-4.6-1.2-6.9-2.9c-2.2-1.6-3.9-3.8-4.8-5.6c-1.2-1.9-1-4.9,0.7-7.3C125.3,122,128.1,120.9,130.2,121.4z"/>
	
		<linearGradient id="SVGID_40_" gradientUnits="userSpaceOnUse" x1="-30.6273" y1="1252.9734" x2="-30.6273" y2="1224.8702" gradientTransform="matrix(0.6583 -0.3603 0.3603 0.6583 -293.7414 -695.9213)">
		<stop  offset="0" style="stop-color:#00FFC0"/>
		<stop  offset="0.9888" style="stop-color:#A9FF14"/>
	</linearGradient>
	<path class="st39" d="M130.3,121.4c2,0.2,4.5,1.1,6.7,2.7c2.3,1.7,4,3.9,5,5.8c1.1,1.9,1,4.8-0.6,7.1c-1.7,2.4-4.6,3.5-6.7,3
		c-2-0.3-4.6-1.2-6.9-2.8c-2.2-1.6-3.9-3.8-4.8-5.6c-1.1-1.9-1-4.9,0.7-7.2C125.3,122,128.1,120.9,130.3,121.4z"/>
	
		<linearGradient id="SVGID_41_" gradientUnits="userSpaceOnUse" x1="-7.5331" y1="1238.1798" x2="-7.5331" y2="1210.127" gradientTransform="matrix(0.6602 -0.3487 0.3487 0.6602 -289.4833 -680.0624)">
		<stop  offset="0" style="stop-color:#00FFC0"/>
		<stop  offset="0.9888" style="stop-color:#A9FF14"/>
	</linearGradient>
	<path class="st40" d="M130.3,121.4c2,0.2,4.5,1,6.7,2.6c2.3,1.7,4,3.9,5,5.8c1.1,1.9,1,4.8-0.7,7.1c-1.7,2.4-4.5,3.5-6.7,3.1
		c-2-0.3-4.6-1.1-6.9-2.8c-2.2-1.6-3.9-3.8-4.7-5.6c-1.1-1.9-0.9-4.9,0.8-7.2C125.4,122,128.2,121,130.3,121.4z"/>
	
		<linearGradient id="SVGID_42_" gradientUnits="userSpaceOnUse" x1="15.3418" y1="1222.5508" x2="15.3418" y2="1194.5511" gradientTransform="matrix(0.662 -0.3372 0.3372 0.662 -285.2253 -664.2034)">
		<stop  offset="0" style="stop-color:#00FFC0"/>
		<stop  offset="0.9888" style="stop-color:#A9FF14"/>
	</linearGradient>
	<path class="st41" d="M130.3,121.4c2,0.2,4.5,1,6.7,2.6c2.3,1.7,4,3.9,4.9,5.8c1.1,1.9,0.9,4.8-0.7,7.1c-1.7,2.4-4.5,3.5-6.7,3.1
		c-2-0.2-4.6-1.1-6.9-2.7c-2.2-1.6-3.9-3.8-4.7-5.7c-1.1-1.9-0.9-4.9,0.8-7.2C125.4,122.1,128.2,121,130.3,121.4z"/>
	
		<linearGradient id="SVGID_43_" gradientUnits="userSpaceOnUse" x1="37.9565" y1="1206.0847" x2="37.9565" y2="1178.141" gradientTransform="matrix(0.6639 -0.3256 0.3256 0.6639 -280.9672 -648.3445)">
		<stop  offset="0" style="stop-color:#00FFC0"/>
		<stop  offset="0.9888" style="stop-color:#A9FF14"/>
	</linearGradient>
	<path class="st42" d="M130.4,121.4c2,0.1,4.5,0.9,6.7,2.5c2.3,1.7,4,3.9,4.9,5.8c1,1.9,0.9,4.8-0.8,7.1c-1.7,2.4-4.5,3.5-6.7,3.2
		c-2-0.2-4.7-1-6.9-2.7c-2.2-1.6-3.9-3.8-4.7-5.7c-1-1.9-0.8-4.9,0.9-7.2C125.5,122.1,128.2,121,130.4,121.4z"/>
	
		<linearGradient id="SVGID_44_" gradientUnits="userSpaceOnUse" x1="60.2692" y1="1188.7828" x2="60.2692" y2="1160.8971" gradientTransform="matrix(0.6657 -0.3141 0.3141 0.6657 -276.7091 -632.4855)">
		<stop  offset="0" style="stop-color:#00FFC0"/>
		<stop  offset="0.9888" style="stop-color:#A9FF14"/>
	</linearGradient>
	<path class="st43" d="M130.4,121.4c2,0.1,4.5,0.9,6.7,2.5c2.3,1.7,4,4,4.8,5.9c1,1.9,0.8,4.8-0.8,7.1c-1.7,2.4-4.5,3.5-6.6,3.2
		c-2-0.2-4.7-1-6.9-2.6c-2.3-1.6-3.8-3.8-4.6-5.7c-1-1.9-0.8-4.9,0.9-7.2C125.5,122.2,128.3,121,130.4,121.4z"/>
	
		<linearGradient id="SVGID_45_" gradientUnits="userSpaceOnUse" x1="82.2378" y1="1170.6487" x2="82.2378" y2="1142.8228" gradientTransform="matrix(0.6676 -0.3026 0.3026 0.6676 -272.4511 -616.6266)">
		<stop  offset="0" style="stop-color:#00FFC0"/>
		<stop  offset="0.9888" style="stop-color:#A9FF14"/>
	</linearGradient>
	<path class="st44" d="M130.4,121.4c2,0.1,4.5,0.8,6.7,2.4c2.3,1.7,4,4,4.8,5.9c1,1.9,0.8,4.8-0.9,7.1c-1.7,2.4-4.5,3.5-6.6,3.3
		c-2-0.1-4.7-0.9-6.9-2.6c-2.3-1.6-3.8-3.9-4.6-5.7c-1-1.9-0.7-4.9,1-7.2C125.6,122.2,128.3,121.1,130.4,121.4z"/>
	
		<linearGradient id="SVGID_46_" gradientUnits="userSpaceOnUse" x1="103.8194" y1="1151.6885" x2="103.8194" y2="1123.924" gradientTransform="matrix(0.6694 -0.291 0.291 0.6694 -268.193 -600.7676)">
		<stop  offset="0" style="stop-color:#00FFC0"/>
		<stop  offset="0.9888" style="stop-color:#A9FF14"/>
	</linearGradient>
	<path class="st45" d="M130.4,121.4c2,0,4.5,0.8,6.7,2.4c2.3,1.7,4,4,4.7,5.9c1,1.9,0.7,4.8-0.9,7.1c-1.7,2.4-4.5,3.5-6.6,3.3
		c-2-0.1-4.7-0.9-6.9-2.5c-2.3-1.6-3.8-3.9-4.5-5.8c-0.9-1.9-0.7-4.9,1-7.2C125.6,122.2,128.4,121.1,130.4,121.4z"/>
	
		<linearGradient id="SVGID_47_" gradientUnits="userSpaceOnUse" x1="124.9709" y1="1131.9114" x2="124.9709" y2="1104.2092" gradientTransform="matrix(0.6713 -0.2795 0.2795 0.6713 -263.935 -584.9087)">
		<stop  offset="0" style="stop-color:#00FFC0"/>
		<stop  offset="0.9888" style="stop-color:#A9FF14"/>
	</linearGradient>
	<path class="st46" d="M130.5,121.4c2,0,4.5,0.7,6.7,2.3c2.3,1.7,3.9,4,4.7,5.9c0.9,1.9,0.7,4.8-1,7.1c-1.7,2.4-4.4,3.6-6.6,3.3
		c-2-0.1-4.7-0.8-7-2.5c-2.3-1.6-3.8-3.9-4.5-5.8c-0.9-1.9-0.6-4.9,1.1-7.2C125.7,122.3,128.4,121.1,130.5,121.4z"/>
	
		<linearGradient id="SVGID_48_" gradientUnits="userSpaceOnUse" x1="145.6493" y1="1111.3293" x2="145.6493" y2="1083.6901" gradientTransform="matrix(0.6731 -0.2679 0.2679 0.6731 -259.6769 -569.0497)">
		<stop  offset="0" style="stop-color:#00FFC0"/>
		<stop  offset="0.9888" style="stop-color:#A9FF14"/>
	</linearGradient>
	<path class="st47" d="M130.5,121.4c1.9,0,4.5,0.7,6.8,2.3c2.3,1.7,3.9,4,4.6,6c0.9,1.9,0.6,4.8-1,7c-1.7,2.4-4.4,3.6-6.5,3.4
		c-2,0-4.7-0.8-7-2.4c-2.3-1.6-3.8-3.9-4.4-5.8c-0.9-1.9-0.6-4.9,1.1-7.2C125.7,122.3,128.4,121.1,130.5,121.4z"/>
	
		<linearGradient id="SVGID_49_" gradientUnits="userSpaceOnUse" x1="165.8115" y1="1089.9573" x2="165.8115" y2="1062.381" gradientTransform="matrix(0.675 -0.2564 0.2564 0.675 -255.4189 -553.1908)">
		<stop  offset="0" style="stop-color:#00FFC0"/>
		<stop  offset="0.9888" style="stop-color:#A9FF14"/>
	</linearGradient>
	<path class="st48" d="M130.5,121.4c1.9,0,4.6,0.6,6.8,2.2c2.3,1.7,3.9,4,4.6,6c0.9,1.9,0.6,4.8-1.1,7c-1.7,2.4-4.4,3.6-6.5,3.4
		c-2,0-4.7-0.7-7-2.4c-2.3-1.6-3.8-3.9-4.4-5.8c-0.8-1.9-0.5-4.8,1.2-7.2C125.8,122.4,128.5,121.2,130.5,121.4z"/>
	
		<linearGradient id="SVGID_50_" gradientUnits="userSpaceOnUse" x1="185.4152" y1="1067.8127" x2="185.4152" y2="1040.2992" gradientTransform="matrix(0.6768 -0.2449 0.2449 0.6768 -251.1608 -537.3318)">
		<stop  offset="0" style="stop-color:#00FFC0"/>
		<stop  offset="0.9888" style="stop-color:#A9FF14"/>
	</linearGradient>
	<path class="st49" d="M130.6,121.4c1.9-0.1,4.6,0.6,6.8,2.2c2.3,1.7,3.9,4,4.6,6c0.8,1.9,0.5,4.8-1.1,7c-1.7,2.4-4.4,3.6-6.5,3.5
		c-2,0-4.7-0.7-7-2.3c-2.3-1.6-3.8-4-4.4-5.9c-0.8-1.9-0.5-4.8,1.2-7.2C125.8,122.4,128.5,121.2,130.6,121.4z"/>
	
		<linearGradient id="SVGID_51_" gradientUnits="userSpaceOnUse" x1="204.4184" y1="1044.9166" x2="204.4184" y2="1017.4649" gradientTransform="matrix(0.6787 -0.2333 0.2333 0.6787 -246.9028 -521.4729)">
		<stop  offset="0" style="stop-color:#00FFC0"/>
		<stop  offset="0.9888" style="stop-color:#A9FF14"/>
	</linearGradient>
	<path class="st50" d="M130.6,121.4c1.9-0.1,4.6,0.5,6.8,2.1c2.3,1.7,3.9,4.1,4.5,6c0.8,1.9,0.5,4.7-1.2,7c-1.7,2.4-4.4,3.6-6.5,3.5
		c-2,0.1-4.7-0.6-7-2.3c-2.3-1.6-3.8-4-4.3-5.9c-0.8-1.9-0.4-4.8,1.3-7.2C125.9,122.4,128.5,121.2,130.6,121.4z"/>
	
		<linearGradient id="SVGID_52_" gradientUnits="userSpaceOnUse" x1="222.7802" y1="1021.2925" x2="222.7802" y2="993.9012" gradientTransform="matrix(0.6805 -0.2218 0.2218 0.6805 -242.6447 -505.6139)">
		<stop  offset="0" style="stop-color:#00FFC0"/>
		<stop  offset="0.9888" style="stop-color:#A9FF14"/>
	</linearGradient>
	<path class="st51" d="M130.6,121.3c1.9-0.1,4.6,0.5,6.8,2.1c2.3,1.7,3.9,4.1,4.5,6c0.8,1.9,0.4,4.7-1.2,7c-1.7,2.4-4.4,3.6-6.5,3.6
		c-2,0.1-4.7-0.6-7-2.2c-2.3-1.6-3.8-4-4.3-5.9c-0.7-1.9-0.4-4.8,1.3-7.1C125.9,122.5,128.6,121.3,130.6,121.3z"/>
	
		<linearGradient id="SVGID_53_" gradientUnits="userSpaceOnUse" x1="240.4607" y1="996.9667" x2="240.4607" y2="969.6341" gradientTransform="matrix(0.6824 -0.2102 0.2102 0.6824 -238.3867 -489.755)">
		<stop  offset="0" style="stop-color:#00FFC0"/>
		<stop  offset="0.9888" style="stop-color:#A9FF14"/>
	</linearGradient>
	<path class="st52" d="M130.7,121.3c1.9-0.2,4.6,0.4,6.8,2.1c2.3,1.7,3.9,4.1,4.4,6.1c0.7,1.9,0.4,4.7-1.2,7
		c-1.7,2.4-4.4,3.6-6.4,3.6c-2,0.1-4.7-0.5-7-2.2c-2.3-1.6-3.7-4-4.2-5.9c-0.7-1.9-0.3-4.8,1.4-7.1
		C126,122.5,128.6,121.3,130.7,121.3z"/>
	
		<linearGradient id="SVGID_54_" gradientUnits="userSpaceOnUse" x1="257.4215" y1="971.9686" x2="257.4215" y2="944.6924" gradientTransform="matrix(0.6843 -0.1987 0.1987 0.6843 -234.1286 -473.896)">
		<stop  offset="0" style="stop-color:#00FFC0"/>
		<stop  offset="0.9888" style="stop-color:#A9FF14"/>
	</linearGradient>
	<path class="st53" d="M130.7,121.3c1.9-0.2,4.6,0.4,6.8,2c2.3,1.7,3.9,4.1,4.4,6.1c0.7,1.9,0.3,4.7-1.3,7c-1.7,2.3-4.3,3.7-6.4,3.7
		c-2,0.2-4.7-0.5-7-2.1c-2.3-1.6-3.7-4-4.2-6c-0.7-1.9-0.3-4.8,1.4-7.1C126.1,122.6,128.7,121.3,130.7,121.3z"/>
	
		<linearGradient id="SVGID_55_" gradientUnits="userSpaceOnUse" x1="273.6259" y1="946.3301" x2="273.6259" y2="919.1075" gradientTransform="matrix(0.6861 -0.1872 0.1872 0.6861 -229.8705 -458.0371)">
		<stop  offset="0" style="stop-color:#00FFC0"/>
		<stop  offset="0.9888" style="stop-color:#A9FF14"/>
	</linearGradient>
	<path class="st54" d="M130.7,121.3c1.9-0.2,4.6,0.3,6.8,2c2.3,1.7,3.8,4.1,4.3,6.1c0.7,1.9,0.3,4.7-1.3,7c-1.7,2.3-4.3,3.7-6.4,3.7
		c-2,0.2-4.7-0.4-7-2.1c-2.3-1.6-3.7-4-4.1-6c-0.6-1.9-0.2-4.8,1.4-7.1C126.1,122.6,128.7,121.3,130.7,121.3z"/>
	
		<linearGradient id="SVGID_56_" gradientUnits="userSpaceOnUse" x1="289.0387" y1="920.0859" x2="289.0387" y2="892.9136" gradientTransform="matrix(0.688 -0.1756 0.1756 0.688 -225.6125 -442.1781)">
		<stop  offset="0" style="stop-color:#00FFC0"/>
		<stop  offset="0.9888" style="stop-color:#A9FF14"/>
	</linearGradient>
	<path class="st55" d="M130.8,121.3c1.9-0.3,4.6,0.3,6.8,1.9c2.3,1.7,3.8,4.1,4.3,6.1c0.6,1.9,0.2,4.7-1.4,7
		c-1.7,2.3-4.3,3.7-6.4,3.8c-2,0.2-4.7-0.4-7-2c-2.3-1.6-3.7-4.1-4.1-6c-0.6-1.9-0.2-4.8,1.5-7.1
		C126.2,122.6,128.7,121.4,130.8,121.3z"/>
	
		<linearGradient id="SVGID_57_" gradientUnits="userSpaceOnUse" x1="303.6272" y1="893.2729" x2="303.6272" y2="866.1473" gradientTransform="matrix(0.6898 -0.1641 0.1641 0.6898 -221.3544 -426.3192)">
		<stop  offset="0" style="stop-color:#00FFC0"/>
		<stop  offset="0.9888" style="stop-color:#A9FF14"/>
	</linearGradient>
	<path class="st56" d="M130.8,121.3c1.9-0.3,4.6,0.2,6.9,1.9c2.3,1.7,3.8,4.2,4.2,6.2c0.6,1.9,0.2,4.7-1.4,6.9
		c-1.7,2.3-4.3,3.7-6.3,3.8c-2,0.3-4.7-0.3-7-2c-2.3-1.6-3.7-4.1-4.1-6c-0.6-1.9-0.1-4.8,1.5-7.1
		C126.2,122.7,128.8,121.4,130.8,121.3z"/>
	
		<linearGradient id="SVGID_58_" gradientUnits="userSpaceOnUse" x1="317.3608" y1="865.9307" x2="317.3608" y2="838.8474" gradientTransform="matrix(0.6917 -0.1525 0.1525 0.6917 -217.0964 -410.4602)">
		<stop  offset="0" style="stop-color:#00FFC0"/>
		<stop  offset="0.9888" style="stop-color:#A9FF14"/>
	</linearGradient>
	<path class="st57" d="M130.8,121.3c1.9-0.3,4.6,0.2,6.9,1.8c2.3,1.7,3.8,4.2,4.2,6.2c0.6,1.9,0.1,4.7-1.5,6.9
		c-1.7,2.3-4.3,3.7-6.3,3.9c-2,0.3-4.7-0.3-7-1.9c-2.3-1.6-3.7-4.1-4-6c-0.5-2-0.1-4.8,1.6-7.1C126.3,122.7,128.8,121.4,130.8,121.3
		z"/>
	
		<linearGradient id="SVGID_59_" gradientUnits="userSpaceOnUse" x1="330.2114" y1="838.1004" x2="330.2114" y2="811.055" gradientTransform="matrix(0.6935 -0.141 0.141 0.6935 -212.8383 -394.6013)">
		<stop  offset="0" style="stop-color:#00FFC0"/>
		<stop  offset="0.9888" style="stop-color:#A9FF14"/>
	</linearGradient>
	<path class="st58" d="M130.8,121.3c1.9-0.4,4.6,0.1,6.9,1.8c2.3,1.7,3.8,4.2,4.1,6.2c0.5,1.9,0.1,4.7-1.5,6.9
		c-1.7,2.3-4.3,3.7-6.3,3.9c-2,0.3-4.8-0.2-7-1.9c-2.3-1.6-3.7-4.1-4-6.1c-0.5-2,0-4.8,1.6-7.1C126.3,122.8,128.8,121.4,130.8,121.3
		z"/>
	
		<linearGradient id="SVGID_60_" gradientUnits="userSpaceOnUse" x1="342.1536" y1="809.8256" x2="342.1536" y2="782.813" gradientTransform="matrix(0.6954 -0.1295 0.1295 0.6954 -208.5803 -378.7423)">
		<stop  offset="0" style="stop-color:#00FFC0"/>
		<stop  offset="0.9888" style="stop-color:#A9FF14"/>
	</linearGradient>
	<path class="st59" d="M130.9,121.3c1.9-0.4,4.6,0.1,6.9,1.7c2.3,1.7,3.8,4.2,4.1,6.2c0.5,1.9,0,4.7-1.6,6.9c-1.7,2.3-4.2,3.7-6.3,4
		c-2,0.4-4.8-0.2-7.1-1.8c-2.3-1.7-3.7-4.1-3.9-6.1c-0.5-2,0-4.8,1.7-7.1C126.4,122.8,128.9,121.5,130.9,121.3z"/>
	
		<linearGradient id="SVGID_61_" gradientUnits="userSpaceOnUse" x1="353.1649" y1="781.1512" x2="353.1649" y2="754.1661" gradientTransform="matrix(0.6972 -0.1179 0.1179 0.6972 -204.3222 -362.8834)">
		<stop  offset="0" style="stop-color:#00FFC0"/>
		<stop  offset="0.9888" style="stop-color:#A9FF14"/>
	</linearGradient>
	<path class="st60" d="M130.9,121.3c1.9-0.4,4.7,0.1,6.9,1.7c2.3,1.7,3.8,4.2,4,6.2c0.5,1.9,0,4.7-1.6,6.9c-1.7,2.3-4.2,3.7-6.3,4
		c-2,0.4-4.8-0.1-7.1-1.8c-2.3-1.7-3.6-4.1-3.9-6.1c-0.4-2,0.1-4.8,1.7-7.1C126.4,122.8,128.9,121.5,130.9,121.3z"/>
	
		<linearGradient id="SVGID_62_" gradientUnits="userSpaceOnUse" x1="363.2258" y1="752.1395" x2="363.2258" y2="725.1351" gradientTransform="matrix(0.6991 -0.1064 0.1064 0.6991 -200.0642 -347.0244)">
		<stop  offset="0" style="stop-color:#00FFC0"/>
		<stop  offset="0.9888" style="stop-color:#A9FF14"/>
	</linearGradient>
	<path class="st61" d="M130.9,121.3c1.9-0.5,4.7,0,6.9,1.6c2.3,1.7,3.7,4.2,4,6.3c0.4,1.9-0.1,4.7-1.7,6.9c-1.7,2.3-4.2,3.8-6.2,4
		c-2,0.4-4.8-0.1-7.1-1.7c-2.3-1.7-3.6-4.2-3.8-6.1c-0.4-2,0.1-4.8,1.8-7.1C126.5,122.9,129,121.5,130.9,121.3z"/>
	
		<linearGradient id="SVGID_63_" gradientUnits="userSpaceOnUse" x1="372.3196" y1="722.8265" x2="372.3196" y2="695.7861" gradientTransform="matrix(0.7009 -9.483971e-02 9.483971e-02 0.7009 -195.8061 -331.1655)">
		<stop  offset="0" style="stop-color:#00FFC0"/>
		<stop  offset="0.9888" style="stop-color:#A9FF14"/>
	</linearGradient>
	<path class="st62" d="M131,121.3c1.9-0.5,4.7,0,6.9,1.6c2.3,1.7,3.7,4.2,4,6.3c0.4,1.9-0.1,4.6-1.7,6.9c-1.7,2.3-4.2,3.8-6.2,4.1
		c-2,0.5-4.8,0-7.1-1.7c-2.3-1.7-3.6-4.2-3.8-6.2c-0.4-2,0.2-4.8,1.8-7.1C126.5,122.9,129,121.6,131,121.3z"/>
	
		<linearGradient id="SVGID_64_" gradientUnits="userSpaceOnUse" x1="380.4332" y1="693.256" x2="380.4332" y2="666.1749" gradientTransform="matrix(0.7028 -8.329993e-02 8.329993e-02 0.7028 -191.5481 -315.3065)">
		<stop  offset="0" style="stop-color:#00FFC0"/>
		<stop  offset="0.9888" style="stop-color:#A9FF14"/>
	</linearGradient>
	<path class="st63" d="M131,121.3c1.9-0.5,4.7-0.1,6.9,1.5c2.3,1.7,3.7,4.3,3.9,6.3c0.4,1.9-0.1,4.6-1.8,6.9
		c-1.7,2.3-4.2,3.8-6.2,4.1c-2,0.5-4.8,0-7.1-1.6c-2.3-1.7-3.6-4.2-3.7-6.2c-0.3-2,0.2-4.8,1.9-7C126.6,123,129,121.6,131,121.3z"/>
	
		<linearGradient id="SVGID_65_" gradientUnits="userSpaceOnUse" x1="387.5564" y1="663.4769" x2="387.5564" y2="636.351" gradientTransform="matrix(0.7046 -7.176016e-02 7.176016e-02 0.7046 -187.29 -299.4476)">
		<stop  offset="0" style="stop-color:#00FFC0"/>
		<stop  offset="0.9888" style="stop-color:#A9FF14"/>
	</linearGradient>
	<path class="st64" d="M131,121.3c1.9-0.6,4.7-0.1,6.9,1.5c2.3,1.7,3.7,4.3,3.9,6.3c0.3,1.9-0.2,4.6-1.8,6.9
		c-1.7,2.3-4.2,3.8-6.2,4.2c-2,0.5-4.8,0.1-7.1-1.6c-2.3-1.7-3.6-4.2-3.7-6.2c-0.3-2,0.3-4.7,1.9-7C126.6,123,129.1,121.6,131,121.3
		z"/>
	
		<linearGradient id="SVGID_66_" gradientUnits="userSpaceOnUse" x1="393.6825" y1="633.5387" x2="393.6825" y2="606.3641" gradientTransform="matrix(0.7065 -6.022038e-02 6.022038e-02 0.7065 -183.032 -283.5887)">
		<stop  offset="0" style="stop-color:#00FFC0"/>
		<stop  offset="0.9888" style="stop-color:#A9FF14"/>
	</linearGradient>
	<path class="st65" d="M131.1,121.3c1.9-0.6,4.7-0.2,6.9,1.4c2.3,1.7,3.7,4.3,3.8,6.3c0.3,1.9-0.2,4.6-1.9,6.9
		c-1.7,2.3-4.2,3.8-6.2,4.2c-1.9,0.6-4.8,0.1-7.1-1.5c-2.3-1.7-3.6-4.2-3.7-6.2c-0.3-2,0.3-4.7,2-7
		C126.7,123.1,129.1,121.6,131.1,121.3z"/>
	
		<linearGradient id="SVGID_67_" gradientUnits="userSpaceOnUse" x1="398.8078" y1="603.491" x2="398.8078" y2="576.2641" gradientTransform="matrix(0.7084 -4.868061e-02 4.868061e-02 0.7084 -178.7739 -267.7297)">
		<stop  offset="0" style="stop-color:#00FFC0"/>
		<stop  offset="0.9888" style="stop-color:#A9FF14"/>
	</linearGradient>
	<path class="st66" d="M131.1,121.3c1.9-0.6,4.7-0.2,7,1.4c2.3,1.7,3.7,4.3,3.8,6.4c0.3,1.9-0.3,4.6-1.9,6.8
		c-1.7,2.3-4.1,3.8-6.1,4.3c-1.9,0.6-4.8,0.2-7.1-1.5c-2.3-1.7-3.6-4.2-3.6-6.3c-0.2-2,0.4-4.7,2-7
		C126.7,123.1,129.1,121.7,131.1,121.3z"/>
	
		<linearGradient id="SVGID_68_" gradientUnits="userSpaceOnUse" x1="402.9323" y1="573.383" x2="402.9323" y2="546.101" gradientTransform="matrix(0.7102 -3.714083e-02 3.714083e-02 0.7102 -174.5159 -251.8708)">
		<stop  offset="0" style="stop-color:#00FFC0"/>
		<stop  offset="0.9888" style="stop-color:#A9FF14"/>
	</linearGradient>
	<path class="st67" d="M131.1,121.3c1.9-0.7,4.7-0.3,7,1.3c2.3,1.7,3.7,4.3,3.7,6.4c0.2,1.9-0.3,4.6-2,6.8c-1.7,2.3-4.1,3.8-6.1,4.3
		c-1.9,0.6-4.8,0.2-7.1-1.4c-2.3-1.7-3.6-4.3-3.6-6.3c-0.2-2,0.4-4.7,2.1-7C126.8,123.1,129.2,121.7,131.1,121.3z"/>
	
		<linearGradient id="SVGID_69_" gradientUnits="userSpaceOnUse" x1="406.0591" y1="543.2639" x2="406.0591" y2="515.9241" gradientTransform="matrix(0.7121 -2.560106e-02 2.560106e-02 0.7121 -170.2578 -236.0118)">
		<stop  offset="0" style="stop-color:#00FFC0"/>
		<stop  offset="0.9888" style="stop-color:#A9FF14"/>
	</linearGradient>
	<path class="st68" d="M131.2,121.3c1.9-0.7,4.7-0.3,7,1.3c2.3,1.7,3.7,4.3,3.7,6.4c0.2,1.9-0.4,4.6-2,6.8c-1.7,2.3-4.1,3.9-6.1,4.4
		c-1.9,0.7-4.8,0.3-7.1-1.4c-2.3-1.7-3.6-4.3-3.5-6.3c-0.2-2,0.5-4.7,2.1-7C126.8,123.2,129.2,121.7,131.2,121.3z"/>
	
		<linearGradient id="SVGID_70_" gradientUnits="userSpaceOnUse" x1="408.1943" y1="513.182" x2="408.1943" y2="485.7823" gradientTransform="matrix(0.7139 -1.406128e-02 1.406128e-02 0.7139 -165.9997 -220.1529)">
		<stop  offset="0" style="stop-color:#00FFC0"/>
		<stop  offset="0.9888" style="stop-color:#A9FF14"/>
	</linearGradient>
	<path class="st69" d="M131.2,121.3c1.9-0.7,4.7-0.4,7,1.2c2.4,1.7,3.6,4.4,3.6,6.4c0.2,1.9-0.4,4.6-2.1,6.8
		c-1.7,2.3-4.1,3.9-6.1,4.4c-1.9,0.7-4.8,0.3-7.1-1.4c-2.3-1.7-3.5-4.3-3.5-6.3c-0.1-2,0.5-4.7,2.2-7
		C126.9,123.2,129.3,121.7,131.2,121.3z"/>
	
		<linearGradient id="SVGID_71_" gradientUnits="userSpaceOnUse" x1="409.3472" y1="483.1848" x2="409.3472" y2="455.7235" gradientTransform="matrix(0.7158 -2.521505e-03 2.521505e-03 0.7158 -161.7417 -204.2939)">
		<stop  offset="0" style="stop-color:#00FFC0"/>
		<stop  offset="0.9888" style="stop-color:#A9FF14"/>
	</linearGradient>
	<path class="st70" d="M131.2,121.3c1.9-0.8,4.7-0.4,7,1.2c2.4,1.7,3.6,4.4,3.6,6.5c0.1,1.9-0.5,4.6-2.1,6.8c-1.7,2.3-4.1,3.9-6,4.5
		c-1.9,0.7-4.8,0.4-7.1-1.3c-2.3-1.7-3.5-4.3-3.4-6.4c-0.1-2,0.6-4.7,2.2-7C126.9,123.3,129.3,121.8,131.2,121.3z"/>
	
		<linearGradient id="SVGID_72_" gradientUnits="userSpaceOnUse" x1="409.5302" y1="453.3187" x2="409.5302" y2="425.7945" gradientTransform="matrix(0.7176 9.018270e-03 -9.018270e-03 0.7176 -157.4836 -188.435)">
		<stop  offset="0" style="stop-color:#00FFC0"/>
		<stop  offset="0.9888" style="stop-color:#A9FF14"/>
	</linearGradient>
	<path class="st71" d="M131.2,121.2c1.9-0.8,4.7-0.5,7,1.2c2.4,1.7,3.6,4.4,3.5,6.5c0.1,1.9-0.5,4.6-2.1,6.8c-1.7,2.3-4.1,3.9-6,4.5
		c-1.9,0.8-4.8,0.4-7.2-1.3c-2.3-1.7-3.5-4.3-3.4-6.4c-0.1-2,0.6-4.7,2.3-7C127,123.3,129.3,121.8,131.2,121.2z"/>
	
		<linearGradient id="SVGID_73_" gradientUnits="userSpaceOnUse" x1="408.7581" y1="423.6287" x2="408.7581" y2="396.0408" gradientTransform="matrix(0.7195 2.055805e-02 -2.055805e-02 0.7195 -153.2256 -172.576)">
		<stop  offset="0" style="stop-color:#00FFC0"/>
		<stop  offset="0.9888" style="stop-color:#A9FF14"/>
	</linearGradient>
	<path class="st72" d="M131.3,121.2c1.9-0.8,4.8-0.5,7,1.1c2.4,1.7,3.6,4.4,3.5,6.5c0.1,1.9-0.6,4.6-2.2,6.8c-1.7,2.3-4,3.9-6,4.6
		c-1.9,0.8-4.8,0.5-7.2-1.2c-2.3-1.7-3.5-4.3-3.4-6.4c0-2,0.7-4.7,2.3-7C127.1,123.3,129.4,121.8,131.3,121.2z"/>
	
		<linearGradient id="SVGID_74_" gradientUnits="userSpaceOnUse" x1="407.0488" y1="394.1581" x2="407.0488" y2="366.5063" gradientTransform="matrix(0.7213 3.209782e-02 -3.209782e-02 0.7213 -148.9675 -156.7171)">
		<stop  offset="0" style="stop-color:#00FFC0"/>
		<stop  offset="0.9888" style="stop-color:#A9FF14"/>
	</linearGradient>
	<path class="st73" d="M131.3,121.2c1.9-0.9,4.8-0.6,7,1.1c2.4,1.7,3.6,4.4,3.4,6.5c0,1.9-0.6,4.6-2.2,6.8c-1.7,2.3-4,3.9-6,4.6
		c-1.9,0.8-4.8,0.5-7.2-1.2c-2.3-1.7-3.5-4.4-3.3-6.4c0-2,0.7-4.7,2.4-7C127.1,123.4,129.4,121.9,131.3,121.2z"/>
	
		<linearGradient id="SVGID_75_" gradientUnits="userSpaceOnUse" x1="404.4225" y1="364.9487" x2="404.4225" y2="337.2332" gradientTransform="matrix(0.7232 4.363760e-02 -4.363760e-02 0.7232 -144.7095 -140.8581)">
		<stop  offset="0" style="stop-color:#00FFC0"/>
		<stop  offset="0.9888" style="stop-color:#A9FF14"/>
	</linearGradient>
	<path class="st74" d="M131.3,121.2c1.9-0.9,4.8-0.6,7,1c2.4,1.7,3.6,4.4,3.4,6.5c0,1.9-0.7,4.5-2.3,6.8c-1.7,2.3-4,3.9-6,4.6
		c-1.9,0.9-4.9,0.6-7.2-1.1c-2.3-1.7-3.5-4.4-3.3-6.4c0-2,0.8-4.7,2.4-7C127.2,123.4,129.4,121.9,131.3,121.2z"/>
	
		<linearGradient id="SVGID_76_" gradientUnits="userSpaceOnUse" x1="400.9017" y1="336.0404" x2="400.9017" y2="308.2617" gradientTransform="matrix(0.725 5.517737e-02 -5.517737e-02 0.725 -140.4514 -124.9992)">
		<stop  offset="0" style="stop-color:#00FFC0"/>
		<stop  offset="0.9888" style="stop-color:#A9FF14"/>
	</linearGradient>
	<path class="st75" d="M131.4,121.2c1.9-0.9,4.8-0.7,7.1,1c2.4,1.7,3.6,4.4,3.3,6.6c0,2-0.7,4.5-2.3,6.7c-1.7,2.3-4,3.9-5.9,4.7
		c-1.9,0.9-4.9,0.6-7.2-1.1c-2.3-1.7-3.5-4.4-3.2-6.5c0.1-2,0.8-4.7,2.5-7C127.2,123.5,129.5,121.9,131.4,121.2z"/>
	
		<linearGradient id="SVGID_77_" gradientUnits="userSpaceOnUse" x1="396.5111" y1="307.471" x2="396.5111" y2="279.63" gradientTransform="matrix(0.7269 6.671715e-02 -6.671715e-02 0.7269 -136.1934 -109.1402)">
		<stop  offset="0" style="stop-color:#00FFC0"/>
		<stop  offset="0.9888" style="stop-color:#A9FF14"/>
	</linearGradient>
	<path class="st76" d="M131.4,121.2c1.9-1,4.8-0.7,7.1,0.9c2.4,1.7,3.5,4.5,3.3,6.6c0,2-0.8,4.5-2.4,6.7c-1.7,2.3-4,4-5.9,4.7
		c-1.9,0.9-4.9,0.7-7.2-1c-2.3-1.7-3.5-4.4-3.2-6.5c0.1-2,0.9-4.7,2.5-6.9C127.3,123.5,129.5,121.9,131.4,121.2z"/>
	
		<linearGradient id="SVGID_78_" gradientUnits="userSpaceOnUse" x1="391.2774" y1="279.2761" x2="391.2774" y2="251.3743" gradientTransform="matrix(0.7287 7.825692e-02 -7.825692e-02 0.7287 -131.9353 -93.2813)">
		<stop  offset="0" style="stop-color:#00FFC0"/>
		<stop  offset="0.9888" style="stop-color:#A9FF14"/>
	</linearGradient>
	<path class="st77" d="M131.4,121.2c1.9-1,4.8-0.8,7.1,0.9c2.4,1.7,3.5,4.5,3.3,6.6c-0.1,2-0.8,4.5-2.4,6.7c-1.7,2.3-4,4-5.9,4.8
		c-1.9,1-4.9,0.7-7.2-1c-2.3-1.7-3.5-4.4-3.1-6.5c0.1-2,0.9-4.7,2.6-6.9C127.3,123.5,129.6,122,131.4,121.2z"/>
	
		<linearGradient id="SVGID_79_" gradientUnits="userSpaceOnUse" x1="385.2288" y1="251.4891" x2="385.2288" y2="223.5283" gradientTransform="matrix(0.7306 8.979670e-02 -8.979670e-02 0.7306 -127.6773 -77.4223)">
		<stop  offset="0" style="stop-color:#00FFC0"/>
		<stop  offset="0.9888" style="stop-color:#A9FF14"/>
	</linearGradient>
	<path class="st78" d="M131.5,121.2c1.9-1,4.8-0.8,7.1,0.8c2.4,1.7,3.5,4.5,3.2,6.6c-0.1,2-0.9,4.5-2.5,6.7c-1.7,2.3-4,4-5.9,4.8
		c-1.9,1-4.9,0.8-7.2-0.9c-2.3-1.7-3.4-4.4-3.1-6.5c0.2-2,1-4.7,2.6-6.9C127.4,123.6,129.6,122,131.5,121.2z"/>
	
		<linearGradient id="SVGID_80_" gradientUnits="userSpaceOnUse" x1="378.3951" y1="224.1412" x2="378.3951" y2="196.1236" gradientTransform="matrix(0.7325 0.1013 -0.1013 0.7325 -123.4192 -61.5634)">
		<stop  offset="0" style="stop-color:#00FFC0"/>
		<stop  offset="0.9888" style="stop-color:#A9FF14"/>
	</linearGradient>
	<path class="st79" d="M131.5,121.2c1.9-1,4.8-0.9,7.1,0.8c2.4,1.7,3.5,4.5,3.2,6.7c-0.1,2-0.9,4.5-2.5,6.7c-1.7,2.3-3.9,4-5.8,4.9
		c-1.9,1-4.9,0.8-7.2-0.9c-2.3-1.7-3.4-4.5-3-6.6c0.2-2,1-4.7,2.7-6.9C127.4,123.6,129.6,122,131.5,121.2z"/>
	
		<linearGradient id="SVGID_81_" gradientUnits="userSpaceOnUse" x1="370.8076" y1="197.2609" x2="370.8076" y2="169.189" gradientTransform="matrix(0.7343 0.1129 -0.1129 0.7343 -119.1612 -45.7044)">
		<stop  offset="0" style="stop-color:#00FFC0"/>
		<stop  offset="0.9888" style="stop-color:#A9FF14"/>
	</linearGradient>
	<path class="st80" d="M131.5,121.2c1.9-1.1,4.8-0.9,7.1,0.7c2.4,1.7,3.5,4.5,3.1,6.7c-0.2,2-1,4.5-2.6,6.7c-1.7,2.3-3.9,4-5.8,4.9
		c-1.9,1.1-4.9,0.9-7.2-0.8c-2.3-1.7-3.4-4.5-3-6.6c0.2-2,1.1-4.6,2.7-6.9C127.5,123.7,129.7,122,131.5,121.2z"/>
	
		<linearGradient id="SVGID_82_" gradientUnits="userSpaceOnUse" x1="362.4984" y1="170.8748" x2="362.4984" y2="142.7513" gradientTransform="matrix(0.7362 0.1244 -0.1244 0.7362 -114.9031 -29.8455)">
		<stop  offset="0" style="stop-color:#00FFC0"/>
		<stop  offset="0.9888" style="stop-color:#A9FF14"/>
	</linearGradient>
	<path class="st81" d="M131.5,121.2c1.9-1.1,4.8-1,7.1,0.7c2.4,1.7,3.5,4.5,3.1,6.7c-0.2,2-1,4.5-2.6,6.7c-1.7,2.3-3.9,4-5.8,5
		c-1.9,1.1-4.9,0.9-7.2-0.8c-2.3-1.7-3.4-4.5-3-6.6c0.3-2,1.1-4.6,2.8-6.9C127.5,123.7,129.7,122.1,131.5,121.2z"/>
	
		<linearGradient id="SVGID_83_" gradientUnits="userSpaceOnUse" x1="353.5006" y1="145.0065" x2="353.5006" y2="116.8346" gradientTransform="matrix(0.738 0.136 -0.136 0.738 -110.6451 -13.9865)">
		<stop  offset="0" style="stop-color:#00FFC0"/>
		<stop  offset="0.9888" style="stop-color:#A9FF14"/>
	</linearGradient>
	<path class="st82" d="M131.6,121.2c1.9-1.1,4.8-1,7.1,0.6c2.4,1.7,3.5,4.6,3,6.7c-0.2,2-1.1,4.5-2.7,6.7c-1.7,2.3-3.9,4-5.8,5
		c-1.9,1.1-4.9,1-7.2-0.7c-2.3-1.7-3.4-4.5-2.9-6.6c0.3-2,1.2-4.6,2.8-6.9C127.6,123.7,129.7,122.1,131.6,121.2z"/>
	
		<linearGradient id="SVGID_84_" gradientUnits="userSpaceOnUse" x1="343.848" y1="119.6775" x2="343.848" y2="91.4607" gradientTransform="matrix(0.7399 0.1475 -0.1475 0.7399 -106.387 1.8724)">
		<stop  offset="0" style="stop-color:#00FFC0"/>
		<stop  offset="0.9888" style="stop-color:#A9FF14"/>
	</linearGradient>
	<path class="st83" d="M131.6,121.2c1.8-1.2,4.8-1.1,7.1,0.6c2.4,1.7,3.5,4.6,3,6.7c-0.3,2-1.1,4.5-2.7,6.7
		c-1.7,2.3-3.9,4.1-5.8,5.1c-1.9,1.2-4.9,1-7.3-0.7c-2.3-1.7-3.4-4.5-2.9-6.7c0.3-2.1,1.2-4.6,2.9-6.9
		C127.6,123.8,129.8,122.1,131.6,121.2z"/>
	
		<linearGradient id="SVGID_85_" gradientUnits="userSpaceOnUse" x1="333.5749" y1="94.9069" x2="333.5749" y2="66.6487" gradientTransform="matrix(0.7417 0.159 -0.159 0.7417 -102.1289 17.7314)">
		<stop  offset="0" style="stop-color:#00FFC0"/>
		<stop  offset="0.9888" style="stop-color:#A9FF14"/>
	</linearGradient>
	<path class="st84" d="M131.6,121.2c1.8-1.2,4.8-1.1,7.2,0.5c2.4,1.7,3.4,4.6,2.9,6.8c-0.3,2-1.2,4.5-2.8,6.6
		c-1.7,2.3-3.9,4.1-5.7,5.1c-1.9,1.2-4.9,1.1-7.3-0.6c-2.3-1.7-3.4-4.5-2.8-6.7c0.4-2.1,1.3-4.6,2.9-6.9
		C127.7,123.8,129.8,122.2,131.6,121.2z"/>
	
		<linearGradient id="SVGID_86_" gradientUnits="userSpaceOnUse" x1="322.7158" y1="70.7113" x2="322.7158" y2="42.4156" gradientTransform="matrix(0.7436 0.1706 -0.1706 0.7436 -97.8709 33.5903)">
		<stop  offset="0" style="stop-color:#00FFC0"/>
		<stop  offset="0.9888" style="stop-color:#A9FF14"/>
	</linearGradient>
	<path class="st85" d="M131.7,121.2c1.8-1.2,4.9-1.2,7.2,0.5c2.4,1.7,3.4,4.6,2.9,6.8c-0.3,2-1.2,4.5-2.8,6.6
		c-1.7,2.3-3.8,4.1-5.7,5.2c-1.9,1.2-4.9,1.1-7.3-0.6c-2.3-1.7-3.4-4.6-2.8-6.7c0.4-2.1,1.3-4.6,3-6.9
		C127.7,123.9,129.9,122.2,131.7,121.2z"/>
	
		<linearGradient id="SVGID_87_" gradientUnits="userSpaceOnUse" x1="311.3055" y1="47.105" x2="311.3055" y2="18.7759" gradientTransform="matrix(0.7454 0.1821 -0.1821 0.7454 -93.6128 49.4493)">
		<stop  offset="0" style="stop-color:#00FFC0"/>
		<stop  offset="0.9888" style="stop-color:#A9FF14"/>
	</linearGradient>
	<path class="st86" d="M131.7,121.2c1.8-1.3,4.9-1.2,7.2,0.4c2.4,1.7,3.4,4.6,2.8,6.8c-0.4,2-1.3,4.4-2.9,6.6
		c-1.7,2.3-3.8,4.1-5.7,5.2c-1.9,1.3-4.9,1.2-7.3-0.5c-2.3-1.7-3.4-4.6-2.7-6.7c0.4-2.1,1.4-4.6,3-6.9
		C127.8,123.9,129.9,122.2,131.7,121.2z"/>
	
		<linearGradient id="SVGID_88_" gradientUnits="userSpaceOnUse" x1="299.3785" y1="24.1002" x2="299.3785" y2="-4.2582" gradientTransform="matrix(0.7473 0.1937 -0.1937 0.7473 -89.3548 65.3082)">
		<stop  offset="0" style="stop-color:#00FFC0"/>
		<stop  offset="0.9888" style="stop-color:#A9FF14"/>
	</linearGradient>
	<path class="st87" d="M131.7,121.2c1.8-1.3,4.9-1.3,7.2,0.4c2.4,1.7,3.4,4.6,2.8,6.8c-0.4,2-1.3,4.4-2.9,6.6
		c-1.7,2.3-3.8,4.1-5.7,5.3c-1.9,1.3-4.9,1.2-7.3-0.5c-2.3-1.7-3.3-4.6-2.7-6.8c0.5-2.1,1.4-4.6,3.1-6.9
		C127.8,123.9,129.9,122.2,131.7,121.2z"/>
	
		<linearGradient id="SVGID_89_" gradientUnits="userSpaceOnUse" x1="286.9693" y1="1.7066" x2="286.9693" y2="-26.6767" gradientTransform="matrix(0.7491 0.2052 -0.2052 0.7491 -85.0967 81.1672)">
		<stop  offset="0" style="stop-color:#00FFC0"/>
		<stop  offset="0.9888" style="stop-color:#A9FF14"/>
	</linearGradient>
	<path class="st88" d="M131.8,121.2c1.8-1.3,4.9-1.3,7.2,0.3c2.4,1.7,3.4,4.6,2.7,6.8c-0.4,2-1.4,4.4-3,6.6
		c-1.7,2.3-3.8,4.1-5.7,5.3c-1.9,1.3-4.9,1.3-7.3-0.4c-2.3-1.7-3.3-4.6-2.7-6.8c0.5-2.1,1.5-4.6,3.1-6.8
		C127.9,124,130,122.3,131.8,121.2z"/>
	
		<linearGradient id="SVGID_90_" gradientUnits="userSpaceOnUse" x1="274.1121" y1="-20.0678" x2="274.1121" y2="-48.4716" gradientTransform="matrix(0.751 0.2167 -0.2167 0.751 -80.8387 97.0261)">
		<stop  offset="0" style="stop-color:#00FFC0"/>
		<stop  offset="0.9888" style="stop-color:#A9FF14"/>
	</linearGradient>
	<path class="st89" d="M131.8,121.2c1.8-1.4,4.9-1.4,7.2,0.3c2.4,1.7,3.4,4.7,2.7,6.9c-0.5,2-1.4,4.4-3,6.6
		c-1.7,2.3-3.8,4.1-5.6,5.3c-1.9,1.4-5,1.3-7.3-0.4c-2.3-1.7-3.3-4.6-2.6-6.8c0.5-2.1,1.6-4.6,3.2-6.8
		C128,124,130,122.3,131.8,121.2z"/>
	
		<linearGradient id="SVGID_91_" gradientUnits="userSpaceOnUse" x1="260.8405" y1="-41.2174" x2="260.8405" y2="-69.6372" gradientTransform="matrix(0.7528 0.2283 -0.2283 0.7528 -76.5806 112.8851)">
		<stop  offset="0" style="stop-color:#00FFC0"/>
		<stop  offset="0.9888" style="stop-color:#A9FF14"/>
	</linearGradient>
	<path class="st90" d="M131.8,121.2c1.8-1.4,4.9-1.4,7.2,0.3c2.4,1.7,3.4,4.7,2.7,6.9c-0.5,2-1.5,4.4-3,6.6
		c-1.7,2.3-3.8,4.1-5.6,5.4c-1.9,1.4-5,1.4-7.3-0.3c-2.3-1.7-3.3-4.6-2.6-6.8c0.6-2.1,1.6-4.6,3.2-6.8
		C128,124.1,130,122.3,131.8,121.2z"/>
	
		<linearGradient id="SVGID_92_" gradientUnits="userSpaceOnUse" x1="247.1875" y1="-61.7383" x2="247.1875" y2="-90.1696" gradientTransform="matrix(0.7547 0.2398 -0.2398 0.7547 -72.3226 128.744)">
		<stop  offset="0" style="stop-color:#00FFC0"/>
		<stop  offset="0.9888" style="stop-color:#A9FF14"/>
	</linearGradient>
	<path class="st91" d="M131.9,121.1c1.8-1.4,4.9-1.5,7.2,0.2c2.4,1.7,3.4,4.7,2.6,6.9c-0.5,2-1.5,4.4-3.1,6.6
		c-1.7,2.3-3.8,4.2-5.6,5.4c-1.9,1.4-5,1.4-7.3-0.3c-2.3-1.7-3.3-4.7-2.5-6.9c0.6-2.1,1.7-4.6,3.3-6.8
		C128.1,124.1,130.1,122.3,131.9,121.1z"/>
	
		<linearGradient id="SVGID_93_" gradientUnits="userSpaceOnUse" x1="233.1855" y1="-81.6285" x2="233.1855" y2="-110.0666" gradientTransform="matrix(0.7565 0.2514 -0.2514 0.7565 -68.0645 144.603)">
		<stop  offset="0" style="stop-color:#00FFC0"/>
		<stop  offset="0.9888" style="stop-color:#A9FF14"/>
	</linearGradient>
	<path class="st92" d="M131.9,121.1c1.8-1.5,4.9-1.5,7.2,0.2c2.4,1.7,3.3,4.7,2.6,6.9c-0.6,2-1.6,4.4-3.1,6.6
		c-1.7,2.3-3.7,4.2-5.6,5.5c-1.8,1.5-5,1.5-7.3-0.2c-2.3-1.7-3.3-4.7-2.5-6.9c0.6-2.1,1.7-4.6,3.3-6.8
		C128.1,124.2,130.1,122.4,131.9,121.1z"/>
	
		<linearGradient id="SVGID_94_" gradientUnits="userSpaceOnUse" x1="218.866" y1="-100.8876" x2="218.866" y2="-129.3279" gradientTransform="matrix(0.7584 0.2629 -0.2629 0.7584 -63.8065 160.4619)">
		<stop  offset="0" style="stop-color:#00FFC0"/>
		<stop  offset="0.9888" style="stop-color:#A9FF14"/>
	</linearGradient>
	<path class="st93" d="M131.9,121.1c1.8-1.5,4.9-1.6,7.3,0.1c2.4,1.7,3.3,4.7,2.5,7c-0.6,2-1.6,4.4-3.2,6.5
		c-1.7,2.3-3.7,4.2-5.5,5.5c-1.8,1.5-5,1.5-7.3-0.2c-2.4-1.7-3.3-4.7-2.4-6.9c0.7-2.1,1.8-4.6,3.4-6.8
		C128.2,124.2,130.2,122.4,131.9,121.1z"/>
	
		<linearGradient id="SVGID_95_" gradientUnits="userSpaceOnUse" x1="204.2599" y1="-119.5169" x2="204.2599" y2="-147.9548" gradientTransform="matrix(0.7603 0.2744 -0.2744 0.7603 -59.5484 176.3208)">
		<stop  offset="0" style="stop-color:#00FFC0"/>
		<stop  offset="0.9888" style="stop-color:#A9FF14"/>
	</linearGradient>
	<path class="st94" d="M131.9,121.1c1.8-1.5,4.9-1.6,7.3,0.1c2.4,1.7,3.3,4.7,2.5,7c-0.6,2-1.7,4.4-3.2,6.5
		c-1.7,2.3-3.7,4.2-5.5,5.6c-1.8,1.5-5,1.6-7.3-0.1c-2.4-1.7-3.3-4.7-2.4-6.9c0.7-2.1,1.8-4.6,3.4-6.8
		C128.2,124.2,130.2,122.4,131.9,121.1z"/>
	
		<linearGradient id="SVGID_96_" gradientUnits="userSpaceOnUse" x1="189.3968" y1="-137.5191" x2="189.3968" y2="-165.95" gradientTransform="matrix(0.7621 0.286 -0.286 0.7621 -55.2904 192.1798)">
		<stop  offset="0" style="stop-color:#00FFC0"/>
		<stop  offset="0.9888" style="stop-color:#A9FF14"/>
	</linearGradient>
	<path class="st95" d="M132,121.1c1.8-1.6,4.9-1.7,7.3,0c2.4,1.7,3.3,4.8,2.4,7c-0.7,2-1.7,4.4-3.3,6.5c-1.7,2.3-3.7,4.2-5.5,5.6
		c-1.8,1.5-5,1.6-7.3-0.1c-2.4-1.7-3.3-4.7-2.3-6.9c0.7-2.1,1.9-4.5,3.5-6.8C128.3,124.3,130.2,122.5,132,121.1z"/>
	
		<linearGradient id="SVGID_97_" gradientUnits="userSpaceOnUse" x1="174.3055" y1="-154.8984" x2="174.3055" y2="-183.3178" gradientTransform="matrix(0.764 0.2975 -0.2975 0.764 -51.0323 208.0387)">
		<stop  offset="0" style="stop-color:#00FFC0"/>
		<stop  offset="0.9888" style="stop-color:#A9FF14"/>
	</linearGradient>
	<path class="st96" d="M132,121.1c1.8-1.6,4.9-1.7,7.3,0c2.4,1.7,3.3,4.8,2.4,7c-0.7,2-1.8,4.4-3.3,6.5c-1.7,2.3-3.7,4.2-5.5,5.7
		c-1.8,1.6-5,1.7-7.4,0c-2.4-1.7-3.2-4.7-2.3-7c0.8-2.1,1.9-4.5,3.5-6.8C128.3,124.3,130.3,122.5,132,121.1z"/>
	
		<linearGradient id="SVGID_98_" gradientUnits="userSpaceOnUse" x1="159.0137" y1="-171.6602" x2="159.0137" y2="-200.0635" gradientTransform="matrix(0.7658 0.3091 -0.3091 0.7658 -46.7742 223.8977)">
		<stop  offset="0" style="stop-color:#00FFC0"/>
		<stop  offset="0.9888" style="stop-color:#A9FF14"/>
	</linearGradient>
	<path class="st97" d="M132,121.1c1.8-1.6,5-1.8,7.3-0.1c2.4,1.7,3.3,4.8,2.3,7c-0.7,2-1.8,4.4-3.4,6.5c-1.7,2.3-3.7,4.2-5.5,5.7
		c-1.8,1.6-5,1.7-7.4,0c-2.4-1.7-3.2-4.8-2.3-7c0.8-2.1,2-4.5,3.6-6.8C128.4,124.4,130.3,122.5,132,121.1z"/>
	
		<linearGradient id="SVGID_99_" gradientUnits="userSpaceOnUse" x1="143.5482" y1="-187.811" x2="143.5482" y2="-216.1939" gradientTransform="matrix(0.7677 0.3206 -0.3206 0.7677 -42.5162 239.7566)">
		<stop  offset="0" style="stop-color:#00FFC0"/>
		<stop  offset="0.9888" style="stop-color:#A9FF14"/>
	</linearGradient>
	<path class="st98" d="M132.1,121.1c1.8-1.7,5-1.8,7.3-0.1c2.4,1.7,3.3,4.8,2.3,7.1c-0.8,2-1.9,4.3-3.4,6.5
		c-1.7,2.3-3.6,4.2-5.4,5.8c-1.8,1.6-5,1.8-7.4,0.1c-2.4-1.7-3.2-4.8-2.2-7c0.8-2.1,2-4.5,3.6-6.8
		C128.4,124.4,130.3,122.5,132.1,121.1z"/>
	
		<linearGradient id="SVGID_100_" gradientUnits="userSpaceOnUse" x1="127.9345" y1="-203.3585" x2="127.9345" y2="-231.7165" gradientTransform="matrix(0.7695 0.3321 -0.3321 0.7695 -38.2581 255.6156)">
		<stop  offset="0" style="stop-color:#00FFC0"/>
		<stop  offset="0.9888" style="stop-color:#A9FF14"/>
	</linearGradient>
	<path class="st99" d="M132.1,121.1c1.8-1.7,5-1.9,7.3-0.2c2.4,1.7,3.2,4.8,2.2,7.1c-0.8,2-1.9,4.3-3.5,6.5
		c-1.7,2.3-3.6,4.3-5.4,5.8c-1.8,1.7-5,1.8-7.4,0.1c-2.4-1.7-3.2-4.8-2.2-7c0.9-2.1,2.1-4.5,3.7-6.8
		C128.5,124.4,130.4,122.6,132.1,121.1z"/>
	
		<linearGradient id="SVGID_101_" gradientUnits="userSpaceOnUse" x1="112.1969" y1="-218.3111" x2="112.1969" y2="-246.6401" gradientTransform="matrix(0.7714 0.3437 -0.3437 0.7714 -34.0001 271.4745)">
		<stop  offset="0" style="stop-color:#00FFC0"/>
		<stop  offset="0.9888" style="stop-color:#A9FF14"/>
	</linearGradient>
	<path class="st100" d="M132.1,121.1c1.8-1.7,5-1.9,7.3-0.2c2.4,1.7,3.2,4.8,2.2,7.1c-0.8,2-2,4.3-3.5,6.5c-1.7,2.3-3.6,4.3-5.4,5.9
		c-1.8,1.7-5,1.9-7.4,0.2c-2.4-1.7-3.2-4.8-2.1-7.1c0.9-2.1,2.1-4.5,3.7-6.7C128.5,124.5,130.4,122.6,132.1,121.1z"/>
	
		<linearGradient id="SVGID_102_" gradientUnits="userSpaceOnUse" x1="96.3588" y1="-232.6782" x2="96.3588" y2="-260.974" gradientTransform="matrix(0.7732 0.3552 -0.3552 0.7732 -29.742 287.3335)">
		<stop  offset="0" style="stop-color:#00FFC0"/>
		<stop  offset="0.9888" style="stop-color:#A9FF14"/>
	</linearGradient>
	<path class="st101" d="M132.2,121.1c1.8-1.8,5-2,7.3-0.3c2.4,1.7,3.2,4.8,2.1,7.1c-0.9,2-2,4.3-3.6,6.5c-1.7,2.3-3.6,4.3-5.4,5.9
		c-1.8,1.7-5,1.9-7.4,0.2c-2.4-1.7-3.2-4.8-2.1-7.1c0.9-2.1,2.2-4.5,3.8-6.7C128.6,124.5,130.5,122.6,132.2,121.1z"/>
	
		<linearGradient id="SVGID_103_" gradientUnits="userSpaceOnUse" x1="80.4422" y1="-246.4701" x2="80.4422" y2="-274.7286" gradientTransform="matrix(0.7751 0.3668 -0.3668 0.7751 -25.484 303.1924)">
		<stop  offset="0" style="stop-color:#00FFC0"/>
		<stop  offset="0.9888" style="stop-color:#A9FF14"/>
	</linearGradient>
	<path class="st102" d="M132.2,121.1c1.8-1.8,5-2,7.4-0.3c2.4,1.7,3.2,4.9,2.1,7.1c-0.9,2-2.1,4.3-3.6,6.4c-1.7,2.3-3.6,4.3-5.4,5.9
		c-1.8,1.8-5,2-7.4,0.3c-2.4-1.7-3.2-4.8-2-7.1c1-2.1,2.2-4.5,3.8-6.7C128.6,124.6,130.5,122.6,132.2,121.1z"/>
	
		<linearGradient id="SVGID_104_" gradientUnits="userSpaceOnUse" x1="64.4683" y1="-259.6975" x2="64.4683" y2="-287.9149" gradientTransform="matrix(0.7769 0.3783 -0.3783 0.7769 -21.2259 319.0514)">
		<stop  offset="0" style="stop-color:#00FFC0"/>
		<stop  offset="0.9888" style="stop-color:#A9FF14"/>
	</linearGradient>
	<path class="st103" d="M132.2,121.1c1.8-1.8,5-2.1,7.4-0.4c2.4,1.7,3.2,4.9,2,7.2c-0.9,2-2.1,4.3-3.7,6.4c-1.7,2.3-3.6,4.3-5.3,6
		c-1.8,1.8-5,2-7.4,0.3c-2.4-1.7-3.2-4.9-2-7.1c1-2.1,2.3-4.5,3.9-6.7C128.7,124.6,130.5,122.7,132.2,121.1z"/>
	
		<linearGradient id="SVGID_105_" gradientUnits="userSpaceOnUse" x1="48.4568" y1="-272.3718" x2="48.4568" y2="-300.5442" gradientTransform="matrix(0.7788 0.3898 -0.3898 0.7788 -16.9679 334.9103)">
		<stop  offset="0" style="stop-color:#00FFC0"/>
		<stop  offset="0.9888" style="stop-color:#A9FF14"/>
	</linearGradient>
	<path class="st104" d="M132.3,121.1c1.8-1.9,5-2.1,7.4-0.4c2.4,1.7,3.2,4.9,2,7.2c-1,2-2.2,4.3-3.7,6.4c-1.7,2.3-3.6,4.3-5.3,6
		c-1.8,1.8-5,2.1-7.4,0.4c-2.4-1.7-3.1-4.9-2-7.2c1-2.1,2.3-4.5,3.9-6.7C128.7,124.6,130.6,122.7,132.3,121.1z"/>
	
		<linearGradient id="SVGID_106_" gradientUnits="userSpaceOnUse" x1="32.4266" y1="-284.5048" x2="32.4266" y2="-312.6286" gradientTransform="matrix(0.7806 0.4014 -0.4014 0.7806 -12.7098 350.7693)">
		<stop  offset="0" style="stop-color:#00FFC0"/>
		<stop  offset="0.9888" style="stop-color:#A9FF14"/>
	</linearGradient>
	<path class="st105" d="M132.3,121.1c1.8-1.9,5-2.2,7.4-0.5c2.4,1.7,3.2,4.9,2,7.2c-1,2-2.2,4.3-3.8,6.4c-1.7,2.3-3.5,4.3-5.3,6.1
		c-1.8,1.9-5.1,2.1-7.4,0.4c-2.4-1.7-3.1-4.9-1.9-7.2c1.1-2.1,2.4-4.5,4-6.7C128.8,124.7,130.6,122.7,132.3,121.1z"/>
	
		<linearGradient id="SVGID_107_" gradientUnits="userSpaceOnUse" x1="16.3952" y1="-296.1089" x2="16.3952" y2="-324.1805" gradientTransform="matrix(0.7825 0.4129 -0.4129 0.7825 -8.4518 366.6282)">
		<stop  offset="0" style="stop-color:#00FFC0"/>
		<stop  offset="0.9888" style="stop-color:#A9FF14"/>
	</linearGradient>
	<path class="st106" d="M132.3,121.1c1.8-1.9,5-2.2,7.4-0.5c2.4,1.7,3.2,4.9,1.9,7.2c-1,2-2.3,4.3-3.8,6.4c-1.7,2.3-3.5,4.4-5.3,6.1
		c-1.8,1.9-5.1,2.2-7.4,0.5c-2.4-1.7-3.1-4.9-1.9-7.2c1.1-2.1,2.4-4.5,4-6.7C128.8,124.7,130.6,122.8,132.3,121.1z"/>
	
		<linearGradient id="SVGID_108_" gradientUnits="userSpaceOnUse" x1="0.3792" y1="-307.1966" x2="0.3792" y2="-335.2127" gradientTransform="matrix(0.7844 0.4245 -0.4245 0.7844 -4.1937 382.4872)">
		<stop  offset="0" style="stop-color:#00FFC0"/>
		<stop  offset="0.9888" style="stop-color:#A9FF14"/>
	</linearGradient>
	<path class="st107" d="M132.3,121.1c1.8-2,5-2.3,7.4-0.6c2.4,1.7,3.1,4.9,1.9,7.3c-1.1,2-2.3,4.3-3.9,6.4c-1.7,2.3-3.5,4.4-5.2,6.2
		c-1.8,1.9-5.1,2.2-7.4,0.5c-2.4-1.7-3.1-4.9-1.8-7.2c1.1-2.1,2.5-4.5,4.1-6.7C128.9,124.8,130.7,122.8,132.3,121.1z"/>
	
		<linearGradient id="SVGID_109_" gradientUnits="userSpaceOnUse" x1="-15.6058" y1="-317.7809" x2="-15.6058" y2="-345.7382" gradientTransform="matrix(0.7862 0.436 -0.436 0.7862 6.434063e-02 398.3461)">
		<stop  offset="0" style="stop-color:#00FFC0"/>
		<stop  offset="0.9888" style="stop-color:#A9FF14"/>
	</linearGradient>
	<path class="st108" d="M132.4,121.1c1.8-2,5-2.3,7.4-0.6c2.4,1.7,3.1,5,1.8,7.3c-1.1,2-2.4,4.3-3.9,6.4c-1.7,2.3-3.5,4.4-5.2,6.2
		c-1.8,2-5.1,2.3-7.5,0.6c-2.4-1.7-3.1-4.9-1.8-7.3c1.2-2.1,2.5-4.5,4.1-6.7C129,124.8,130.7,122.8,132.4,121.1z"/>
	
		<linearGradient id="SVGID_110_" gradientUnits="userSpaceOnUse" x1="-31.5454" y1="-327.8747" x2="-31.5454" y2="-355.7701" gradientTransform="matrix(0.7881 0.4475 -0.4475 0.7881 4.3224 414.2051)">
		<stop  offset="0" style="stop-color:#00FFC0"/>
		<stop  offset="0.9888" style="stop-color:#A9FF14"/>
	</linearGradient>
	<path class="st109" d="M132.4,121.1c1.8-2,5.1-2.4,7.4-0.6c2.4,1.7,3.1,5,1.8,7.3c-1.1,2-2.4,4.3-3.9,6.4c-1.7,2.3-3.5,4.4-5.2,6.3
		c-1.8,2-5.1,2.3-7.5,0.6c-2.4-1.7-3.1-5-1.7-7.3c1.2-2.1,2.6-4.5,4.2-6.7C129,124.8,130.8,122.8,132.4,121.1z"/>
	
		<linearGradient id="SVGID_111_" gradientUnits="userSpaceOnUse" x1="-47.426" y1="-337.4915" x2="-47.426" y2="-365.3219" gradientTransform="matrix(0.7899 0.4591 -0.4591 0.7899 8.5804 430.064)">
		<stop  offset="0" style="stop-color:#00FFC0"/>
		<stop  offset="0.9888" style="stop-color:#A9FF14"/>
	</linearGradient>
	<path class="st110" d="M132.4,121.1c1.8-2.1,5.1-2.4,7.4-0.7c2.4,1.7,3.1,5,1.7,7.3c-1.1,2-2.5,4.3-4,6.4c-1.7,2.3-3.5,4.4-5.2,6.3
		c-1.8,2-5.1,2.4-7.5,0.7c-2.4-1.7-3.1-5-1.7-7.3c1.2-2.2,2.6-4.5,4.2-6.7C129.1,124.9,130.8,122.9,132.4,121.1z"/>
	
		<linearGradient id="SVGID_112_" gradientUnits="userSpaceOnUse" x1="-63.2351" y1="-346.6444" x2="-63.2351" y2="-374.4071" gradientTransform="matrix(0.7918 0.4706 -0.4706 0.7918 12.8385 445.923)">
		<stop  offset="0" style="stop-color:#00FFC0"/>
		<stop  offset="0.9888" style="stop-color:#A9FF14"/>
	</linearGradient>
	<path class="st111" d="M132.5,121.1c1.8-2.1,5.1-2.5,7.5-0.7c2.4,1.7,3.1,5,1.7,7.3c-1.2,2.1-2.5,4.2-4,6.3
		c-1.7,2.3-3.4,4.4-5.2,6.4c-1.8,2.1-5.1,2.4-7.5,0.7c-2.4-1.7-3.1-5-1.7-7.3c1.3-2.2,2.7-4.4,4.3-6.7
		C129.1,124.9,130.8,122.9,132.5,121.1z"/>
	
		<linearGradient id="SVGID_113_" gradientUnits="userSpaceOnUse" x1="-78.9611" y1="-355.3468" x2="-78.9611" y2="-383.0391" gradientTransform="matrix(0.7936 0.4821 -0.4821 0.7936 17.0966 461.7819)">
		<stop  offset="0" style="stop-color:#00FFC0"/>
		<stop  offset="0.9888" style="stop-color:#A9FF14"/>
	</linearGradient>
	<path class="st112" d="M132.5,121c1.8-2.1,5.1-2.5,7.5-0.8c2.4,1.7,3.1,5,1.6,7.4c-1.2,2.1-2.6,4.2-4.1,6.3
		c-1.7,2.3-3.4,4.4-5.1,6.4c-1.8,2.1-5.1,2.5-7.5,0.8c-2.4-1.7-3.1-5-1.6-7.3c1.3-2.2,2.7-4.4,4.3-6.6
		C129.2,125,130.9,122.9,132.5,121z"/>
	
		<linearGradient id="SVGID_114_" gradientUnits="userSpaceOnUse" x1="-94.5932" y1="-363.6122" x2="-94.5932" y2="-391.2315" gradientTransform="matrix(0.7955 0.4937 -0.4937 0.7955 21.3546 477.6409)">
		<stop  offset="0" style="stop-color:#00FFC0"/>
		<stop  offset="0.9888" style="stop-color:#A9FF14"/>
	</linearGradient>
	<path class="st113" d="M132.5,121c1.8-2.1,5.1-2.6,7.5-0.8c2.4,1.7,3.1,5,1.6,7.4c-1.2,2.1-2.6,4.2-4.1,6.3
		c-1.7,2.3-3.4,4.4-5.1,6.5c-1.8,2.1-5.1,2.6-7.5,0.8c-2.4-1.7-3-5-1.6-7.4c1.3-2.2,2.8-4.4,4.4-6.6
		C129.2,125,130.9,122.9,132.5,121z"/>
	
		<linearGradient id="SVGID_115_" gradientUnits="userSpaceOnUse" x1="-110.1215" y1="-371.4539" x2="-110.1215" y2="-398.9977" gradientTransform="matrix(0.7973 0.5052 -0.5052 0.7973 25.6127 493.4998)">
		<stop  offset="0" style="stop-color:#00FFC0"/>
		<stop  offset="0.9888" style="stop-color:#A9FF14"/>
	</linearGradient>
	<path class="st114" d="M132.6,121c1.8-2.2,5.1-2.6,7.5-0.9c2.4,1.7,3,5,1.5,7.4c-1.3,2.1-2.7,4.2-4.2,6.3c-1.7,2.3-3.4,4.5-5.1,6.5
		c-1.8,2.2-5.1,2.6-7.5,0.9c-2.4-1.7-3-5-1.5-7.4c1.4-2.2,2.8-4.4,4.4-6.6C129.3,125,130.9,123,132.6,121z"/>
	
		<linearGradient id="SVGID_116_" gradientUnits="userSpaceOnUse" x1="-125.537" y1="-378.8851" x2="-125.537" y2="-406.3511" gradientTransform="matrix(0.7992 0.5168 -0.5168 0.7992 29.8707 509.3588)">
		<stop  offset="0" style="stop-color:#00FFC0"/>
		<stop  offset="0.9888" style="stop-color:#A9FF14"/>
	</linearGradient>
	<path class="st115" d="M132.6,121c1.8-2.2,5.1-2.7,7.5-0.9c2.4,1.7,3,5.1,1.5,7.4c-1.3,2.1-2.7,4.2-4.2,6.3
		c-1.7,2.3-3.4,4.5-5.1,6.6c-1.8,2.2-5.1,2.7-7.5,0.9c-2.4-1.7-3-5.1-1.5-7.4c1.4-2.2,2.9-4.4,4.5-6.6
		C129.3,125.1,131,123,132.6,121z"/>
	
		<linearGradient id="SVGID_117_" gradientUnits="userSpaceOnUse" x1="-140.8314" y1="-385.9189" x2="-140.8314" y2="-413.3051" gradientTransform="matrix(0.801 0.5283 -0.5283 0.801 34.1288 525.2177)">
		<stop  offset="0" style="stop-color:#00FFC0"/>
		<stop  offset="0.9888" style="stop-color:#A9FF14"/>
	</linearGradient>
	<path class="st116" d="M132.6,121c1.8-2.2,5.1-2.7,7.5-1c2.4,1.7,3,5.1,1.4,7.5c-1.3,2.1-2.8,4.2-4.3,6.3c-1.7,2.3-3.4,4.5-5,6.6
		c-1.8,2.2-5.1,2.7-7.5,1c-2.4-1.7-3-5.1-1.4-7.4c1.4-2.2,2.9-4.4,4.5-6.6C129.4,125.1,131,123,132.6,121z"/>
	
		<linearGradient id="SVGID_118_" gradientUnits="userSpaceOnUse" x1="-155.997" y1="-392.5684" x2="-155.997" y2="-419.8727" gradientTransform="matrix(0.8029 0.5398 -0.5398 0.8029 38.3868 541.0767)">
		<stop  offset="0" style="stop-color:#00FFC0"/>
		<stop  offset="0.9888" style="stop-color:#A9FF14"/>
	</linearGradient>
	<path class="st117" d="M132.7,121c1.8-2.3,5.1-2.8,7.5-1c2.4,1.7,3,5.1,1.4,7.5c-1.4,2.1-2.8,4.2-4.3,6.3c-1.6,2.3-3.4,4.5-5,6.6
		c-1.8,2.3-5.1,2.8-7.5,1c-2.4-1.7-3-5.1-1.4-7.5c1.5-2.2,3-4.4,4.6-6.6C129.4,125.2,131.1,123.1,132.7,121z"/>
	
		<linearGradient id="SVGID_119_" gradientUnits="userSpaceOnUse" x1="-171.0271" y1="-398.8464" x2="-171.0271" y2="-426.0668" gradientTransform="matrix(0.8047 0.5514 -0.5514 0.8047 42.6449 556.9356)">
		<stop  offset="0" style="stop-color:#00FFC0"/>
		<stop  offset="0.9888" style="stop-color:#A9FF14"/>
	</linearGradient>
	<path class="st118" d="M132.7,121c1.7-2.3,5.1-2.8,7.5-1.1c2.4,1.7,3,5.1,1.4,7.5c-1.4,2.1-2.9,4.2-4.4,6.3c-1.6,2.3-3.3,4.5-5,6.7
		c-1.8,2.3-5.1,2.8-7.5,1.1c-2.4-1.7-3-5.1-1.3-7.5c1.5-2.2,3-4.4,4.6-6.6C129.5,125.2,131.1,123.1,132.7,121z"/>
	
		<linearGradient id="SVGID_120_" gradientUnits="userSpaceOnUse" x1="-185.9155" y1="-404.7655" x2="-185.9155" y2="-431.9003" gradientTransform="matrix(0.8066 0.5629 -0.5629 0.8066 46.9029 572.7946)">
		<stop  offset="0" style="stop-color:#00FFC0"/>
		<stop  offset="0.9888" style="stop-color:#A9FF14"/>
	</linearGradient>
	<path class="st119" d="M132.7,121c1.7-2.3,5.1-2.9,7.5-1.1c2.4,1.7,3,5.1,1.3,7.5c-1.4,2.1-2.9,4.2-4.4,6.3c-1.6,2.3-3.3,4.5-5,6.7
		c-1.7,2.3-5.1,2.9-7.5,1.1c-2.4-1.7-3-5.1-1.3-7.5c1.5-2.2,3.1-4.4,4.7-6.6C129.5,125.3,131.1,123.1,132.7,121z"/>
	
		<linearGradient id="SVGID_121_" gradientUnits="userSpaceOnUse" x1="-200.6566" y1="-410.3381" x2="-200.6566" y2="-437.3857" gradientTransform="matrix(0.8085 0.5745 -0.5745 0.8085 51.161 588.6535)">
		<stop  offset="0" style="stop-color:#00FFC0"/>
		<stop  offset="0.9888" style="stop-color:#A9FF14"/>
	</linearGradient>
	<path class="st120" d="M132.7,121c1.7-2.4,5.1-2.9,7.5-1.2c2.4,1.7,3,5.1,1.3,7.5c-1.5,2.1-3,4.2-4.5,6.3c-1.6,2.3-3.3,4.5-5,6.8
		c-1.7,2.4-5.1,2.9-7.6,1.2c-2.4-1.7-3-5.1-1.3-7.5c1.6-2.2,3.1-4.4,4.7-6.6C129.6,125.3,131.2,123.1,132.7,121z"/>
	
		<linearGradient id="SVGID_122_" gradientUnits="userSpaceOnUse" x1="-215.2454" y1="-415.5765" x2="-215.2454" y2="-442.5354" gradientTransform="matrix(0.8103 0.586 -0.586 0.8103 55.419 604.5125)">
		<stop  offset="0" style="stop-color:#00FFC0"/>
		<stop  offset="0.9888" style="stop-color:#A9FF14"/>
	</linearGradient>
	<path class="st121" d="M124.5,141.6c-2.4-1.7-3-5.2-1.2-7.6c1.6-2.2,3.2-4.4,4.8-6.6c1.6-2.2,3.1-4.3,4.7-6.5
		c1.7-2.4,5.2-3,7.6-1.2c2.4,1.7,3,5.2,1.2,7.6c-1.5,2.1-3,4.2-4.5,6.2c-1.6,2.3-3.3,4.6-4.9,6.8
		C130.4,142.8,126.9,143.4,124.5,141.6z"/>
</g>
</svg>
