<svg width="24" height="17" viewBox="0 0 24 17" fill="none" xmlns="http://www.w3.org/2000/svg">
    <g filter="url(#filter0_f_155_10789)">
        <path d="M18.9541 7.29217C19.21 6.96139 19.4131 6.69599 19.5631 6.49575C20.6436 5.05926 21.1119 4.14163 20.9684 3.74156L20.9121 3.64786C20.8747 3.59158 20.7777 3.5399 20.6217 3.49312C20.4655 3.44637 20.2656 3.4389 20.0222 3.46976L17.3241 3.48879C17.2616 3.48257 17.1991 3.48403 17.1367 3.49312C17.0742 3.50262 17.0337 3.51215 17.0148 3.52124C16.996 3.53077 16.9805 3.53841 16.9681 3.54463L16.9306 3.57275C16.8994 3.59138 16.8651 3.62427 16.8276 3.67125C16.7902 3.7182 16.7587 3.77262 16.7339 3.83529C16.4404 4.59095 16.1063 5.29368 15.7315 5.94323C15.5004 6.33049 15.2879 6.66645 15.0946 6.95024C14.9009 7.23468 14.7385 7.44384 14.6073 7.57786C14.4762 7.71212 14.3574 7.82008 14.2514 7.901C14.145 7.9825 14.064 8.01663 14.0079 8.00423C13.9516 7.99182 13.8985 7.97942 13.8486 7.96658C13.7611 7.91053 13.6908 7.83418 13.6378 7.73717C13.5847 7.6406 13.5489 7.51871 13.53 7.37184C13.5114 7.22518 13.5002 7.09859 13.4973 6.99225C13.494 6.88615 13.4957 6.73638 13.5021 6.54253C13.5083 6.34888 13.5114 6.21797 13.5114 6.14908C13.5114 5.912 13.5162 5.65427 13.5255 5.37625C13.5348 5.09844 13.5427 4.87812 13.5489 4.71571C13.5551 4.55353 13.5582 4.38162 13.5582 4.20041C13.5582 4.01961 13.5472 3.87727 13.5252 3.77407C13.5033 3.67125 13.4704 3.57133 13.427 3.47433C13.3832 3.37772 13.3192 3.30261 13.2348 3.24968C13.1504 3.19651 13.0459 3.15453 12.921 3.12306C12.5898 3.04796 12.1682 3.00783 11.6563 3.00124C10.4945 2.98924 9.74815 3.06411 9.41716 3.22629C9.28601 3.29518 9.16727 3.38867 9.06117 3.50742C8.94864 3.64499 8.93313 3.72006 9.01442 3.73206C9.38924 3.78834 9.65448 3.9228 9.81064 4.13504L9.86692 4.24736C9.91056 4.32885 9.95423 4.47244 9.99807 4.67846C10.0417 4.88451 10.0699 5.11247 10.0825 5.36236C10.1137 5.81827 10.1137 6.20844 10.0825 6.53344C10.0512 6.8584 10.0217 7.1112 9.99354 7.292C9.96538 7.47321 9.9232 7.61988 9.86713 7.7322C9.81085 7.84492 9.77343 7.91361 9.7546 7.93862C9.73577 7.96343 9.72026 7.97915 9.70785 7.9854C9.62656 8.01643 9.54236 8.03215 9.45489 8.03215C9.36737 8.03215 9.26124 7.98828 9.13631 7.90076C9.01135 7.81369 8.88165 7.69329 8.74759 7.54021C8.61313 7.38736 8.46191 7.17326 8.2931 6.89832C8.1245 6.62382 7.94948 6.29882 7.76847 5.9242L7.6187 5.65237C7.525 5.47779 7.39693 5.22313 7.23455 4.88904C7.07217 4.55495 6.92838 4.23184 6.80365 3.91928C6.75359 3.78834 6.67869 3.68842 6.57881 3.61954L6.53206 3.59141C6.50083 3.56657 6.45077 3.5399 6.38208 3.51195C6.3132 3.48382 6.24164 3.46354 6.16653 3.45093L3.59957 3.46956C3.33727 3.46956 3.15937 3.52915 3.06568 3.64786L3.02822 3.70394C3.0093 3.73537 3 3.78543 3 3.85391C3 3.9228 3.01883 4.007 3.05628 4.10671C3.4311 4.98754 3.83864 5.83693 4.27884 6.65485C4.71927 7.47321 5.10176 8.13227 5.42652 8.63185C5.75128 9.13184 6.08227 9.60306 6.41967 10.0466C6.75707 10.4901 6.98026 10.7741 7.08948 10.8988C7.19869 11.024 7.28454 11.1177 7.34704 11.18L7.58122 11.405C7.73099 11.5548 7.95131 11.7343 8.24176 11.9437C8.53218 12.153 8.85366 12.3591 9.20678 12.5618C9.5595 12.765 9.97032 12.9302 10.4386 13.0585C10.907 13.1867 11.3629 13.2382 11.8064 13.213H12.8838C13.1024 13.1944 13.2679 13.1259 13.3803 13.0069L13.4177 12.9602C13.4425 12.9229 13.4661 12.865 13.488 12.787C13.5097 12.7091 13.5209 12.623 13.5209 12.5295C13.5145 12.261 13.535 12.0186 13.5817 11.8034C13.6285 11.5879 13.6816 11.4257 13.741 11.3161C13.8004 11.207 13.8674 11.1148 13.9425 11.0397C14.0174 10.9646 14.0703 10.9197 14.1018 10.904C14.133 10.8887 14.1581 10.8777 14.1767 10.8711C14.3265 10.8212 14.5029 10.8696 14.706 11.0163C14.909 11.1634 15.0995 11.3442 15.2776 11.5597C15.4555 11.7753 15.6694 12.0171 15.9193 12.2858C16.169 12.5543 16.3876 12.7541 16.575 12.8853L16.7625 12.998C16.8874 13.0727 17.0496 13.1414 17.2496 13.2041C17.4495 13.2663 17.6245 13.2821 17.7742 13.2508L20.1726 13.2132C20.4099 13.2132 20.5942 13.1743 20.7254 13.0961C20.8565 13.0185 20.9345 12.932 20.9595 12.8385C20.9843 12.7449 20.986 12.6392 20.9643 12.5202C20.9424 12.4016 20.9205 12.3189 20.8988 12.2721C20.8769 12.2254 20.8565 12.1861 20.8377 12.1551C20.5254 11.593 19.9289 10.9027 19.0483 10.0846L19.0295 10.0659L19.0202 10.0564L19.0109 10.0473H19.0015C18.6016 9.66627 18.3488 9.41016 18.2427 9.27881C18.0491 9.02935 18.0052 8.77635 18.1116 8.52027C18.186 8.32608 18.467 7.91692 18.9541 7.29217Z" fill="url(#paint0_linear_155_10789)" fill-opacity="0.8"/>
    </g>
        <path d="M18.9541 7.29217C19.21 6.96139 19.4131 6.69599 19.5631 6.49575C20.6436 5.05926 21.1119 4.14163 20.9684 3.74156L20.9121 3.64786C20.8747 3.59158 20.7777 3.5399 20.6217 3.49312C20.4655 3.44637 20.2656 3.4389 20.0222 3.46976L17.3241 3.48879C17.2616 3.48257 17.1991 3.48403 17.1367 3.49312C17.0742 3.50262 17.0337 3.51215 17.0148 3.52124C16.996 3.53077 16.9805 3.53841 16.9681 3.54463L16.9306 3.57275C16.8994 3.59138 16.8651 3.62427 16.8276 3.67125C16.7902 3.7182 16.7587 3.77262 16.7339 3.83529C16.4404 4.59095 16.1063 5.29368 15.7315 5.94323C15.5004 6.33049 15.2879 6.66645 15.0946 6.95024C14.9009 7.23468 14.7385 7.44384 14.6073 7.57786C14.4762 7.71212 14.3574 7.82008 14.2514 7.901C14.145 7.9825 14.064 8.01663 14.0079 8.00423C13.9516 7.99182 13.8985 7.97942 13.8486 7.96658C13.7611 7.91053 13.6908 7.83418 13.6378 7.73717C13.5847 7.6406 13.5489 7.51871 13.53 7.37184C13.5114 7.22518 13.5002 7.09859 13.4973 6.99225C13.494 6.88615 13.4957 6.73638 13.5021 6.54253C13.5083 6.34888 13.5114 6.21797 13.5114 6.14908C13.5114 5.912 13.5162 5.65427 13.5255 5.37625C13.5348 5.09844 13.5427 4.87812 13.5489 4.71571C13.5551 4.55353 13.5582 4.38162 13.5582 4.20041C13.5582 4.01961 13.5472 3.87727 13.5252 3.77407C13.5033 3.67125 13.4704 3.57133 13.427 3.47433C13.3832 3.37772 13.3192 3.30261 13.2348 3.24968C13.1504 3.19651 13.0459 3.15453 12.921 3.12306C12.5898 3.04796 12.1682 3.00783 11.6563 3.00124C10.4945 2.98924 9.74815 3.06411 9.41716 3.22629C9.28601 3.29518 9.16727 3.38867 9.06117 3.50742C8.94864 3.64499 8.93313 3.72006 9.01442 3.73206C9.38924 3.78834 9.65448 3.9228 9.81064 4.13504L9.86692 4.24736C9.91056 4.32885 9.95423 4.47244 9.99807 4.67846C10.0417 4.88451 10.0699 5.11247 10.0825 5.36236C10.1137 5.81827 10.1137 6.20844 10.0825 6.53344C10.0512 6.8584 10.0217 7.1112 9.99354 7.292C9.96538 7.47321 9.9232 7.61988 9.86713 7.7322C9.81085 7.84492 9.77343 7.91361 9.7546 7.93862C9.73577 7.96343 9.72026 7.97915 9.70785 7.9854C9.62656 8.01643 9.54236 8.03215 9.45489 8.03215C9.36737 8.03215 9.26124 7.98828 9.13631 7.90076C9.01135 7.81369 8.88165 7.69329 8.74759 7.54021C8.61313 7.38736 8.46191 7.17326 8.2931 6.89832C8.1245 6.62382 7.94948 6.29882 7.76847 5.9242L7.6187 5.65237C7.525 5.47779 7.39693 5.22313 7.23455 4.88904C7.07217 4.55495 6.92838 4.23184 6.80365 3.91928C6.75359 3.78834 6.67869 3.68842 6.57881 3.61954L6.53206 3.59141C6.50083 3.56657 6.45077 3.5399 6.38208 3.51195C6.3132 3.48382 6.24164 3.46354 6.16653 3.45093L3.59957 3.46956C3.33727 3.46956 3.15937 3.52915 3.06568 3.64786L3.02822 3.70394C3.0093 3.73537 3 3.78543 3 3.85391C3 3.9228 3.01883 4.007 3.05628 4.10671C3.4311 4.98754 3.83864 5.83693 4.27884 6.65485C4.71927 7.47321 5.10176 8.13227 5.42652 8.63185C5.75128 9.13184 6.08227 9.60306 6.41967 10.0466C6.75707 10.4901 6.98026 10.7741 7.08948 10.8988C7.19869 11.024 7.28454 11.1177 7.34704 11.18L7.58122 11.405C7.73099 11.5548 7.95131 11.7343 8.24176 11.9437C8.53218 12.153 8.85366 12.3591 9.20678 12.5618C9.5595 12.765 9.97032 12.9302 10.4386 13.0585C10.907 13.1867 11.3629 13.2382 11.8064 13.213H12.8838C13.1024 13.1944 13.2679 13.1259 13.3803 13.0069L13.4177 12.9602C13.4425 12.923 13.4661 12.865 13.488 12.787C13.5097 12.7091 13.5209 12.623 13.5209 12.5295C13.5145 12.261 13.535 12.0186 13.5817 11.8034C13.6285 11.5879 13.6816 11.4257 13.741 11.3161C13.8004 11.207 13.8674 11.1148 13.9425 11.0397C14.0174 10.9646 14.0703 10.9197 14.1018 10.904C14.133 10.8887 14.1581 10.8777 14.1767 10.8711C14.3265 10.8212 14.5029 10.8696 14.706 11.0163C14.909 11.1634 15.0995 11.3442 15.2776 11.5597C15.4555 11.7753 15.6694 12.0171 15.9193 12.2858C16.169 12.5543 16.3876 12.7541 16.575 12.8853L16.7625 12.998C16.8874 13.0727 17.0496 13.1414 17.2496 13.2041C17.4495 13.2663 17.6245 13.2821 17.7742 13.2508L20.1726 13.2132C20.4099 13.2132 20.5942 13.1743 20.7254 13.0961C20.8565 13.0185 20.9345 12.932 20.9595 12.8385C20.9844 12.7449 20.986 12.6392 20.9643 12.5202C20.9424 12.4016 20.9205 12.3189 20.8988 12.2721C20.8769 12.2254 20.8565 12.1861 20.8377 12.1551C20.5254 11.593 19.9289 10.9027 19.0483 10.0846L19.0295 10.0659L19.0202 10.0564L19.0109 10.0473H19.0015C18.6016 9.66627 18.3488 9.41016 18.2427 9.27881C18.0491 9.02935 18.0052 8.77635 18.1116 8.52027C18.186 8.32608 18.467 7.91692 18.9541 7.29217Z" fill="url(#paint1_linear_155_10789)"/>
    <defs>
        <filter id="filter0_f_155_10789" x="0" y="0" width="23.9937" height="16.2664" filterUnits="userSpaceOnUse" color-interpolation-filters="sRGB">
            <feFlood flood-opacity="0" result="BackgroundImageFix"/>
            <feBlend mode="normal" in="SourceGraphic" in2="BackgroundImageFix" result="shape"/>
            <feGaussianBlur stdDeviation="1.5" result="effect1_foregroundBlur_155_10789"/>
        </filter>
        <linearGradient id="paint0_linear_155_10789" x1="20.7637" y1="3.13379" x2="5.76367" y2="13.1338" gradientUnits="userSpaceOnUse">
            <stop stop-color="#94F930"/>
            <stop offset="1" stop-color="#05E3DB"/>
        </linearGradient>
        <linearGradient id="paint1_linear_155_10789" x1="7" y1="11" x2="21" y2="4" gradientUnits="userSpaceOnUse">
            <stop stop-color="#94F930"/>
            <stop offset="1" stop-color="#05E3DB"/>
        </linearGradient>
    </defs>
</svg>
