<svg width="19" height="12" viewBox="0 0 19 12" fill="none" xmlns="http://www.w3.org/2000/svg">
<path d="M16.1904 5.15838C16.4463 4.82761 16.6495 4.5622 16.7995 4.36196C17.8799 2.92548 18.3482 2.00784 18.2047 1.60777L18.1484 1.51407C18.111 1.45779 18.014 1.40611 17.858 1.35933C17.7018 1.31258 17.502 1.30511 17.2585 1.33597L14.5604 1.355C14.4979 1.34878 14.4354 1.35024 14.373 1.35933C14.3105 1.36883 14.27 1.37836 14.2511 1.38745C14.2323 1.39698 14.2168 1.40462 14.2044 1.41084L14.167 1.43897C14.1357 1.45759 14.1014 1.49048 14.064 1.53746C14.0265 1.58441 13.9951 1.63883 13.9702 1.7015C13.6767 2.45716 13.3426 3.15989 12.9678 3.80945C12.7367 4.19671 12.5243 4.53266 12.3309 4.81645C12.1372 5.10089 11.9749 5.31005 11.8437 5.44407C11.7126 5.57833 11.5938 5.68629 11.4877 5.76721C11.3814 5.84871 11.3003 5.88285 11.2442 5.87044C11.1879 5.85804 11.1348 5.84563 11.0849 5.83279C10.9975 5.77674 10.9271 5.70039 10.8741 5.60338C10.821 5.50681 10.7852 5.38492 10.7664 5.23805C10.7477 5.09139 10.7366 4.9648 10.7337 4.85847C10.7304 4.75236 10.732 4.60259 10.7384 4.40874C10.7447 4.21509 10.7477 4.08418 10.7477 4.01529C10.7477 3.77821 10.7525 3.52048 10.7619 3.24246C10.7712 2.96465 10.779 2.74433 10.7852 2.58192C10.7914 2.41974 10.7945 2.24783 10.7945 2.06662C10.7945 1.88582 10.7836 1.74348 10.7616 1.64029C10.7397 1.53746 10.7068 1.43755 10.6633 1.34054C10.6195 1.24393 10.5555 1.16883 10.4711 1.11589C10.3868 1.06272 10.2823 1.02074 10.1574 0.989274C9.82614 0.914167 9.40457 0.874045 8.89259 0.867454C7.73084 0.855454 6.98447 0.930324 6.65349 1.0925C6.52234 1.16139 6.4036 1.25488 6.2975 1.37363C6.18497 1.5112 6.16946 1.58627 6.25075 1.59827C6.62557 1.65455 6.89081 1.78901 7.04697 2.00125L7.10325 2.11357C7.14689 2.19506 7.19056 2.33865 7.2344 2.54467C7.27807 2.75072 7.30619 2.97868 7.3188 3.22857C7.35003 3.68448 7.35003 4.07465 7.3188 4.39965C7.28757 4.72461 7.25799 4.97741 7.22987 5.15822C7.20171 5.33942 7.15953 5.48609 7.10345 5.59841C7.04717 5.71114 7.00976 5.77982 6.99093 5.80483C6.9721 5.82964 6.95659 5.84536 6.94418 5.85161C6.86289 5.88264 6.77869 5.89836 6.69121 5.89836C6.6037 5.89836 6.49757 5.85449 6.37264 5.76697C6.24767 5.6799 6.11798 5.5595 5.98392 5.40642C5.84946 5.25357 5.69823 5.03947 5.52943 4.76453C5.36083 4.49003 5.18581 4.16503 5.0048 3.79042L4.85503 3.51859C4.76133 3.344 4.63326 3.08934 4.47088 2.75525C4.3085 2.42116 4.16471 2.09806 4.03998 1.7855C3.98992 1.65455 3.91502 1.55463 3.81513 1.48575L3.76839 1.45762C3.73716 1.43278 3.6871 1.40611 3.61841 1.37816C3.54952 1.35003 3.47797 1.32975 3.40286 1.31715L0.835894 1.33577C0.573597 1.33577 0.395701 1.39536 0.302004 1.51407L0.264552 1.57015C0.245623 1.60158 0.236328 1.65164 0.236328 1.72012C0.236328 1.78901 0.255155 1.87321 0.292607 1.97292C0.667429 2.85375 1.07497 3.70314 1.51516 4.52106C1.95559 5.33942 2.33809 5.99848 2.66285 6.49806C2.98761 6.99805 3.31859 7.46927 3.656 7.91278C3.9934 8.35628 4.21659 8.64028 4.3258 8.76504C4.43502 8.89021 4.52087 8.98394 4.58337 9.04617L4.81754 9.27122C4.96732 9.42102 5.18763 9.60054 5.47809 9.80991C5.76851 10.0192 6.08999 10.2253 6.44311 10.428C6.79583 10.6312 7.20665 10.7964 7.67496 10.9247C8.14331 11.0529 8.59923 11.1044 9.04273 11.0792H10.1201C10.3388 11.0606 10.5042 10.9921 10.6166 10.8732L10.654 10.8264C10.6788 10.7892 10.7024 10.7313 10.7243 10.6532C10.746 10.5753 10.7573 10.4892 10.7573 10.3957C10.7508 10.1272 10.7713 9.88478 10.8181 9.66963C10.8648 9.45408 10.918 9.2919 10.9774 9.18228C11.0367 9.07324 11.1037 8.981 11.1788 8.90589C11.2537 8.83079 11.3067 8.7859 11.3381 8.77018C11.3693 8.75487 11.3944 8.74392 11.413 8.73729C11.5628 8.6874 11.7392 8.73584 11.9424 8.8825C12.1453 9.0296 12.3358 9.21037 12.5139 9.42592C12.6918 9.64147 12.9057 9.88329 13.1556 10.152C13.4053 10.4205 13.6239 10.6203 13.8114 10.7515L13.9988 10.8642C14.1237 10.9389 14.2859 11.0076 14.4859 11.0703C14.6858 11.1325 14.8608 11.1483 15.0105 11.117L17.4089 11.0794C17.6462 11.0794 17.8305 11.0405 17.9617 10.9623C18.0928 10.8847 18.1709 10.7983 18.1959 10.7048C18.2207 10.6111 18.2223 10.5054 18.2006 10.3864C18.1787 10.2678 18.1568 10.1851 18.1351 10.1384C18.1132 10.0916 18.0928 10.0523 18.074 10.0213C17.7617 9.45922 17.1653 8.7689 16.2846 7.95077L16.2658 7.93215L16.2565 7.92265L16.2472 7.91352H16.2378C15.838 7.53248 15.5852 7.27637 15.479 7.14502C15.2854 6.89556 15.2416 6.64256 15.3479 6.38648C15.4224 6.1923 15.7033 5.78313 16.1904 5.15838Z" fill="#D7D7D7"/>
</svg>
