<svg width="6" height="12" viewBox="0 0 6 12" fill="none" xmlns="http://www.w3.org/2000/svg">
<path d="M5.47088 0H3.79875C2.10467 0 0.395319 1.27553 0.395319 4.12515C0.395319 5.60119 1.00888 6.75079 2.13354 7.40456L0.0750232 11.2036C-0.0225477 11.3832 -0.0250855 11.5869 0.0682192 11.7483C0.159317 11.9059 0.325846 12 0.513669 12H1.55488C1.79143 12 1.97591 11.8834 2.06432 11.6792L3.99437 7.83H4.13523V11.5203C4.13523 11.7803 4.35045 12 4.60517 12H5.51487C5.80052 12 6 11.7966 6 11.5054V0.525075C6.00004 0.215925 5.78246 0 5.47088 0ZM4.13527 6.12015H3.8868C2.92334 6.12015 2.34813 5.31825 2.34813 3.97508C2.34813 2.30494 3.07475 1.70989 3.75477 1.70989H4.13527V6.12015Z" fill="#D7D7D7"/>
</svg>
